<?xml version="1.0" encoding="iso-8859-1"?>
<!-- Generator: Adobe Illustrator 19.0.0, SVG Export Plug-In . SVG Version: 6.00 Build 0)  -->
<svg version="1.1" id="Capa_1" xmlns="http://www.w3.org/2000/svg" xmlns:xlink="http://www.w3.org/1999/xlink" x="0px" y="0px"
	 viewBox="0 0 496 496" style="enable-background:new 0 0 496 496;" xml:space="preserve">
<g>
	<g>
		<g>
			<path d="M16,64h256v16h16V40c0-22.056-17.944-40-40-40H40C17.944,0,0,17.944,0,40v360h16V64z M16,40c0-13.232,10.768-24,24-24
				h208c13.232,0,24,10.768,24,24v8H16V40z"/>
			<path d="M0,456c0,22.056,17.944,40,40,40h208c22.056,0,40-17.944,40-40v-40H0V456z M16,432h256v24c0,13.232-10.768,24-24,24H40
				c-13.232,0-24-10.768-24-24V432z"/>
			<rect x="104" y="448" width="80" height="16"/>
			<path d="M352,216H176v-96h-64v240h64v-96h176v96h64V120h-64V216z M160,344h-32V136h32V344z M352,248H176v-16h176V248z M368,136
				h32v208h-32V136z"/>
			<path d="M96,184v-16H64v48H32v48h32v48h32v-16H80V184H96z M64,248H48v-16h16V248z"/>
			<path d="M464,216v-48h-32v16h16v112h-16v16h32v-48h32v-48H464z M480,248h-16v-16h16V248z"/>
			<path d="M187.184,137.776l9.624,12.784c26.04-19.6,58.648-26.984,91.488-19.6C289.776,142.784,299.776,152,312,152
				c13.232,0,24-10.768,24-24s-10.768-24-24-24c-8.576,0-16.064,4.56-20.304,11.344
				C254.336,106.992,216.952,115.376,187.184,137.776z M312,120c4.416,0,8,3.592,8,8s-3.584,8-8,8c-4.416,0-8-3.592-8-8
				S307.584,120,312,120z"/>
			<path d="M239.704,349.048C238.232,337.216,228.224,328,216,328c-13.232,0-24,10.768-24,24s10.768,24,24,24
				c8.52,0,15.968-4.488,20.224-11.2c9.28,2.088,18.592,3.2,27.776,3.2c27.84,0,54.408-8.912,76.816-25.776l-9.624-12.784
				C305.128,349.064,272.504,356.416,239.704,349.048z M216,360c-4.416,0-8-3.584-8-8c0-4.416,3.584-8,8-8s8,3.584,8,8
				C224,356.416,220.416,360,216,360z"/>
		</g>
	</g>
</g>
<g>
</g>
<g>
</g>
<g>
</g>
<g>
</g>
<g>
</g>
<g>
</g>
<g>
</g>
<g>
</g>
<g>
</g>
<g>
</g>
<g>
</g>
<g>
</g>
<g>
</g>
<g>
</g>
<g>
</g>
</svg>
