<?xml version="1.0" encoding="iso-8859-1"?>
<!-- Generator: Adobe Illustrator 19.0.0, SVG Export Plug-In . SVG Version: 6.00 Build 0)  -->
<svg version="1.1" id="Capa_1" xmlns="http://www.w3.org/2000/svg" xmlns:xlink="http://www.w3.org/1999/xlink" x="0px" y="0px"
	 viewBox="0 0 496 496" style="enable-background:new 0 0 496 496;" xml:space="preserve">
<g>
	<g>
		<g>
			<path d="M16,64h256v16h16V40c0-22.056-17.944-40-40-40H40C17.944,0,0,17.944,0,40v360h16V64z M16,40c0-13.232,10.768-24,24-24
				h208c13.232,0,24,10.768,24,24v8H16V40z"/>
			<path d="M0,456c0,22.056,17.944,40,40,40h208c22.056,0,40-17.944,40-40v-40H0V456z M16,432h256v24c0,13.232-10.768,24-24,24H40
				c-13.232,0-24-10.768-24-24V432z"/>
			<rect x="104" y="448" width="80" height="16"/>
			<path d="M384,208h16c8.824,0,16,7.176,16,16h16c0-17.648-14.352-32-32-32v-16h-16v16c-17.648,0-32,14.352-32,32s14.352,32,32,32
				h16c8.824,0,16,7.176,16,16c0,8.824-7.176,16-16,16h-16c-8.824,0-16-7.176-16-16h-16c0,17.648,14.352,32,32,32v16h16v-16
				c17.648,0,32-14.352,32-32s-14.352-32-32-32h-16c-8.824,0-16-7.176-16-16C368,215.176,375.176,208,384,208z"/>
			<path d="M392,144c-57.344,0-104,46.656-104,104s46.656,104,104,104s104-46.656,104-104S449.344,144,392,144z M392,336
				c-48.52,0-88-39.48-88-88c0-48.52,39.48-88,88-88c48.52,0,88,39.48,88,88S440.52,336,392,336z"/>
			<rect x="224" y="176" width="16" height="16"/>
			<path d="M216,96h-64H88c-13.232,0-24,10.768-24,24v24H32v240h240V144h-32v-24C240,106.768,229.232,96,216,96z M216,112
				c4.416,0,8,3.592,8,8v24h-48v-24c0-2.816-0.576-5.488-1.472-8H216z M144,120c0-4.408,3.584-8,8-8s8,3.592,8,8v24h-16V120z
				 M80,120c0-4.408,3.584-8,8-8h41.472c-0.896,2.512-1.472,5.184-1.472,8v24H80V120z M192,368H48V160h16v32h16v-32h80v32h16v-32h16
				V368z M219.312,368L232,355.312L244.688,368H219.312z M256,160v196.688l-16-16V208h-16v132.688l-16,16V160H256z"/>
			<path d="M392,112c19.552,0,38.456,4.336,56.352,12.552C448.184,125.688,448,126.816,448,128c0,13.232,10.768,24,24,24
				s24-10.768,24-24s-10.768-24-24-24c-6.2,0-11.808,2.424-16.072,6.304C435.672,100.848,414.2,96,392,96
				c-33.848,0-65.976,11.016-92.896,31.864l9.8,12.648C332.992,121.856,361.728,112,392,112z M472,120c4.416,0,8,3.592,8,8
				s-3.584,8-8,8c-4.416,0-8-3.592-8-8S467.584,120,472,120z"/>
			<path d="M392,384c-19.552,0-38.456-4.336-56.352-12.552c0.168-1.136,0.352-2.264,0.352-3.448c0-13.232-10.768-24-24-24
				s-24,10.768-24,24s10.768,24,24,24c6.2,0,11.808-2.424,16.072-6.304C348.328,395.152,369.8,400,392,400
				c33.848,0,65.976-11.016,92.896-31.864l-9.8-12.648C451.008,374.144,422.272,384,392,384z M312,376c-4.416,0-8-3.592-8-8
				c0-4.408,3.584-8,8-8c4.416,0,8,3.592,8,8C320,372.408,316.416,376,312,376z"/>
		</g>
	</g>
</g>
<g>
</g>
<g>
</g>
<g>
</g>
<g>
</g>
<g>
</g>
<g>
</g>
<g>
</g>
<g>
</g>
<g>
</g>
<g>
</g>
<g>
</g>
<g>
</g>
<g>
</g>
<g>
</g>
<g>
</g>
</svg>
