<?xml version="1.0" encoding="iso-8859-1"?>
<!-- Generator: Adobe Illustrator 19.0.0, SVG Export Plug-In . SVG Version: 6.00 Build 0)  -->
<svg version="1.1" id="Capa_1" xmlns="http://www.w3.org/2000/svg" xmlns:xlink="http://www.w3.org/1999/xlink" x="0px" y="0px"
	 viewBox="0 0 496 496" style="enable-background:new 0 0 496 496;" xml:space="preserve">
<g>
	<g>
		<g>
			<path d="M120,64h256v16h16V40c0-22.056-17.944-40-40-40H144c-22.056,0-40,17.944-40,40v40h16V64z M120,40
				c0-13.232,10.768-24,24-24h208c13.232,0,24,10.768,24,24v8H120V40z"/>
			<path d="M104,456c0,22.056,17.944,40,40,40h208c22.056,0,40-17.944,40-40v-40H104V456z M120,432h256v24c0,13.232-10.768,24-24,24
				H144c-13.232,0-24-10.768-24-24V432z"/>
			<rect x="208" y="448" width="80" height="16"/>
			<path d="M424,384H280v-31.16l-62.952-6.992c-3.616-12.016-8.608-23.528-14.88-34.272l-13.824,8.064
				c6.464,11.072,11.416,23.056,14.728,35.608l1.4,5.304L264,367.16V384H143.592c-3.768-37.736-33.856-67.832-71.592-71.592V192
				h16.84l6.616,59.52l5.304,1.4c12.552,3.312,24.528,8.264,35.608,14.728l4.744,2.768l46.752-37.408l40.192,40.192l11.312-11.312
				l-50.32-50.32l-49.44,39.552c-9.344-5.016-19.208-9.096-29.448-12.176l-7-62.944H24v16h32v208h384v-64h-16V384z M72,384v-55.448
				c28.896,3.624,51.816,26.552,55.448,55.448H72z"/>
			<path d="M440,304V96H56v64h16v-48h144v31.16l62.952,6.992c3.616,12.016,8.608,23.528,14.88,34.272l13.824-8.064
				c-6.464-11.072-11.416-23.056-14.728-35.608l-1.4-5.304L232,128.84V112h120.408c3.768,37.736,33.856,67.832,71.592,71.592V304
				h-16.84l-6.616-59.52l-5.304-1.4c-12.552-3.312-24.528-8.264-35.608-14.728l-4.744-2.768l-46.752,37.408L267.944,222.8
				l-11.312,11.312l50.32,50.32l49.44-39.552c9.344,5.016,19.208,9.096,29.448,12.176l7,62.944H472v-16H440z M424,167.448
				c-28.896-3.632-51.816-26.552-55.448-55.448H424V167.448z"/>
		</g>
	</g>
</g>
<g>
</g>
<g>
</g>
<g>
</g>
<g>
</g>
<g>
</g>
<g>
</g>
<g>
</g>
<g>
</g>
<g>
</g>
<g>
</g>
<g>
</g>
<g>
</g>
<g>
</g>
<g>
</g>
<g>
</g>
</svg>
