<?xml version="1.0" encoding="iso-8859-1"?>
<!-- Generator: Adobe Illustrator 19.0.0, SVG Export Plug-In . SVG Version: 6.00 Build 0)  -->
<svg version="1.1" id="Capa_1" xmlns="http://www.w3.org/2000/svg" xmlns:xlink="http://www.w3.org/1999/xlink" x="0px" y="0px"
	 viewBox="0 0 496 496" style="enable-background:new 0 0 496 496;" xml:space="preserve">
<g>
	<g>
		<g>
			<path d="M0,456c0,22.056,17.944,40,40,40h208c22.056,0,40-17.944,40-40v-40H0V456z M16,432h256v24c0,13.232-10.768,24-24,24H40
				c-13.232,0-24-10.768-24-24V432z"/>
			<path d="M16,64h256h8h8V40c0-22.056-17.944-40-40-40H40C17.944,0,0,17.944,0,40v360h16V64z M16,40c0-13.232,10.768-24,24-24h208
				c13.232,0,24,10.768,24,24v8H16V40z"/>
			<rect x="104" y="448" width="80" height="16"/>
			<path d="M336,80c-58.944,0-112.952,32.264-140.936,84.208l14.08,7.584C234.336,125.04,282.944,96,336,96c79.4,0,144,64.6,144,144
				s-64.6,144-144,144c-53.056,0-101.664-29.04-126.856-75.792l-14.08,7.584C223.048,367.736,277.056,400,336,400
				c88.224,0,160-71.776,160-160S424.224,80,336,80z"/>
			<path d="M336,128c-35.288,0-64,28.712-64,64v33.472c-9.288,3.312-16,12.112-16,22.528v80c0,13.232,10.768,24,24,24h112
				c13.232,0,24-10.768,24-24v-80c0-10.416-6.712-19.216-16-22.528V192C400,156.712,371.288,128,336,128z M288,192
				c0-26.472,21.528-48,48-48s48,21.528,48,48v32h-16v-32c0-17.648-14.352-32-32-32s-32,14.352-32,32v32h-16V192z M352,192v32h-32
				v-32c0-8.824,7.176-16,16-16C344.824,176,352,183.176,352,192z M400,328c0,4.408-3.584,8-8,8H280c-4.416,0-8-3.592-8-8v-80
				c0-4.408,3.584-8,8-8h112c4.416,0,8,3.592,8,8V328z"/>
			<path d="M336,248c-13.232,0-24,10.768-24,24c0,10.416,6.712,19.216,16,22.528V328h16v-33.472c9.288-3.312,16-12.112,16-22.528
				C360,258.768,349.232,248,336,248z M336,280c-4.416,0-8-3.592-8-8c0-4.408,3.584-8,8-8c4.416,0,8,3.592,8,8
				C344,276.408,340.416,280,336,280z"/>
			<path d="M56,128c-13.232,0-24,10.768-24,24s10.768,24,24,24s24-10.768,24-24S69.232,128,56,128z M56,160c-4.416,0-8-3.592-8-8
				s3.584-8,8-8s8,3.592,8,8S60.416,160,56,160z"/>
			<path d="M56,304c-13.232,0-24,10.768-24,24s10.768,24,24,24s24-10.768,24-24S69.232,304,56,304z M56,336c-4.416,0-8-3.592-8-8
				c0-4.408,3.584-8,8-8s8,3.592,8,8C64,332.408,60.416,336,56,336z"/>
			<polygon points="216,184 149.416,184 133.416,144 96,144 96,160 122.584,160 138.584,200 216,200 			"/>
			<polygon points="149.416,296 216,296 216,280 138.584,280 122.584,320 96,320 96,336 133.416,336 			"/>
			<rect x="112" y="216" width="104" height="16"/>
			<rect x="80" y="216" width="16" height="16"/>
			<rect x="128" y="248" width="88" height="16"/>
			<rect x="96" y="248" width="16" height="16"/>
		</g>
	</g>
</g>
<g>
</g>
<g>
</g>
<g>
</g>
<g>
</g>
<g>
</g>
<g>
</g>
<g>
</g>
<g>
</g>
<g>
</g>
<g>
</g>
<g>
</g>
<g>
</g>
<g>
</g>
<g>
</g>
<g>
</g>
</svg>
