<?xml version="1.0" encoding="iso-8859-1"?>
<!-- Generator: Adobe Illustrator 19.0.0, SVG Export Plug-In . SVG Version: 6.00 Build 0)  -->
<svg version="1.1" id="Capa_1" xmlns="http://www.w3.org/2000/svg" xmlns:xlink="http://www.w3.org/1999/xlink" x="0px" y="0px"
	 viewBox="0 0 496 496" style="enable-background:new 0 0 496 496;" xml:space="preserve">
<g>
	<g>
		<g>
			<path d="M56,64h256v16h16V40c0-22.056-17.944-40-40-40H80C57.944,0,40,17.944,40,40v360h16V64z M56,40c0-13.232,10.768-24,24-24
				h208c13.232,0,24,10.768,24,24v8H56V40z"/>
			<path d="M40,456c0,22.056,17.944,40,40,40h208c22.056,0,40-17.944,40-40v-40H40V456z M56,432h256v24c0,13.232-10.768,24-24,24H80
				c-13.232,0-24-10.768-24-24V432z"/>
			<rect x="144" y="448" width="80" height="16"/>
			<path d="M376,152V96H104v256c0,26.472,21.528,48,48,48h256c26.472,0,48-21.528,48-48V152H376z M152,384
				c-17.648,0-32-14.352-32-32V112h16v16h16v-16h16v16h16v-16h16v16h16v-16h16v16h16v-16h16v16h16v-16h16v16h16v-16h16v16h16v-16h16
				v40v8v192c0,12.304,4.688,23.496,12.32,32H152z M440,352c0,17.648-14.352,32-32,32s-32-14.352-32-32V168h64V352z"/>
			<path d="M136,240h208v-96H136V240z M152,160h176v64H152V160z"/>
			<rect x="136" y="256" width="96" height="16"/>
			<rect x="248" y="256" width="96" height="16"/>
			<rect x="136" y="288" width="96" height="16"/>
			<rect x="248" y="288" width="96" height="16"/>
			<rect x="136" y="320" width="96" height="16"/>
			<rect x="248" y="320" width="96" height="16"/>
			<rect x="136" y="352" width="96" height="16"/>
			<rect x="248" y="352" width="96" height="16"/>
		</g>
	</g>
</g>
<g>
</g>
<g>
</g>
<g>
</g>
<g>
</g>
<g>
</g>
<g>
</g>
<g>
</g>
<g>
</g>
<g>
</g>
<g>
</g>
<g>
</g>
<g>
</g>
<g>
</g>
<g>
</g>
<g>
</g>
</svg>
