<?xml version="1.0" encoding="iso-8859-1"?>
<!-- Generator: Adobe Illustrator 19.0.0, SVG Export Plug-In . SVG Version: 6.00 Build 0)  -->
<svg version="1.1" id="Capa_1" xmlns="http://www.w3.org/2000/svg" xmlns:xlink="http://www.w3.org/1999/xlink" x="0px" y="0px"
	 viewBox="0 0 496 496" style="enable-background:new 0 0 496 496;" xml:space="preserve">
<g>
	<g>
		<g>
			<rect x="376" y="384" width="16" height="16"/>
			<path d="M120,64h256v16h16V40c0-22.056-17.944-40-40-40H144c-22.056,0-40,17.944-40,40v40h16V64z M120,40
				c0-13.232,10.768-24,24-24h208c13.232,0,24,10.768,24,24v8H120V40z"/>
			<rect x="104" y="384" width="16" height="16"/>
			<path d="M104,456c0,22.056,17.944,40,40,40h208c22.056,0,40-17.944,40-40v-40H104V456z M120,432h256v24c0,13.232-10.768,24-24,24
				H144c-13.232,0-24-10.768-24-24V432z"/>
			<rect x="208" y="448" width="80" height="16"/>
			<path d="M0,96v272h496V96H0z M144,112h224v64h-46.728c-12.376-28.216-40.544-48-73.272-48c-32.728,0-60.896,19.784-73.272,48H144
				V112z M314.56,254.576c3.064-4.6,5.432-9.528,7.464-14.576H432v32H302.944L314.56,254.576z M301.248,245.704l-47.464,71.2
				c-2.576,3.872-8.984,3.872-11.56,0l-47.472-71.2C187.72,235.152,184,222.872,184,210.2V208c0-35.288,28.712-64,64-64
				c35.288,0,64,28.712,64,64v2.2C312,222.872,308.28,235.144,301.248,245.704z M16,112h64v64H16V112z M16,192h80v-80h32v80h41.616
				c-1.056,5.168-1.616,10.52-1.616,16v2.2c0,4.664,0.528,9.256,1.32,13.8H16V192z M104,352H16v-64h88V352z M152,352h-32v-80H16v-32
				h157.968c2.04,5.048,4.4,9.984,7.464,14.576L193.056,272H152V352z M272,352H168v-64h35.72l25.184,37.784
				C233.176,332.176,240.312,336,248,336s14.824-3.824,19.096-10.216l4.904-7.36V352z M432,352h-96v-16h96V352z M480,352h-32v-32
				H320v32h-32v-57.544h-0.024L292.28,288H448v-64H326.68c0.792-4.536,1.32-9.128,1.32-13.8V208c0-5.48-0.56-10.832-1.616-16H384
				v-80h32v80h64V352z M480,176h-48v-64h48V176z"/>
			<path d="M248,160c-26.472,0-48,21.528-48,48s21.528,48,48,48s48-21.528,48-48S274.472,160,248,160z M248,240
				c-17.648,0-32-14.352-32-32s14.352-32,32-32s32,14.352,32,32S265.648,240,248,240z"/>
		</g>
	</g>
</g>
<g>
</g>
<g>
</g>
<g>
</g>
<g>
</g>
<g>
</g>
<g>
</g>
<g>
</g>
<g>
</g>
<g>
</g>
<g>
</g>
<g>
</g>
<g>
</g>
<g>
</g>
<g>
</g>
<g>
</g>
</svg>
