<?xml version="1.0" encoding="iso-8859-1"?>
<!-- Generator: Adobe Illustrator 19.0.0, SVG Export Plug-In . SVG Version: 6.00 Build 0)  -->
<svg version="1.1" id="Capa_1" xmlns="http://www.w3.org/2000/svg" xmlns:xlink="http://www.w3.org/1999/xlink" x="0px" y="0px"
	 viewBox="0 0 496 496" style="enable-background:new 0 0 496 496;" xml:space="preserve">
<g>
	<g>
		<g>
			<path d="M352,0H144c-22.056,0-40,17.944-40,40v360h16V64h256v336h16V40C392,17.944,374.056,0,352,0z M376,48H120v-8
				c0-13.232,10.768-24,24-24h208c13.232,0,24,10.768,24,24V48z"/>
			<path d="M104,456c0,22.056,17.944,40,40,40h208c22.056,0,40-17.944,40-40v-40H104V456z M120,432h256v24c0,13.232-10.768,24-24,24
				H144c-13.232,0-24-10.768-24-24V432z"/>
			<rect x="208" y="448" width="80" height="16"/>
			<path d="M248,304c61.76,0,112-50.24,112-112S309.76,80,248,80s-112,50.24-112,112S186.24,304,248,304z M248,96
				c52.936,0,96,43.064,96,96c0,52.936-43.064,96-96,96c-52.936,0-96-43.064-96-96C152,139.064,195.064,96,248,96z"/>
			<path d="M284.688,120.888c-6-3.104-12.36-5.424-18.92-6.912l-3.536,15.608c5.232,1.184,10.32,3.04,15.112,5.52L284.688,120.888z"
				/>
			<path d="M248,128v-16c-44.112,0-80,35.888-80,80h16C184,156.712,212.712,128,248,128z"/>
			<path d="M216,192c0,17.648,14.352,32,32,32s32-14.352,32-32s-14.352-32-32-32S216,174.352,216,192z M264,192
				c0,8.824-7.176,16-16,16c-8.824,0-16-7.176-16-16c0-8.824,7.176-16,16-16C256.824,176,264,183.176,264,192z"/>
			<path d="M136,376h32v24h48v-24h144v-16H216v-24h-48v24h-32V376z M184,352h16v32h-16V352z"/>
			<path d="M440,48v65.472c-2.512-0.896-5.184-1.472-8-1.472c-13.232,0-24,10.768-24,24s10.768,24,24,24s24-10.768,24-24V64h16V48
				H440z M432,144c-4.408,0-8-3.584-8-8s3.592-8,8-8c4.408,0,8,3.584,8,8S436.408,144,432,144z"/>
			<path d="M56,313.472c-2.512-0.896-5.184-1.472-8-1.472c-13.232,0-24,10.768-24,24s10.768,24,24,24s24-10.768,24-24v-72h16v-16H56
				V313.472z M48,344c-4.408,0-8-3.584-8-8c0-4.416,3.592-8,8-8s8,3.584,8,8C56,340.416,52.408,344,48,344z"/>
		</g>
	</g>
</g>
<g>
</g>
<g>
</g>
<g>
</g>
<g>
</g>
<g>
</g>
<g>
</g>
<g>
</g>
<g>
</g>
<g>
</g>
<g>
</g>
<g>
</g>
<g>
</g>
<g>
</g>
<g>
</g>
<g>
</g>
</svg>
