<?xml version="1.0" encoding="iso-8859-1"?>
<!-- Generator: Adobe Illustrator 19.0.0, SVG Export Plug-In . SVG Version: 6.00 Build 0)  -->
<svg version="1.1" id="Capa_1" xmlns="http://www.w3.org/2000/svg" xmlns:xlink="http://www.w3.org/1999/xlink" x="0px" y="0px"
	 viewBox="0 0 496 496" style="enable-background:new 0 0 496 496;" xml:space="preserve">
<g>
	<g>
		<g>
			<rect x="104" y="384" width="16" height="16"/>
			<path d="M120,64h256v32h16V40c0-22.056-17.944-40-40-40H144c-22.056,0-40,17.944-40,40v56h16V64z M120,40
				c0-13.232,10.768-24,24-24h208c13.232,0,24,10.768,24,24v8H120V40z"/>
			<rect x="376" y="384" width="16" height="16"/>
			<path d="M104,456c0,22.056,17.944,40,40,40h208c22.056,0,40-17.944,40-40v-40H104V456z M120,432h256v24c0,13.232-10.768,24-24,24
				H144c-13.232,0-24-10.768-24-24V432z"/>
			<rect x="208" y="448" width="80" height="16"/>
			<path d="M224,112H0v256h224V112z M40,352H16v-32h24V352z M40,304H16v-32h24V304z M40,256H16v-32h24V256z M40,208H16v-32h24V208z
				 M40,160H16v-32h24V160z M168,352H56v-88h112V352z M168,248H56v-16h112V248z M168,216H56v-88h112V216z M208,352h-24v-32h24V352z
				 M208,304h-24v-32h24V304z M208,256h-24v-32h24V256z M208,208h-24v-32h24V208z M208,160h-24v-32h24V160z"/>
			<path d="M312,300.496L443.096,240L312,179.504V300.496z M328,204.496L404.904,240L328,275.504V204.496z"/>
			<path d="M368,112c-70.576,0-128,57.424-128,128s57.424,128,128,128s128-57.424,128-128S438.576,112,368,112z M368,352
				c-61.76,0-112-50.24-112-112s50.24-112,112-112s112,50.24,112,112S429.76,352,368,352z"/>
		</g>
	</g>
</g>
<g>
</g>
<g>
</g>
<g>
</g>
<g>
</g>
<g>
</g>
<g>
</g>
<g>
</g>
<g>
</g>
<g>
</g>
<g>
</g>
<g>
</g>
<g>
</g>
<g>
</g>
<g>
</g>
<g>
</g>
</svg>
