<?xml version="1.0" encoding="iso-8859-1"?>
<!-- Generator: Adobe Illustrator 19.0.0, SVG Export Plug-In . SVG Version: 6.00 Build 0)  -->
<svg version="1.1" id="Capa_1" xmlns="http://www.w3.org/2000/svg" xmlns:xlink="http://www.w3.org/1999/xlink" x="0px" y="0px"
	 viewBox="0 0 496 496" style="enable-background:new 0 0 496 496;" xml:space="preserve">
<g>
	<g>
		<g>
			<path d="M136,152c0-13.232,10.768-24,24-24h176c13.232,0,24,10.768,24,24v72h16v-16h32v-64h-32.808
				C372,128.352,359.648,116,344,112.808V0H152v112.808c-18.232,3.72-32,19.872-32,39.192v88h16V152z M376,160h16v32h-16V160z
				 M168,16h128v80h16V16h16v96H168V16z"/>
			<path d="M376,272h-16v72c0,13.232-10.768,24-24,24H160c-13.232,0-24-10.768-24-24v-56h-16v56c0,22.056,17.944,40,40,40h176
				c19.312,0,35.472-13.768,39.192-32H408v-64h-32V272z M392,304v32h-16v-32H392z"/>
			<polygon points="328,480 312,480 312,400 296,400 296,480 168,480 168,400 152,400 152,496 296,496 312,496 344,496 344,400 
				328,400 			"/>
			<path d="M352,240c-2.728,0-5.184-1.144-6.92-3.224c-1.752-2.096-2.48-4.848-1.992-7.568c2.6-14.504-0.448-29.624-8.568-42.56
				c-4.664-7.44-11.096-13.696-18.584-18.104c-22.176-13.072-48.792-11.064-67.976,4.624c-7.512-6.064-16.008-10.16-24.888-11.944
				c-17.712-3.544-35.72,0.848-49.456,12.088C159.872,184.56,152,201.176,152,219.072c0.04,11.544,9.72,20.928,21.584,20.928h23.104
				l35.848,35.848l39.136-46.96L292,256h14.632c0.216,0,0.688,0,0.944,0.616c0.232,0.576-0.04,0.848-0.2,1.016
				c-17.952,18.016-47.144,46.968-59.352,59.08L187.312,256H0v16h180.688l67.288,67.288l5.656-5.6c0,0,41.888-41.496,65.08-64.76
				c4.84-4.864,6.272-12.112,3.64-18.448c-2.648-6.368-8.816-10.48-15.72-10.48H300l-27.672-36.896l-40.864,49.04L203.312,224
				h-29.728c-3.016,0-5.576-2.28-5.584-5.088c0-12.912,5.744-25.024,15.744-33.216c10.016-8.192,23.192-11.4,36.168-8.784
				c7.936,1.592,15.536,5.848,22.464,12.776l5.672,5.616l6.704-6.728c14.12-14.112,35.448-16.616,53.08-6.24
				c5.288,3.112,9.832,7.544,13.152,12.824c6.088,9.696,8.288,20.496,6.368,31.232c-1.32,7.392,0.672,14.92,5.472,20.656
				C337.568,252.736,344.56,256,352,256h144v-16H352z"/>
		</g>
	</g>
</g>
<g>
</g>
<g>
</g>
<g>
</g>
<g>
</g>
<g>
</g>
<g>
</g>
<g>
</g>
<g>
</g>
<g>
</g>
<g>
</g>
<g>
</g>
<g>
</g>
<g>
</g>
<g>
</g>
<g>
</g>
</svg>
