<?xml version="1.0" encoding="iso-8859-1"?>
<!-- Generator: Adobe Illustrator 19.0.0, SVG Export Plug-In . SVG Version: 6.00 Build 0)  -->
<svg version="1.1" id="Capa_1" xmlns="http://www.w3.org/2000/svg" xmlns:xlink="http://www.w3.org/1999/xlink" x="0px" y="0px"
	 viewBox="0 0 496.92 496.92" style="enable-background:new 0 0 496.92 496.92;" xml:space="preserve">
<g>
	<g>
		<g>
			<path d="M16,64.46h256h8h8v-24c0-22.056-17.944-40-40-40H40c-22.056,0-40,17.944-40,40v360h16V64.46z M16,40.46
				c0-13.232,10.768-24,24-24h208c13.232,0,24,10.768,24,24v8H16V40.46z"/>
			<path d="M0,456.46c0,22.056,17.944,40,40,40h208c22.056,0,40-17.944,40-40v-40H0V456.46z M16,432.46h256v24
				c0,13.232-10.768,24-24,24H40c-13.232,0-24-10.768-24-24V432.46z"/>
			<rect x="104" y="448.46" width="80" height="16"/>
			<path d="M400,172.46c0-50.728-41.272-92-92-92H152c-66.168,0-120,53.832-120,120v76c0,68.376,55.624,124,124,124
				s124-55.624,124-124c0-6.616,5.384-12,12-12h16C358.728,264.46,400,223.188,400,172.46z M264,276.46c0,59.552-48.448,108-108,108
				s-108-48.448-108-108v-76c0-57.344,46.656-104,104-104h156c41.904,0,76,34.096,76,76s-34.096,76-76,76h-16
				C276.56,248.46,264,261.02,264,276.46z"/>
			<path d="M128,128.46c-26.472,0-48,21.528-48,48s21.528,48,48,48s48-21.528,48-48S154.472,128.46,128,128.46z M128,208.46
				c-17.648,0-32-14.352-32-32s14.352-32,32-32s32,14.352,32,32S145.648,208.46,128,208.46z"/>
			<path d="M240,128.46c-26.472,0-48,21.528-48,48s21.528,48,48,48s48-21.528,48-48S266.472,128.46,240,128.46z M240,208.46
				c-17.648,0-32-14.352-32-32s14.352-32,32-32s32,14.352,32,32S257.648,208.46,240,208.46z"/>
			<path d="M128,240.46c-26.472,0-48,21.528-48,48s21.528,48,48,48s48-21.528,48-48S154.472,240.46,128,240.46z M128,320.46
				c-17.648,0-32-14.352-32-32s14.352-32,32-32s32,14.352,32,32S145.648,320.46,128,320.46z"/>
			<path d="M343.8,430.66l-22.88-99.16L392,273.34v88.256c-13.76,3.576-24,16-24,30.864c0,17.648,14.352,32,32,32s32-14.352,32-32
				c0-14.864-10.24-27.288-24-30.864V273.34l71.088,58.16l-22.88,99.16l15.592,3.6l25.12-108.84L400,246.124l-96.912,79.296
				l25.12,108.84L343.8,430.66z M416,392.46c0,8.824-7.176,16-16,16c-8.824,0-16-7.176-16-16c0-8.824,7.176-16,16-16
				C408.824,376.46,416,383.636,416,392.46z"/>
			<path d="M472,448.46H328c-13.232,0-24,10.768-24,24s10.768,24,24,24h144c13.232,0,24-10.768,24-24S485.232,448.46,472,448.46z
				 M472,480.46H328c-4.408,0-8-3.592-8-8c0-4.408,3.592-8,8-8h144c4.408,0,8,3.592,8,8C480,476.868,476.408,480.46,472,480.46z"/>
		</g>
	</g>
</g>
<g>
</g>
<g>
</g>
<g>
</g>
<g>
</g>
<g>
</g>
<g>
</g>
<g>
</g>
<g>
</g>
<g>
</g>
<g>
</g>
<g>
</g>
<g>
</g>
<g>
</g>
<g>
</g>
<g>
</g>
</svg>
