<?xml version="1.0" encoding="iso-8859-1"?>
<!-- Generator: Adobe Illustrator 19.0.0, SVG Export Plug-In . SVG Version: 6.00 Build 0)  -->
<svg version="1.1" id="Capa_1" xmlns="http://www.w3.org/2000/svg" xmlns:xlink="http://www.w3.org/1999/xlink" x="0px" y="0px"
	 viewBox="0 0 496 496" style="enable-background:new 0 0 496 496;" xml:space="preserve">
<g>
	<g>
		<g>
			<path d="M120,64h256h8h8V40c0-22.056-17.944-40-40-40H144c-22.056,0-40,17.944-40,40v216h16V64z M120,40
				c0-13.232,10.768-24,24-24h208c13.232,0,24,10.768,24,24v8H120V40z"/>
			<rect x="376" y="304" width="16" height="96"/>
			<path d="M104,456c0,22.056,17.944,40,40,40h208c22.056,0,40-17.944,40-40v-40H104V456z M120,432h256v24c0,13.232-10.768,24-24,24
				H144c-13.232,0-24-10.768-24-24V432z"/>
			<rect x="208" y="448" width="80" height="16"/>
			<path d="M472,80H296c-13.232,0-24,10.768-24,24v72h-8c-17.648,0-32,14.352-32,32v16c0,8.824-7.176,16-16,16
				c-8.824,0-16-7.176-16-16v-96c0-17.648-14.352-32-32-32s-32,14.352-32,32v144H64c-35.288,0-64,28.712-64,64
				c0,35.288,28.712,64,64,64c19.448,0,37.8-8.896,49.92-24h52.256c13.448,15.616,39.112,24,57.824,24c35.288,0,64-28.712,64-64
				c0-35.288-28.712-64-64-64h-72V128c0-8.824,7.176-16,16-16c8.824,0,16,7.176,16,16v96c0,17.648,14.352,32,32,32s32-14.352,32-32
				v-16c0-8.824,7.176-16,16-16h8v72c0,13.232,10.768,24,24,24h176c13.232,0,24-10.768,24-24V104C496,90.768,485.232,80,472,80z
				 M224,288c26.472,0,48,21.528,48,48s-21.528,48-48,48c-18.184,0-39.44-9.232-47.368-20.576L174.248,360h-68.496l-2.384,3.424
				C94.36,376.304,79.64,384,64,384c-26.472,0-48-21.528-48-48s21.528-48,48-48H224z M480,264c0,4.416-3.584,8-8,8H296
				c-4.416,0-8-3.584-8-8V104c0-4.416,3.584-8,8-8h176c4.416,0,8,3.584,8,8V264z"/>
			<path d="M384,112c-35.288,0-64,28.712-64,64v80h19.312L352,243.312l16,16l16-16l16,16l16-16L428.688,256H448v-80
				C448,140.712,419.288,112,384,112z M432,236.688l-16-16l-16,16l-16-16l-16,16l-16-16l-16,16V176c0-26.472,21.528-48,48-48
				s48,21.528,48,48V236.688z"/>
			<rect x="352" y="160" width="16" height="16"/>
			<rect x="400" y="160" width="16" height="16"/>
			<rect x="368" y="192" width="32" height="16"/>
			<polygon points="56,312 56,328 40,328 40,344 56,344 56,360 72,360 72,344 88,344 88,328 72,328 72,312 			"/>
			<rect x="200" y="312" width="16" height="16"/>
			<rect x="232" y="312" width="16" height="16"/>
			<rect x="200" y="344" width="16" height="16"/>
			<rect x="232" y="344" width="16" height="16"/>
		</g>
	</g>
</g>
<g>
</g>
<g>
</g>
<g>
</g>
<g>
</g>
<g>
</g>
<g>
</g>
<g>
</g>
<g>
</g>
<g>
</g>
<g>
</g>
<g>
</g>
<g>
</g>
<g>
</g>
<g>
</g>
<g>
</g>
</svg>
