<?xml version="1.0" encoding="iso-8859-1"?>
<!-- Generator: Adobe Illustrator 19.0.0, SVG Export Plug-In . SVG Version: 6.00 Build 0)  -->
<svg version="1.1" id="Capa_1" xmlns="http://www.w3.org/2000/svg" xmlns:xlink="http://www.w3.org/1999/xlink" x="0px" y="0px"
	 viewBox="0 0 496 496" style="enable-background:new 0 0 496 496;" xml:space="preserve">
<g>
	<g>
		<g>
			<path d="M64,64h256v32h16V40c0-22.056-17.944-40-40-40H88C65.944,0,48,17.944,48,40v360h16V64z M64,40c0-13.232,10.768-24,24-24
				h208c13.232,0,24,10.768,24,24v8H64V40z"/>
			<path d="M48,456c0,22.056,17.944,40,40,40h208c22.056,0,40-17.944,40-40v-40H48V456z M64,432h256v24c0,13.232-10.768,24-24,24H88
				c-13.232,0-24-10.768-24-24V432z"/>
			<rect x="152" y="448" width="80" height="16"/>
			<path d="M272,104c-74.992,0-136,61.008-136,136s61.008,136,136,136s136-61.008,136-136S346.992,104,272,104z M272,360
				c-66.168,0-120-53.832-120-120s53.832-120,120-120s120,53.832,120,120S338.168,360,272,360z"/>
			<path d="M272,136c-57.344,0-104,46.656-104,104s46.656,104,104,104s104-46.656,104-104S329.344,136,272,136z M240,158.112
				c9.936-3.896,20.704-6.112,32-6.112c13.8,0,26.824,3.28,38.456,8.968L240,202.072V158.112z M224,166.336v84.4l-39.072-22.792
				C188.48,202.192,203.152,179.976,224,166.336z M184.312,246.112l71.408,41.656l-37.512,21.72
				C198.952,294.544,186.088,271.856,184.312,246.112z M304,321.888c-9.936,3.896-20.704,6.112-32,6.112
				c-13.784,0-26.776-3.272-38.408-8.944L304,278.296V321.888z M304,259.808l-32.344,18.728L240,260.072V220.6l32.568-19
				L304,219.928V259.808z M320,313.664v-84.4l39.072,22.792C355.52,277.808,340.848,300.024,320,313.664z M288.448,192.328
				l37.376-21.8c19.232,14.944,32.088,37.624,33.864,63.36L288.448,192.328z"/>
			<path d="M248,240c0,13.232,10.768,24,24,24s24-10.768,24-24s-10.768-24-24-24S248,226.768,248,240z M280,240c0,4.408-3.592,8-8,8
				c-4.408,0-8-3.592-8-8s3.592-8,8-8C276.408,232,280,235.592,280,240z"/>
			<rect x="320" y="384" width="16" height="16"/>
			<rect x="368" y="48" width="16" height="16"/>
			<rect x="368" y="80" width="16" height="16"/>
			<rect x="384" y="64" width="16" height="16"/>
			<rect x="352" y="64" width="16" height="16"/>
			<rect x="120" y="352" width="16" height="16"/>
			<rect x="120" y="384" width="16" height="16"/>
			<rect x="136" y="368" width="16" height="16"/>
			<rect x="104" y="368" width="16" height="16"/>
			<rect x="416" y="112" width="16" height="16"/>
			<rect x="416" y="144" width="16" height="16"/>
			<rect x="432" y="128" width="16" height="16"/>
			<rect x="400" y="128" width="16" height="16"/>
			<rect x="96" y="136" width="16" height="16"/>
			<rect x="96" y="168" width="16" height="16"/>
			<rect x="112" y="152" width="16" height="16"/>
			<rect x="80" y="152" width="16" height="16"/>
		</g>
	</g>
</g>
<g>
</g>
<g>
</g>
<g>
</g>
<g>
</g>
<g>
</g>
<g>
</g>
<g>
</g>
<g>
</g>
<g>
</g>
<g>
</g>
<g>
</g>
<g>
</g>
<g>
</g>
<g>
</g>
<g>
</g>
</svg>
