<?xml version="1.0" encoding="iso-8859-1"?>
<!-- Generator: Adobe Illustrator 19.0.0, SVG Export Plug-In . SVG Version: 6.00 Build 0)  -->
<svg version="1.1" id="Capa_1" xmlns="http://www.w3.org/2000/svg" xmlns:xlink="http://www.w3.org/1999/xlink" x="0px" y="0px"
	 viewBox="0 0 496 496" style="enable-background:new 0 0 496 496;" xml:space="preserve">
<g>
	<g>
		<g>
			<polygon points="416,480 400,480 400,400 384,400 384,480 256,480 256,400 240,400 240,496 384,496 400,496 432,496 432,400 
				416,400 			"/>
			<path d="M496,208v-64h-32.808C460,128.352,447.648,116,432,112.808V0H240v48h16V16h128v80h16V16h16v96H304v16h120
				c13.232,0,24,10.768,24,24v192c0,13.232-10.768,24-24,24H248c-10.96,0-20.52-7.4-23.248-17.992l-15.496,3.984
				C213.808,371.664,229.736,384,248,384h176c19.312,0,35.472-13.768,39.192-32H496v-64h-32v-80H496z M464,160h16v32h-16V160z
				 M480,304v32h-16v-32H480z"/>
			<path d="M152,64C85.832,64,32,117.832,32,184s53.832,120,120,120s120-53.832,120-120S218.168,64,152,64z M152,288
				c-4.16,0-8.24-0.312-12.272-0.792c28.032-53.488,35.616-97.312,35.936-99.264c1.056-6.32-0.416-12.68-4.152-17.888
				c-3.728-5.216-9.232-8.672-15.432-9.704c-13.456-2.312-25.632,6.72-27.752,19.656c-0.016,0.096-1.728,9.848-6.608,25.632
				l15.288,4.72c5.272-17.072,7.088-27.648,7.096-27.72c0.632-3.856,3.92-6.656,7.808-6.656c0.464,0,0.928,0.048,1.472,0.144
				c2.048,0.344,3.864,1.496,5.112,3.224c1.264,1.768,1.736,3.832,1.384,5.96c-0.32,1.888-7.912,45.52-36.552,98.576
				c-5.232-1.504-10.264-3.424-15.128-5.688c8.992-16.424,16.864-33.68,23.312-51.472l-15.04-5.456
				c-6.16,17-13.68,33.472-22.248,49.152c-4.512-3.024-8.712-6.464-12.688-10.144c23.848-44.52,30.976-82.744,31.056-83.192
				c1.704-10.384,7.456-19.512,16.208-25.728c8.784-6.224,19.464-8.624,30.096-6.76c10.32,1.72,19.416,7.456,25.64,16.152
				c6.208,8.696,8.664,19.288,6.904,29.848c-0.072,0.44-7.432,43.848-34.064,97.128C155.592,287.816,153.816,288,152,288z
				 M220.864,261.728c2.376-6.424,4.664-12.864,6.712-19.288l-15.24-4.872c-4.256,13.328-9.32,26.72-14.952,39.864
				c-6.608,3.224-13.584,5.76-20.88,7.536c23.776-50.672,30.44-89.984,30.728-91.76c2.464-14.752-0.976-29.576-9.672-41.752
				c-8.696-12.176-21.496-20.208-35.952-22.624c-14.824-2.592-29.76,0.76-42.056,9.488c-12.264,8.704-20.336,21.544-22.72,36.064
				c-0.064,0.352-6.352,33.576-26.792,73.424c-3.808-4.88-7.208-10.072-10.112-15.592c15.192-31.976,20.552-57.608,21.16-60.696
				c4.672-26.712,23.552-48.272,49.288-56.272l-4.752-15.28c-31.488,9.792-54.584,36.16-60.264,68.624
				c-0.184,0.912-3.768,18.68-13.624,42.656C49.376,202.544,48,193.44,48,184c0-57.344,46.656-104,104-104s104,46.656,104,104
				C256,214.92,242.36,242.656,220.864,261.728z"/>
			<path d="M304,184c0-83.816-68.184-152-152-152S0,100.184,0,184s68.184,152,152,152h152V184z M288,320H152
				c-74.992,0-136-61.008-136-136S77.008,48,152,48s136,61.008,136,136V320z"/>
			<path d="M167.128,97.312c-7.944-1.392-16.104-1.648-23.888-0.904l1.52,15.92c6.384-0.616,13.024-0.416,19.664,0.76
				c18.576,3.088,34.96,13.408,46.152,29.056c11.184,15.648,15.6,34.72,12.448,53.704c-0.328,1.936-2.16,12.424-6.72,28.552
				l15.4,4.344c4.664-16.512,6.616-27.352,7.104-30.272c3.856-23.192-1.544-46.504-15.208-65.624
				C209.92,113.712,189.84,101.096,167.128,97.312z"/>
		</g>
	</g>
</g>
<g>
</g>
<g>
</g>
<g>
</g>
<g>
</g>
<g>
</g>
<g>
</g>
<g>
</g>
<g>
</g>
<g>
</g>
<g>
</g>
<g>
</g>
<g>
</g>
<g>
</g>
<g>
</g>
<g>
</g>
</svg>
