<?xml version="1.0" encoding="iso-8859-1"?>
<!-- Generator: Adobe Illustrator 19.0.0, SVG Export Plug-In . SVG Version: 6.00 Build 0)  -->
<svg version="1.1" id="Capa_1" xmlns="http://www.w3.org/2000/svg" xmlns:xlink="http://www.w3.org/1999/xlink" x="0px" y="0px"
	 viewBox="0 0 496 496" style="enable-background:new 0 0 496 496;" xml:space="preserve">
<g>
	<g>
		<g>
			<path d="M16,64h256v16h16V40c0-22.056-17.944-40-40-40H40C17.944,0,0,17.944,0,40v360h16V64z M16,40c0-13.232,10.768-24,24-24
				h208c13.232,0,24,10.768,24,24v8H16V40z"/>
			<path d="M0,456c0,22.056,17.944,40,40,40h208c22.056,0,40-17.944,40-40v-40H0V456z M16,432h256v24c0,13.232-10.768,24-24,24H40
				c-13.232,0-24-10.768-24-24V432z"/>
			<rect x="104" y="448" width="80" height="16"/>
			<path d="M488,144h8v-11.312L443.312,80H328v176h168v-96h-16v80H344V96h88v48h48H488z M448,128v-20.688L468.688,128H448z"/>
			<rect x="448" y="208" width="16" height="16"/>
			<rect x="360" y="208" width="72" height="16"/>
			<rect x="360" y="176" width="104" height="16"/>
			<rect x="360" y="144" width="56" height="16"/>
			<rect x="360" y="112" width="56" height="16"/>
			<path d="M192,288h8v-11.312L147.312,224H32v176h168v-96h-16v80H48V240h88v48h48H192z M152,272v-20.688L172.688,272H152z"/>
			<rect x="152" y="352" width="16" height="16"/>
			<rect x="64" y="352" width="72" height="16"/>
			<rect x="64" y="320" width="104" height="16"/>
			<rect x="64" y="288" width="56" height="16"/>
			<rect x="64" y="256" width="56" height="16"/>
			<polygon points="285.208,270.072 274.792,257.928 211.704,312 274.792,366.072 285.208,353.928 245.624,320 360,320 360,304 
				245.624,304 			"/>
			<rect x="376" y="304" width="16" height="16"/>
			<polygon points="253.208,222.072 316.296,168 253.208,113.928 242.792,126.072 282.376,160 168,160 168,176 282.376,176 
				242.792,209.928 			"/>
			<rect x="136" y="160" width="16" height="16"/>
			<rect x="408" y="304" width="16" height="16"/>
			<rect x="104" y="160" width="16" height="16"/>
			<rect x="440" y="304" width="16" height="16"/>
			<rect x="72" y="160" width="16" height="16"/>
		</g>
	</g>
</g>
<g>
</g>
<g>
</g>
<g>
</g>
<g>
</g>
<g>
</g>
<g>
</g>
<g>
</g>
<g>
</g>
<g>
</g>
<g>
</g>
<g>
</g>
<g>
</g>
<g>
</g>
<g>
</g>
<g>
</g>
</svg>
