<?xml version="1.0" encoding="iso-8859-1"?>
<!-- Generator: Adobe Illustrator 19.0.0, SVG Export Plug-In . SVG Version: 6.00 Build 0)  -->
<svg version="1.1" id="Capa_1" xmlns="http://www.w3.org/2000/svg" xmlns:xlink="http://www.w3.org/1999/xlink" x="0px" y="0px"
	 viewBox="0 0 496 496" style="enable-background:new 0 0 496 496;" xml:space="preserve">
<g>
	<g>
		<g>
			<path d="M16,64h256v16h16V40c0-22.056-17.944-40-40-40H40C17.944,0,0,17.944,0,40v360h16V64z M16,40c0-13.232,10.768-24,24-24
				h208c13.232,0,24,10.768,24,24v8H16V40z"/>
			<path d="M0,456c0,22.056,17.944,40,40,40h208c22.056,0,40-17.944,40-40v-40H0V456z M16,432h256v24c0,13.232-10.768,24-24,24H40
				c-13.232,0-24-10.768-24-24V432z"/>
			<rect x="104" y="448" width="80" height="16"/>
			<path d="M416,373.36L292.712,256.24l-11.024,11.6L403.96,384H60.04l122.272-116.16l-11.024-11.6L48,373.36V122.64l123.296,117.12
				C187.744,255.392,209.304,264,232,264s44.256-8.608,60.712-24.24L416,122.64V184h16V96H32v304h400v-88h-16V373.36z M403.96,112
				L281.688,228.16C268.224,240.952,250.576,248,232,248s-36.224-7.048-49.688-19.84L60.04,112H403.96z"/>
			<polygon points="360,200 360,216 460.688,216 442.344,234.344 453.656,245.656 491.312,208 453.656,170.344 442.344,181.656 
				460.688,200 			"/>
			<polygon points="387.312,280 405.656,261.656 394.344,250.344 356.688,288 394.344,325.656 405.656,314.344 387.312,296 496,296 
				496,280 			"/>
		</g>
	</g>
</g>
<g>
</g>
<g>
</g>
<g>
</g>
<g>
</g>
<g>
</g>
<g>
</g>
<g>
</g>
<g>
</g>
<g>
</g>
<g>
</g>
<g>
</g>
<g>
</g>
<g>
</g>
<g>
</g>
<g>
</g>
</svg>
