<?xml version="1.0" encoding="iso-8859-1"?>
<!-- Generator: Adobe Illustrator 19.0.0, SVG Export Plug-In . SVG Version: 6.00 Build 0)  -->
<svg version="1.1" id="Capa_1" xmlns="http://www.w3.org/2000/svg" xmlns:xlink="http://www.w3.org/1999/xlink" x="0px" y="0px"
	 viewBox="0 0 496 496" style="enable-background:new 0 0 496 496;" xml:space="preserve">
<g>
	<g>
		<g>
			<path d="M360,96c-22.056,0-40,17.944-40,40v257.448l21.696,57.864C344.536,458.904,351.896,464,360,464
				s15.464-5.096,18.304-12.68L400,393.448V136C400,113.944,382.056,96,360,96z M336,208h16v176h-16V208z M363.32,445.704
				c-1.032,2.752-5.6,2.752-6.632,0L339.544,400h40.912L363.32,445.704z M384,384h-16V208h16V384z M384,192h-48v-16h48V192z
				 M384,160h-48v-24c0-13.232,10.768-24,24-24s24,10.768,24,24V160z"/>
			<path d="M80,68.688V88h80V16h224v64h16V0H148.688L80,68.688z M144,72H99.312L144,27.312V72z"/>
			<polygon points="304,384 96,384 96,104 80,104 80,400 304,400 			"/>
			<path d="M112,368h112V256H112V368z M128,272h80v80h-80V272z"/>
			<polygon points="368,80 368,32 176,32 176,48 352,48 352,80 			"/>
			<polygon points="112,104 112,144 304,144 304,128 128,128 128,104 			"/>
			<rect x="112" y="160" width="16" height="16"/>
			<rect x="144" y="160" width="160" height="16"/>
			<rect x="112" y="192" width="192" height="16"/>
			<rect x="112" y="224" width="160" height="16"/>
			<rect x="288" y="224" width="16" height="16"/>
			<path d="M456,208h-40v288h40c22.056,0,40-17.944,40-40V248C496,225.944,478.056,208,456,208z M480,456c0,13.232-10.768,24-24,24
				h-24V224h24c13.232,0,24,10.768,24,24V456z"/>
			<rect x="448" y="312" width="16" height="80"/>
			<path d="M64,224v-8v-8H40c-22.056,0-40,17.944-40,40v208c0,22.056,17.944,40,40,40h360v-16H64V224z M48,480h-8
				c-13.232,0-24-10.768-24-24V248c0-13.232,10.768-24,24-24h8V480z"/>
		</g>
	</g>
</g>
<g>
</g>
<g>
</g>
<g>
</g>
<g>
</g>
<g>
</g>
<g>
</g>
<g>
</g>
<g>
</g>
<g>
</g>
<g>
</g>
<g>
</g>
<g>
</g>
<g>
</g>
<g>
</g>
<g>
</g>
</svg>
