<?xml version="1.0" encoding="iso-8859-1"?>
<!-- Generator: Adobe Illustrator 19.0.0, SVG Export Plug-In . SVG Version: 6.00 Build 0)  -->
<svg version="1.1" id="Capa_1" xmlns="http://www.w3.org/2000/svg" xmlns:xlink="http://www.w3.org/1999/xlink" x="0px" y="0px"
	 viewBox="0 0 496 496" style="enable-background:new 0 0 496 496;" xml:space="preserve">
<g>
	<g>
		<g>
			<path d="M456,208h-40v288h40c22.056,0,40-17.944,40-40V248C496,225.944,478.056,208,456,208z M480,456c0,13.232-10.768,24-24,24
				h-24V224h24c13.232,0,24,10.768,24,24V456z"/>
			<rect x="448" y="312" width="16" height="80"/>
			<path d="M64,224v-8v-8H40c-22.056,0-40,17.944-40,40v208c0,22.056,17.944,40,40,40h360v-16H64V224z M48,480h-8
				c-13.232,0-24-10.768-24-24V248c0-13.232,10.768-24,24-24h8V480z"/>
			<path d="M384,376H96V136h192v-16H96v-16h192V88H80v376h320V208h-16V376z M384,448H96v-56h288V448z"/>
			<path d="M232,152v16h-24v8c0,74.68-42.248,150.648-52.504,168H112v16h256v-16h-43.496C314.248,326.672,272,250.784,272,176v-8
				h-24v-16H232z M218.104,229.408L228.688,240l-17.88,17.88C213.568,248.712,216.056,239.192,218.104,229.408z M227.312,216h25.376
				L240,228.688L227.312,216z M195.872,299.136l27.12,14.464l-45.688,24.368C182.592,328.144,189.24,314.856,195.872,299.136z
				 M200.008,344L240,322.672L279.992,344H200.008z M302.696,337.968L257.008,313.6l27.12-14.464
				C290.76,314.856,297.408,328.144,302.696,337.968z M274.704,286.016L240,304.528l-34.704-18.512L240,251.312L274.704,286.016z
				 M269.192,257.888L251.312,240l10.584-10.584C263.944,239.192,266.432,248.72,269.192,257.888z M256.136,184
				c0.2,5.352,0.576,10.696,1.12,16h-34.512c0.544-5.304,0.92-10.648,1.112-16H256.136z"/>
			<path d="M496,96c0-52.936-43.064-96-96-96c-52.936,0-96,43.064-96,96s43.064,96,96,96C452.936,192,496,148.936,496,96z
				 M433.2,168.688C423.072,173.336,411.856,176,400,176c-11.856,0-23.072-2.664-33.2-7.304l-14.016-77.128L392,63.544v33.928
				c-9.288,3.312-16,12.112-16,22.528c0,13.232,10.768,24,24,24s24-10.768,24-24c0-10.416-6.712-19.216-16-22.528V63.544
				l39.216,28.016L433.2,168.688z M400,112c4.416,0,8,3.584,8,8s-3.584,8-8,8c-4.416,0-8-3.584-8-8S395.584,112,400,112z
				 M451.576,157.056l13.208-72.624L400,38.168l-64.784,46.264l13.208,72.624C331.064,142.368,320,120.464,320,96
				c0-44.112,35.888-80,80-80s80,35.888,80,80C480,120.464,468.936,142.368,451.576,157.056z"/>
		</g>
	</g>
</g>
<g>
</g>
<g>
</g>
<g>
</g>
<g>
</g>
<g>
</g>
<g>
</g>
<g>
</g>
<g>
</g>
<g>
</g>
<g>
</g>
<g>
</g>
<g>
</g>
<g>
</g>
<g>
</g>
<g>
</g>
</svg>
