<?xml version="1.0" encoding="iso-8859-1"?>
<!-- Generator: Adobe Illustrator 19.0.0, SVG Export Plug-In . SVG Version: 6.00 Build 0)  -->
<svg version="1.1" id="Capa_1" xmlns="http://www.w3.org/2000/svg" xmlns:xlink="http://www.w3.org/1999/xlink" x="0px" y="0px"
	 viewBox="0 0 496 496" style="enable-background:new 0 0 496 496;" xml:space="preserve">
<g>
	<g>
		<g>
			<path d="M0,264v192c0,22.056,17.944,40,40,40h40V224H40C17.944,224,0,241.944,0,264z M64,480H40c-13.232,0-24-10.768-24-24V264
				c0-13.232,10.768-24,24-24h24V480z"/>
			<path d="M456,224h-40v16h16v240H96v16h360c22.056,0,40-17.944,40-40V264C496,241.944,478.056,224,456,224z M480,456
				c0,13.232-10.768,24-24,24h-8V240h8c13.232,0,24,10.768,24,24V456z"/>
			<rect x="32" y="328" width="16" height="64"/>
			<path d="M128,192c-26.472,0-48-21.528-48-48s21.528-48,48-48c0.16,0,0.312,0.032,0.464,0.032C128.176,98.656,128,101.304,128,104
				c0,20.648,8.88,40.336,24.376,54l10.592-12C150.912,135.368,144,120.056,144,104c0-30.88,25.128-56,56-56s56,25.12,56,56h16
				c0-28.368-16.536-52.888-40.44-64.616C246.504,24.464,266.656,16,288,16c39.544,0,72.336,28.144,78.808,66.416
				C339.856,89.952,320,114.672,320,144h16c0-26.472,21.528-48,48-48s48,21.528,48,48s-21.528,48-48,48h-16v16h16
				c35.288,0,64-28.712,64-64c0-35.288-28.712-64-64-64c-0.464,0-0.92,0.064-1.384,0.072C375,33.952,335.568,0,288,0
				c-28.16,0-54.576,12.272-72.872,33.632C210.24,32.584,205.192,32,200,32c-31.392,0-58.08,20.224-67.904,48.296
				C130.728,80.208,129.376,80,128,80c-35.288,0-64,28.712-64,64c0,35.288,28.712,64,64,64V192z"/>
			<polygon points="184,404.152 257.632,320 224,320 224,176 208,176 208,336 222.368,336 184,379.848 145.632,336 160,336 160,176 
				144,176 144,320 110.368,320 			"/>
			<polygon points="328,171.848 254.368,256 288,256 288,400 304,400 304,240 289.632,240 328,196.152 366.368,240 352,240 352,400 
				368,400 368,256 401.632,256 			"/>
			<rect x="384" y="336" width="16" height="16"/>
			<rect x="384" y="304" width="16" height="16"/>
			<rect x="384" y="272" width="16" height="16"/>
			<rect x="112" y="224" width="16" height="16"/>
			<rect x="112" y="256" width="16" height="16"/>
			<rect x="112" y="288" width="16" height="16"/>
		</g>
	</g>
</g>
<g>
</g>
<g>
</g>
<g>
</g>
<g>
</g>
<g>
</g>
<g>
</g>
<g>
</g>
<g>
</g>
<g>
</g>
<g>
</g>
<g>
</g>
<g>
</g>
<g>
</g>
<g>
</g>
<g>
</g>
</svg>
