<?xml version="1.0" encoding="iso-8859-1"?>
<!-- Generator: Adobe Illustrator 19.0.0, SVG Export Plug-In . SVG Version: 6.00 Build 0)  -->
<svg version="1.1" id="Capa_1" xmlns="http://www.w3.org/2000/svg" xmlns:xlink="http://www.w3.org/1999/xlink" x="0px" y="0px"
	 viewBox="0 0 496 496" style="enable-background:new 0 0 496 496;" xml:space="preserve">
<g>
	<g>
		<g>
			<path d="M16,64h256h8h8V40c0-22.056-17.944-40-40-40H40C17.944,0,0,17.944,0,40v360h16V64z M16,40c0-13.232,10.768-24,24-24h208
				c13.232,0,24,10.768,24,24v8H16V40z"/>
			<path d="M0,456c0,22.056,17.944,40,40,40h208c22.056,0,40-17.944,40-40v-40H0V456z M16,432h256v24c0,13.232-10.768,24-24,24H40
				c-13.232,0-24-10.768-24-24V432z"/>
			<rect x="104" y="448" width="80" height="16"/>
			<path d="M384,80H32v80h352V80z M368,144H48V96h320V144z"/>
			<rect x="64" y="112" width="16" height="16"/>
			<rect x="96" y="112" width="16" height="16"/>
			<rect x="128" y="112" width="16" height="16"/>
			<polygon points="368,384 48,384 48,176 32,176 32,400 384,400 384,368 368,368 			"/>
			<path d="M472,176H248c-13.232,0-24,10.768-24,24v128c0,13.232,10.768,24,24,24h224c13.232,0,24-10.768,24-24V200
				C496,186.768,485.232,176,472,176z M480,328c0,4.416-3.592,8-8,8H248c-4.408,0-8-3.584-8-8v-88h240V328z M480,224H240v-24
				c0-4.416,3.592-8,8-8h224c4.408,0,8,3.584,8,8V224z"/>
			<path d="M400,320c5.656,0,11.152-1.576,16.024-4.44c4.72,2.752,10.128,4.44,15.976,4.44c17.648,0,32-14.352,32-32
				s-14.352-32-32-32c-5.848,0-11.256,1.688-15.976,4.44C411.152,257.576,405.656,256,400,256c-17.648,0-32,14.352-32,32
				S382.352,320,400,320z M432,272c8.824,0,16,7.176,16,16c0,8.824-7.176,16-16,16c-8.824,0-16-7.176-16-16
				C416,279.176,423.176,272,432,272z M400,272c1.52,0,2.864,0.256,4.12,0.608c-2.544,4.584-4.12,9.784-4.12,15.392
				c0,5.608,1.576,10.808,4.12,15.392c-1.256,0.352-2.6,0.608-4.12,0.608c-8.824,0-16-7.176-16-16C384,279.176,391.176,272,400,272z
				"/>
			<polygon points="208,240 208,224 152,224 152,190.368 67.848,264 152,337.632 152,304 208,304 208,288 136,288 136,302.368 
				92.152,264 136,225.632 136,240 			"/>
		</g>
	</g>
</g>
<g>
</g>
<g>
</g>
<g>
</g>
<g>
</g>
<g>
</g>
<g>
</g>
<g>
</g>
<g>
</g>
<g>
</g>
<g>
</g>
<g>
</g>
<g>
</g>
<g>
</g>
<g>
</g>
<g>
</g>
</svg>
