<?xml version="1.0" encoding="iso-8859-1"?>
<!-- Generator: Adobe Illustrator 19.0.0, SVG Export Plug-In . SVG Version: 6.00 Build 0)  -->
<svg version="1.1" id="Capa_1" xmlns="http://www.w3.org/2000/svg" xmlns:xlink="http://www.w3.org/1999/xlink" x="0px" y="0px"
	 viewBox="0 0 496 496" style="enable-background:new 0 0 496 496;" xml:space="preserve">
<g>
	<g>
		<g>
			<path d="M0,456c0,22.056,17.944,40,40,40h288c22.056,0,40-17.944,40-40v-40H0V456z M16,432h336v24c0,13.232-10.768,24-24,24H40
				c-13.232,0-24-10.768-24-24V432z"/>
			<rect x="352" y="384" width="16" height="16"/>
			<path d="M16,64h336v112h16V40c0-22.056-17.944-40-40-40H40C17.944,0,0,17.944,0,40v360h16V64z M16,40c0-13.232,10.768-24,24-24
				h288c13.232,0,24,10.768,24,24v8H16V40z"/>
			<path d="M256,192v176h240V192H256z M480,352H272V208h208V352z"/>
			<polygon points="336,176 336,80 32,80 32,400 336,400 336,384 48,384 48,96 320,96 320,176 			"/>
			<polygon points="288,176 288,112 80,112 80,304 240,304 240,288 96,288 96,128 272,128 272,176 			"/>
			<path d="M239.552,208L136,145.872v124.256L239.552,208z M152,174.128L208.448,208L152,241.872V174.128z"/>
			<polygon points="304,336 320,336 320,272 336,272 336,256 320,256 320,224 304,224 304,256 288,256 288,272 304,272 			"/>
			<polygon points="432,336 448,336 448,320 464,320 464,304 448,304 448,224 432,224 432,304 416,304 416,320 432,320 			"/>
			<polygon points="368,336 384,336 384,296 400,296 400,280 384,280 384,224 368,224 368,280 352,280 352,296 368,296 			"/>
			<rect x="136" y="448" width="96" height="16"/>
			<path d="M64,344c0,13.232,10.768,24,24,24s24-10.768,24-24s-10.768-24-24-24S64,330.768,64,344z M96,344c0,4.408-3.592,8-8,8
				s-8-3.592-8-8c0-4.408,3.592-8,8-8S96,339.592,96,344z"/>
			<path d="M128,344c0,13.232,10.768,24,24,24s24-10.768,24-24s-10.768-24-24-24S128,330.768,128,344z M160,344c0,4.408-3.592,8-8,8
				s-8-3.592-8-8c0-4.408,3.592-8,8-8S160,339.592,160,344z"/>
			<path d="M192,344c0,13.232,10.768,24,24,24s24-10.768,24-24s-10.768-24-24-24S192,330.768,192,344z M224,344c0,4.408-3.592,8-8,8
				s-8-3.592-8-8c0-4.408,3.592-8,8-8S224,339.592,224,344z"/>
		</g>
	</g>
</g>
<g>
</g>
<g>
</g>
<g>
</g>
<g>
</g>
<g>
</g>
<g>
</g>
<g>
</g>
<g>
</g>
<g>
</g>
<g>
</g>
<g>
</g>
<g>
</g>
<g>
</g>
<g>
</g>
<g>
</g>
</svg>
