<?xml version="1.0" encoding="iso-8859-1"?>
<!-- Generator: Adobe Illustrator 19.0.0, SVG Export Plug-In . SVG Version: 6.00 Build 0)  -->
<svg version="1.1" id="Capa_1" xmlns="http://www.w3.org/2000/svg" xmlns:xlink="http://www.w3.org/1999/xlink" x="0px" y="0px"
	 viewBox="0 0 496 496" style="enable-background:new 0 0 496 496;" xml:space="preserve">
<g>
	<g>
		<g>
			<rect x="104" y="256" width="16" height="144"/>
			<path d="M120,64h256v80h16V40c0-22.056-17.944-40-40-40H144c-22.056,0-40,17.944-40,40v40h16V64z M120,40
				c0-13.232,10.768-24,24-24h208c13.232,0,24,10.768,24,24v8H120V40z"/>
			<rect x="376" y="320" width="16" height="80"/>
			<path d="M104,456c0,22.056,17.944,40,40,40h208c22.056,0,40-17.944,40-40v-40H104V456z M120,432h256v24c0,13.232-10.768,24-24,24
				H144c-13.232,0-24-10.768-24-24V432z"/>
			<rect x="208" y="448" width="80" height="16"/>
			<path d="M144,96H0v144h144V96z M128,224H16V112h112V224z"/>
			<rect x="32" y="128" width="80" height="16"/>
			<rect x="32" y="160" width="80" height="16"/>
			<rect x="64" y="192" width="16" height="16"/>
			<rect x="96" y="192" width="16" height="16"/>
			<rect x="32" y="192" width="16" height="16"/>
			<path d="M352,160v144h144V160H352z M480,288H368V176h112V288z"/>
			<rect x="384" y="192" width="80" height="16"/>
			<rect x="384" y="224" width="80" height="16"/>
			<rect x="416" y="256" width="16" height="16"/>
			<rect x="448" y="256" width="16" height="16"/>
			<rect x="384" y="256" width="16" height="16"/>
			<path d="M328,168c0-20.656-15.728-37.696-35.832-39.784L288,122.664C275.48,105.968,255.536,96,234.664,96
				C197.904,96,168,125.904,168,162.664v138.592c-9.664,4.656-17.224,13.104-20.648,23.392L132.896,368h230.2l-14.456-43.352
				c-3.424-10.28-10.984-18.736-20.648-23.392V168H328z M184,162.664C184,134.728,206.728,112,234.664,112
				c15.864,0,31.024,7.576,40.536,20.264L284,144h4c13.232,0,24,10.768,24,24v17.472c-2.416-0.864-4.984-1.408-7.688-1.44V184H304
				h-8c-18.912,0-37.664-6.248-52.808-17.6c-5.496-4.128-12.32-6.4-19.192-6.4c-14.872,0-27.288,10.24-30.864,24H192
				c-2.816,0-5.488,0.576-8,1.472V162.664z M312,208c0,4.408-3.584,8-8,8v-16C308.416,200,312,203.592,312,208z M288,199.672v27.072
				c0,6.32-2.56,12.496-7.032,16.968l-17.936,17.944c-1.496,1.488-3.552,2.344-5.656,2.344h-18.752
				c-2.104,0-4.168-0.856-5.656-2.344l-17.936-17.944c-4.472-4.464-7.032-10.648-7.032-16.968V200v-8c0-8.824,7.176-16,16-16
				c3.488,0,6.808,1.104,9.6,3.2C249.344,191.008,268.408,198.136,288,199.672z M192,200v16c-4.416,0-8-3.592-8-8
				S187.584,200,192,200z M184,230.528c2.512,0.896,5.184,1.472,8,1.472h0.512c1.144,8.68,4.912,16.736,11.208,23.024l17.936,17.944
				c4.528,4.536,10.56,7.032,16.968,7.032h18.752c6.408,0,12.44-2.496,16.968-7.032l17.936-17.944
				c6.296-6.296,10.064-14.352,11.208-23.024H304c2.816,0,5.488-0.576,8-1.472v65.04l-16-5.336V280h-16v14.112l-8.992,17.984
				L260.28,296h-24.472l-11.312,16.336L216,295.344V280h-16v10.232l-16,5.336V230.528z M333.464,329.704L340.896,352H155.104
				l7.424-22.288c2.384-7.128,8.056-12.808,15.184-15.176l25.704-8.568l18.848,37.696L244.184,312h7.528l21.272,31.904l19.064-38.12
				l26.232,8.744C325.416,316.904,331.088,322.576,333.464,329.704z"/>
		</g>
	</g>
</g>
<g>
</g>
<g>
</g>
<g>
</g>
<g>
</g>
<g>
</g>
<g>
</g>
<g>
</g>
<g>
</g>
<g>
</g>
<g>
</g>
<g>
</g>
<g>
</g>
<g>
</g>
<g>
</g>
<g>
</g>
</svg>
