<?xml version="1.0" encoding="iso-8859-1"?>
<!-- Generator: Adobe Illustrator 19.0.0, SVG Export Plug-In . SVG Version: 6.00 Build 0)  -->
<svg version="1.1" id="Capa_1" xmlns="http://www.w3.org/2000/svg" xmlns:xlink="http://www.w3.org/1999/xlink" x="0px" y="0px"
	 viewBox="0 0 496 496" style="enable-background:new 0 0 496 496;" xml:space="preserve">
<g>
	<g>
		<g>
			<rect x="16" y="352" width="16" height="48"/>
			<path d="M32,64h256v64h16V40c0-22.056-17.944-40-40-40H56C33.944,0,16,17.944,16,40v88h16V64z M32,40c0-13.232,10.768-24,24-24
				h208c13.232,0,24,10.768,24,24v8H32V40z"/>
			<rect x="288" y="352" width="16" height="48"/>
			<path d="M16,456c0,22.056,17.944,40,40,40h208c22.056,0,40-17.944,40-40v-40H16V456z M32,432h256v24c0,13.232-10.768,24-24,24H56
				c-13.232,0-24-10.768-24-24V432z"/>
			<rect x="120" y="448" width="80" height="16"/>
			<path d="M472,320H344c-13.232,0-24,10.768-24,24s10.768,24,24,24h24.808c3.72,18.232,19.872,32,39.192,32
				c19.32,0,35.472-13.768,39.192-32H472c13.232,0,24-10.768,24-24S485.232,320,472,320z M408,384c-10.416,0-19.216-6.712-22.528-16
				h45.048C427.216,377.288,418.416,384,408,384z M472,352H344c-4.408,0-8-3.592-8-8c0-4.408,3.592-8,8-8h128c4.408,0,8,3.592,8,8
				C480,348.408,476.408,352,472,352z"/>
			<path d="M352,264c0-30.88,25.12-56,56-56s56,25.12,56,56v40h16v-40c0-28.2-16.336-52.592-40-64.4V192
				c0-14.864-10.24-27.288-24-30.864V0h-16v161.136c-13.76,3.576-24,16-24,30.864v7.6c-23.664,11.808-40,36.208-40,64.4v40h16V264z
				 M392,192c0-8.824,7.176-16,16-16c8.824,0,16,7.176,16,16v1.856c-5.152-1.176-10.496-1.856-16-1.856
				c-5.504,0-10.848,0.68-16,1.856V192z"/>
			<polygon points="168,242.296 168,144 152,144 152,237.704 113.216,299.76 126.784,308.24 			"/>
			<path d="M160,400c88.224,0,160-71.776,160-160S248.224,80,160,80S0,151.776,0,240S71.776,400,160,400z M59.008,289.072
				L31.616,304.88c-8.76-17.264-14.08-36.504-15.208-56.88H48v-16H16.408c1.128-20.376,6.448-39.616,15.216-56.88l27.384,15.808
				l8-13.856L39.6,161.248c10.872-16.584,25.064-30.776,41.648-41.656L97.072,147l13.856-8L95.12,111.616
				c17.264-8.76,36.504-14.088,56.88-15.216V128h16V96.408c20.376,1.128,39.616,6.448,56.88,15.216l-15.808,27.384l13.856,8
				l15.824-27.408c16.584,10.88,30.768,25.072,41.648,41.648l-27.408,15.824l8,13.856l27.384-15.808
				c8.76,17.264,14.088,36.504,15.216,56.88H272v16h31.592c-1.128,20.376-6.448,39.616-15.216,56.88l-27.384-15.808l-8,13.856
				l27.408,15.824c-10.88,16.584-25.072,30.768-41.648,41.648l-15.824-27.408l-13.856,8l15.808,27.384
				c-17.264,8.76-36.504,14.088-56.88,15.216V352h-16v31.592c-20.376-1.128-39.616-6.448-56.88-15.216l15.808-27.384l-13.856-8
				L81.248,360.4C64.664,349.52,50.48,335.328,39.6,318.752l27.408-15.824L59.008,289.072z"/>
		</g>
	</g>
</g>
<g>
</g>
<g>
</g>
<g>
</g>
<g>
</g>
<g>
</g>
<g>
</g>
<g>
</g>
<g>
</g>
<g>
</g>
<g>
</g>
<g>
</g>
<g>
</g>
<g>
</g>
<g>
</g>
<g>
</g>
</svg>
