<?xml version="1.0" encoding="iso-8859-1"?>
<!-- Generator: Adobe Illustrator 19.0.0, SVG Export Plug-In . SVG Version: 6.00 Build 0)  -->
<svg version="1.1" id="Capa_1" xmlns="http://www.w3.org/2000/svg" xmlns:xlink="http://www.w3.org/1999/xlink" x="0px" y="0px"
	 viewBox="0 0 499.336 499.336" style="enable-background:new 0 0 499.336 499.336;" xml:space="preserve">
<g>
	<g>
		<g>
			<rect x="104" y="385.668" width="16" height="16"/>
			<path d="M120,65.668h256v16h16v-40c0-22.056-17.944-40-40-40H144c-22.056,0-40,17.944-40,40v40h16V65.668z M120,41.668
				c0-13.232,10.768-24,24-24h208c13.232,0,24,10.768,24,24v8H120V41.668z"/>
			<rect x="376" y="385.668" width="16" height="16"/>
			<path d="M104,457.668c0,22.056,17.944,40,40,40h208c22.056,0,40-17.944,40-40v-40H104V457.668z M120,433.668h256v24
				c0,13.232-10.768,24-24,24H144c-13.232,0-24-10.768-24-24V433.668z"/>
			<rect x="208" y="449.668" width="80" height="16"/>
			<path d="M272,233.668c0-74.992-61.008-136-136-136s-136,61.008-136,136s61.008,136,136,136S272,308.66,272,233.668z M16,233.668
				c0-66.168,53.832-120,120-120s120,53.832,120,120s-53.832,120-120,120S16,299.836,16,233.668z"/>
			<path d="M176,313.668v-64h-32v-32h32v-64h-40c-22.056,0-40,17.944-40,40v80c0,22.056,17.944,40,40,40H176z M112,273.668v-80
				c0-13.232,10.768-24,24-24h24v32h-32v64h32v32h-24C122.768,297.668,112,286.9,112,273.668z"/>
			<path d="M304.312,177.668v32c0,13.232,10.768,24,24,24c0,12.512,5.976,24.488,16,32l14.928,11.192
				c4.128,3.096,9.24,4.808,14.4,4.808h21.336c5.16,0,10.264-1.704,14.4-4.808l14.928-11.192c10.024-7.512,16.008-19.48,16.008-32
				c13.232,0,24-10.768,24-24v-32c0-44.112-35.888-80-80-80S304.312,133.556,304.312,177.668z M328.312,217.668
				c-4.416,0-8-3.584-8-8s3.584-8,8-8V217.668z M424.312,233.668c0,7.512-3.592,14.688-9.6,19.2l-14.928,11.2
				c-1.384,1.032-3.088,1.6-4.808,1.6H373.64c-1.72,0-3.416-0.568-4.8-1.6l-14.928-11.2c-6.016-4.512-9.6-11.688-9.6-19.2v-33.536
				c14.68-2.8,28.32-9.416,39.688-19.4c11.464,10.064,25.248,16.72,40.312,19.48V233.668z M440.312,217.668v-16c4.416,0,8,3.584,8,8
				S444.728,217.668,440.312,217.668z M448.312,177.668v9.472c-2.512-0.896-5.184-1.472-8-1.472h-0.624
				c-18.296,0-35.504-7.128-48.44-20.064L384,158.356l-7.248,7.248c-12.936,12.936-30.144,20.064-48.44,20.064
				c-2.816,0-5.488,0.576-8,1.472v-9.472c0-35.288,28.712-64,64-64C419.6,113.668,448.312,142.38,448.312,177.668z"/>
			<path d="M432,283.9v-10.232h-16V286.7c-8.392,7.08-18.896,10.968-30.008,10.968h-3.368c-11.216,0-22.184-4.192-30.624-11.536
				v-12.464h-16V283.9l-26.504,8.832c-12.536,4.168-22.184,14.248-25.832,26.96L269.4,369.668h229.936l-14.92-50.288
				c-3.712-12.504-13.312-22.448-25.696-26.568L432,283.9z M469.072,323.924l8.824,29.744H290.6l8.448-29.568
				c2.184-7.624,7.976-13.672,15.504-16.176l27.56-9.184c11.248,9.512,25.728,14.928,40.512,14.928h3.368
				c14.952,0,29.072-5.24,40.36-14.784l27.304,9.096C461.088,310.468,466.84,316.42,469.072,323.924z"/>
		</g>
	</g>
</g>
<g>
</g>
<g>
</g>
<g>
</g>
<g>
</g>
<g>
</g>
<g>
</g>
<g>
</g>
<g>
</g>
<g>
</g>
<g>
</g>
<g>
</g>
<g>
</g>
<g>
</g>
<g>
</g>
<g>
</g>
</svg>
