<?xml version="1.0" encoding="iso-8859-1"?>
<!-- Generator: Adobe Illustrator 19.0.0, SVG Export Plug-In . SVG Version: 6.00 Build 0)  -->
<svg version="1.1" id="Capa_1" xmlns="http://www.w3.org/2000/svg" xmlns:xlink="http://www.w3.org/1999/xlink" x="0px" y="0px"
	 viewBox="0 0 496 496" style="enable-background:new 0 0 496 496;" xml:space="preserve">
<g>
	<g>
		<g>
			<path d="M56,64h256h8h8V40c0-22.056-17.944-40-40-40H80C57.944,0,40,17.944,40,40v360h16V64z M56,40c0-13.232,10.768-24,24-24
				h208c13.232,0,24,10.768,24,24v8H56V40z"/>
			<path d="M40,456c0,22.056,17.944,40,40,40h208c22.056,0,40-17.944,40-40v-40H40V456z M56,432h256v24c0,13.232-10.768,24-24,24H80
				c-13.232,0-24-10.768-24-24V432z"/>
			<rect x="144" y="448" width="80" height="16"/>
			<path d="M200,104h-16v16h16c0,13.232,10.768,24,24,24s24-10.768,24-24v-16c0-13.232-10.768-24-24-24S200,90.768,200,104z
				 M232,104v16c0,4.408-3.584,8-8,8s-8-3.592-8-8v-16c0-4.408,3.584-8,8-8S232,99.592,232,104z"/>
			<path d="M280,104h-16v16h16c0,13.232,10.768,24,24,24s24-10.768,24-24v-16c0-13.232-10.768-24-24-24S280,90.768,280,104z
				 M312,104v16c0,4.408-3.584,8-8,8c-4.416,0-8-3.592-8-8v-16c0-4.408,3.584-8,8-8C308.416,96,312,99.592,312,104z"/>
			<path d="M384,144c13.232,0,24-10.768,24-24v-16c0-13.232-10.768-24-24-24s-24,10.768-24,24h-16v16h16
				C360,133.232,370.768,144,384,144z M376,104c0-4.408,3.584-8,8-8c4.416,0,8,3.592,8,8v16c0,4.408-3.584,8-8,8
				c-4.416,0-8-3.592-8-8V104z"/>
			<path d="M432,104h-8v16h8c4.416,0,8,3.592,8,8v32H88v-32c0-4.408,3.584-8,8-8h24c0,13.232,10.768,24,24,24s24-10.768,24-24v-16
				c0-13.232-10.768-24-24-24s-24,10.768-24,24H96c-13.232,0-24,10.768-24,24v248c0,13.232,10.768,24,24,24h336
				c13.232,0,24-10.768,24-24V128C456,114.768,445.232,104,432,104z M136,104c0-4.408,3.584-8,8-8s8,3.592,8,8v16
				c0,4.408-3.584,8-8,8s-8-3.592-8-8V104z M440,376c0,4.408-3.584,8-8,8H96c-4.416,0-8-3.592-8-8V176h352V376z"/>
			<path d="M208,192h-80v80h80V192z M192,256h-48v-48h48V256z"/>
			<path d="M208,288h-80v80h80V288z M192,352h-48v-48h48V352z"/>
			<path d="M304,192h-80v80h80V192z M288,256h-48v-48h48V256z"/>
			<path d="M304,288h-80v80h80V288z M288,352h-48v-48h48V352z"/>
			<path d="M400,192h-80v80h80V192z M384,256h-48v-48h48V256z"/>
			<path d="M400,288h-80v80h80V288z M384,352h-48v-48h48V352z"/>
		</g>
	</g>
</g>
<g>
</g>
<g>
</g>
<g>
</g>
<g>
</g>
<g>
</g>
<g>
</g>
<g>
</g>
<g>
</g>
<g>
</g>
<g>
</g>
<g>
</g>
<g>
</g>
<g>
</g>
<g>
</g>
<g>
</g>
</svg>
