<?xml version="1.0" encoding="iso-8859-1"?>
<!-- Generator: Adobe Illustrator 19.0.0, SVG Export Plug-In . SVG Version: 6.00 Build 0)  -->
<svg version="1.1" id="Capa_1" xmlns="http://www.w3.org/2000/svg" xmlns:xlink="http://www.w3.org/1999/xlink" x="0px" y="0px"
	 viewBox="0 0 496 496" style="enable-background:new 0 0 496 496;" xml:space="preserve">
<g>
	<g>
		<g>
			<path d="M0,40v208c0,22.056,17.944,40,40,40h24v-8v-8V16h336V0H40C17.944,0,0,17.944,0,40z M48,272h-8c-13.232,0-24-10.768-24-24
				V40c0-13.232,10.768-24,24-24h8V272z"/>
			<path d="M456,0h-40v288h40c22.056,0,40-17.944,40-40V40C496,17.944,478.056,0,456,0z M480,248c0,13.232-10.768,24-24,24h-24V16
				h24c13.232,0,24,10.768,24,24V248z"/>
			<rect x="448" y="104" width="16" height="80"/>
			<path d="M360,32H120c-22.056,0-40,17.944-40,40v384c0,22.056,17.944,40,40,40h240c22.056,0,40-17.944,40-40V72
				C400,49.944,382.056,32,360,32z M384,456c0,13.232-10.768,24-24,24H120c-13.232,0-24-10.768-24-24V72c0-13.232,10.768-24,24-24
				h240c13.232,0,24,10.768,24,24V456z"/>
			<path d="M120,456h240V216H120V456z M248,232h96v96h-96V232z M248,344h96v96h-96V344z M136,232h96v96h-96V232z M136,344h96v96h-96
				V344z"/>
			<path d="M120,192h240V80H120V192z M136,96h208v80H136V96z"/>
			<polygon points="192,248 176,248 176,272 152,272 152,288 176,288 176,312 192,312 192,288 216,288 216,272 192,272 			"/>
			<rect x="264" y="272" width="64" height="16"/>
			<polygon points="210.344,354.344 184,380.688 157.656,354.344 146.344,365.656 172.688,392 146.344,418.344 157.656,429.656 
				184,403.312 210.344,429.656 221.656,418.344 195.312,392 221.656,365.656 			"/>
			<rect x="264" y="368" width="64" height="16"/>
			<rect x="264" y="400" width="64" height="16"/>
			<rect x="312" y="144" width="16" height="16"/>
			<rect x="280" y="144" width="16" height="16"/>
			<rect x="248" y="144" width="16" height="16"/>
		</g>
	</g>
</g>
<g>
</g>
<g>
</g>
<g>
</g>
<g>
</g>
<g>
</g>
<g>
</g>
<g>
</g>
<g>
</g>
<g>
</g>
<g>
</g>
<g>
</g>
<g>
</g>
<g>
</g>
<g>
</g>
<g>
</g>
</svg>
