<?xml version="1.0" encoding="iso-8859-1"?>
<!-- Generator: Adobe Illustrator 19.0.0, SVG Export Plug-In . SVG Version: 6.00 Build 0)  -->
<svg version="1.1" id="Capa_1" xmlns="http://www.w3.org/2000/svg" xmlns:xlink="http://www.w3.org/1999/xlink" x="0px" y="0px"
	 viewBox="0 0 496 496" style="enable-background:new 0 0 496 496;" xml:space="preserve">
<g>
	<g>
		<g>
			<path d="M120,64h256v16h16V40c0-22.056-17.944-40-40-40H144c-22.056,0-40,17.944-40,40v40h16V64z M120,40
				c0-13.232,10.768-24,24-24h208c13.232,0,24,10.768,24,24v8H120V40z"/>
			<path d="M104,456c0,22.056,17.944,40,40,40h208c22.056,0,40-17.944,40-40v-40H104V456z M120,432h256v24c0,13.232-10.768,24-24,24
				H144c-13.232,0-24-10.768-24-24V432z"/>
			<rect x="208" y="448" width="80" height="16"/>
			<path d="M72,96v304h352V96H72z M88,112h96v96H88V112z M184,384H88v-96h96V384z M408,384H200V272H88v-48h112V112h96v112h112V384z
				 M408,208h-96v-96h96V208z"/>
			<path d="M104,192h64v-64h-64V192z M120,144h32v32h-32V144z"/>
			<path d="M168,304h-64v64h64V304z M152,352h-32v-32h32V352z"/>
			<path d="M392,128h-64v64h64V128z M376,176h-32v-32h32V176z"/>
			<polygon points="248,176 232,176 232,128 216,128 216,192 248,192 			"/>
			<polygon points="264,192 280,192 280,128 248,128 248,144 264,144 			"/>
			<polygon points="232,256 248,256 248,208 216,208 216,224 232,224 			"/>
			<polygon points="280,208 264,208 264,288 328,288 328,272 280,272 			"/>
			<polygon points="360,304 344,304 344,336 376,336 376,368 392,368 392,320 360,320 			"/>
			<rect x="344" y="272" width="48" height="16"/>
			<polygon points="248,352 216,352 216,368 264,368 264,336 248,336 			"/>
			<polygon points="248,320 280,320 280,368 296,368 296,304 248,304 			"/>
			<rect x="312" y="304" width="16" height="64"/>
			<rect x="104" y="240" width="96" height="16"/>
			<rect x="296" y="240" width="64" height="16"/>
			<rect x="376" y="240" width="16" height="16"/>
			<rect x="216" y="272" width="16" height="64"/>
		</g>
	</g>
</g>
<g>
</g>
<g>
</g>
<g>
</g>
<g>
</g>
<g>
</g>
<g>
</g>
<g>
</g>
<g>
</g>
<g>
</g>
<g>
</g>
<g>
</g>
<g>
</g>
<g>
</g>
<g>
</g>
<g>
</g>
</svg>
