<?xml version="1.0" encoding="iso-8859-1"?>
<!-- Generator: Adobe Illustrator 19.0.0, SVG Export Plug-In . SVG Version: 6.00 Build 0)  -->
<svg version="1.1" id="Capa_1" xmlns="http://www.w3.org/2000/svg" xmlns:xlink="http://www.w3.org/1999/xlink" x="0px" y="0px"
	 viewBox="0 0 496 496" style="enable-background:new 0 0 496 496;" xml:space="preserve">
<g>
	<g>
		<g>
			<rect x="376" y="384" width="16" height="16"/>
			<path d="M120,64h256v16h16V40c0-22.056-17.944-40-40-40H144c-22.056,0-40,17.944-40,40v40h16V64z M120,40
				c0-13.232,10.768-24,24-24h208c13.232,0,24,10.768,24,24v8H120V40z"/>
			<rect x="104" y="384" width="16" height="16"/>
			<path d="M104,456c0,22.056,17.944,40,40,40h208c22.056,0,40-17.944,40-40v-40H104V456z M120,432h256v24c0,13.232-10.768,24-24,24
				H144c-13.232,0-24-10.768-24-24V432z"/>
			<rect x="208" y="448" width="80" height="16"/>
			<path d="M0,96v272h496V96H0z M480,352H16V112h464V352z"/>
			<path d="M136,336c57.344,0,104-46.656,104-104s-46.656-104-104-104S32,174.656,32,232S78.656,336,136,336z M136,320
				c-15.888,0-30.768-4.296-43.648-11.696l23.096-32.992C121.688,278.288,128.64,280,136,280c23.736,0,43.448-17.336,47.28-40h40.32
				C219.536,284.784,181.824,320,136,320z M143.992,144.4c42.152,3.824,75.784,37.456,79.6,79.6h-40.32
				c-3.384-20.056-19.224-35.888-39.28-39.28V144.4z M168,232c0,17.648-14.352,32-32,32s-32-14.352-32-32s14.352-32,32-32
				S168,214.352,168,232z M128,144.408v40.32c-22.664,3.824-40,23.536-40,47.28c0,13.36,5.496,25.448,14.328,34.152L79.24,299.144
				C60.16,282.984,48,258.896,48,232C48,186.176,83.216,148.464,128,144.408z"/>
			<path d="M320,336h32h16h32h16h48V128h-64v80h-32v-48h-64v32h-48v144h48H320z M416,208v-64h32v176h-32V208z M368,224h32v96h-32
				V224z M320,192v-16h32v32v112h-32V192z M272,208h32v112h-32V208z"/>
		</g>
	</g>
</g>
<g>
</g>
<g>
</g>
<g>
</g>
<g>
</g>
<g>
</g>
<g>
</g>
<g>
</g>
<g>
</g>
<g>
</g>
<g>
</g>
<g>
</g>
<g>
</g>
<g>
</g>
<g>
</g>
<g>
</g>
</svg>
