<?xml version="1.0" encoding="iso-8859-1"?>
<!-- Generator: Adobe Illustrator 19.0.0, SVG Export Plug-In . SVG Version: 6.00 Build 0)  -->
<svg version="1.1" id="Capa_1" xmlns="http://www.w3.org/2000/svg" xmlns:xlink="http://www.w3.org/1999/xlink" x="0px" y="0px"
	 viewBox="0 0 496 496" style="enable-background:new 0 0 496 496;" xml:space="preserve">
<g>
	<g>
		<path d="M352,208c-17.648,0-32,14.352-32,32s14.352,32,32,32s32-14.352,32-32S369.648,208,352,208z M352,256
			c-8.824,0-16-7.176-16-16c0-8.824,7.176-16,16-16c8.824,0,16,7.176,16,16C368,248.824,360.824,256,352,256z"/>
	</g>
</g>
<g>
	<g>
		<path d="M136,208c-17.648,0-32,14.352-32,32s14.352,32,32,32s32-14.352,32-32S153.648,208,136,208z M136,256
			c-8.824,0-16-7.176-16-16c0-8.824,7.176-16,16-16c8.824,0,16,7.176,16,16C152,248.824,144.824,256,136,256z"/>
	</g>
</g>
<g>
	<g>
		<path d="M440,112v96h16v8c0,4.416-3.584,8-8,8h-24V88c0-48.52-39.48-88-88-88H160c-48.52,0-88,39.48-88,88v136H48
			c-4.416,0-8-3.584-8-8v-8h16v-96H0v96h24v8c0,13.232,10.768,24,24,24h24v96H48v64h16v72c0,13.232,10.768,24,24,24h32
			c13.232,0,24-10.768,24-24v-72h208v72c0,13.232,10.768,24,24,24h32c13.232,0,24-10.768,24-24v-72h16v-64h-24v-96h24
			c13.232,0,24-10.768,24-24v-8h24v-96H440z M16,192v-64h24v64H16z M128,416h-16v16h16v16h-16v16h16v8c0,4.416-3.584,8-8,8H88
			c-4.416,0-8-3.584-8-8v-8h16v-16H80v-16h16v-16H80v-16h48V416z M144,384H64v-32h80V384z M176,384h-16v-88h16V384z M272,384h-48
			v-24h48V384z M304,384h-16v-40h-80v40h-16v-56h112V384z M304,312H192v-16h112V312z M256,136v-16h112c4.416,0,8,3.584,8,8v56H256
			v-32h-16v32H120v-56c0-4.416,3.584-8,8-8h112v16H256z M309.912,200L248,268.112L186.088,200H309.912z M336,384h-16v-88h16V384z
			 M312,280h-8h-45.192l72.728-80H392v-72c0-13.232-10.768-24-24-24H128c-13.232,0-24,10.768-24,24v72h60.456l72.728,80H192h-8h-40
			v16h-16v16h16v24H88V88h40V72H89.856C97.16,39.984,125.8,16,160,16h176c34.2,0,62.84,23.984,70.144,56H144v16h264v248h-56v-24h16
			v-16h-16v-16H312z M416,416h-16v16h16v16h-16v16h16v8c0,4.416-3.584,8-8,8h-32c-4.416,0-8-3.584-8-8v-8h16v-16h-16v-16h16v-16h-16
			v-16h48V416z M432,352v32h-80v-32H432z M480,192h-24v-64h24V192z"/>
	</g>
</g>
<g>
</g>
<g>
</g>
<g>
</g>
<g>
</g>
<g>
</g>
<g>
</g>
<g>
</g>
<g>
</g>
<g>
</g>
<g>
</g>
<g>
</g>
<g>
</g>
<g>
</g>
<g>
</g>
<g>
</g>
</svg>
