<?xml version="1.0" encoding="iso-8859-1"?>
<!-- Generator: Adobe Illustrator 19.0.0, SVG Export Plug-In . SVG Version: 6.00 Build 0)  -->
<svg version="1.1" id="Capa_1" xmlns="http://www.w3.org/2000/svg" xmlns:xlink="http://www.w3.org/1999/xlink" x="0px" y="0px"
	 viewBox="0 0 496 496" style="enable-background:new 0 0 496 496;" xml:space="preserve">
<g>
	<g>
		<path d="M440,88V72c0-30.872-25.128-56-56-56h-48V0H160v16h-48c-30.872,0-56,25.128-56,56v16h24v203.056l-16,8V400h16v72
			c0,13.232,10.768,24,24,24h32c13.232,0,24-10.768,24-24v-72h16v16c0,19.312,13.768,35.472,32,39.192V472c0,13.232,10.768,24,24,24
			h32c13.232,0,24-10.768,24-24v-16.808c18.232-3.72,32-19.872,32-39.192v-16h16v72c0,13.232,10.768,24,24,24h32
			c13.232,0,24-10.768,24-24v-72h16V299.056l-16-8V88H440z M304,16h16v16h-16V16z M208,16h80v16h-80V16z M176,16h16v16h-16V16z
			 M80,384v-75.056l32-16V384H80z M96,283.056V88h16v187.056L96,283.056z M144,416h-16v16h16v16h-16v16h16v8c0,4.416-3.584,8-8,8
			h-32c-4.416,0-8-3.584-8-8v-8h16v-16H96v-16h16v-16H96v-16h16h8h24V416z M176,368v8v8h-48v-32h24v-16h-24v-72h80.808
			c-0.528,2.584-0.808,5.264-0.808,8c0,11.608,5.056,21.992,12.984,29.304C194.64,312.016,176,337.856,176,368z M157.416,120
			h181.168L368,193.544V200H128v-6.456L157.416,120z M128,150.464V88h240v62.464L349.416,104H146.584L128,150.464z M368,216v32h-88
			v0.248c-7.296-9.8-18.872-16.248-32-16.248s-24.704,6.448-32,16.248V248h-88v-32H368z M272,272c0,13.232-10.768,24-24,24
			s-24-10.768-24-24s10.768-24,24-24S272,258.768,272,272z M208,438.528c-9.288-3.312-16-12.112-16-22.528v-40h16V438.528z M272,384
			h-16v16h16v16h-16v16h16v16h-16v16h16v8c0,4.416-3.584,8-8,8h-32c-4.416,0-8-3.584-8-8v-8h16v-16h-16v-16h16v-16h-16v-16h16v-16
			h-16v-8h48V384z M192.568,360c3.888-27.104,27.264-48,55.432-48c28.168,0,51.536,20.896,55.432,48H192.568z M304,416
			c0,10.416-6.712,19.216-16,22.528V376h16V416z M320,384v-8v-8c0-30.144-18.64-55.984-44.984-66.696
			C282.944,293.992,288,283.608,288,272c0-2.736-0.28-5.416-0.808-8H368v72h-24v16h24v32H320z M400,416h-16v16h16v16h-16v16h16v8
			c0,4.416-3.584,8-8,8h-32c-4.416,0-8-3.584-8-8v-8h16v-16h-16v-16h16v-16h-16v-16h24h8h16V416z M416,384h-32v-91.056l32,16V384z
			 M384,275.056V88h16v195.056L384,275.056z M72,72c0-22.056,17.944-40,40-40h48v16h176V32h48c22.056,0,40,17.944,40,40H72z"/>
	</g>
</g>
<g>
	<g>
		<path d="M336,272c-13.232,0-24,10.768-24,24s10.768,24,24,24s24-10.768,24-24S349.232,272,336,272z M336,304c-4.416,0-8-3.584-8-8
			c0-4.416,3.584-8,8-8c4.416,0,8,3.584,8,8C344,300.416,340.416,304,336,304z"/>
	</g>
</g>
<g>
	<g>
		<path d="M160,272c-13.232,0-24,10.768-24,24s10.768,24,24,24s24-10.768,24-24S173.232,272,160,272z M160,304c-4.416,0-8-3.584-8-8
			c0-4.416,3.584-8,8-8s8,3.584,8,8C168,300.416,164.416,304,160,304z"/>
	</g>
</g>
<g>
	<g>
		<rect x="152" y="168" width="96" height="16"/>
	</g>
</g>
<g>
	<g>
		<rect x="264" y="168" width="16" height="16"/>
	</g>
</g>
<g>
	<g>
		<rect x="240" y="264" width="16" height="16"/>
	</g>
</g>
<g>
</g>
<g>
</g>
<g>
</g>
<g>
</g>
<g>
</g>
<g>
</g>
<g>
</g>
<g>
</g>
<g>
</g>
<g>
</g>
<g>
</g>
<g>
</g>
<g>
</g>
<g>
</g>
<g>
</g>
</svg>
