<?xml version="1.0" encoding="iso-8859-1"?>
<!-- Generator: Adobe Illustrator 19.0.0, SVG Export Plug-In . SVG Version: 6.00 Build 0)  -->
<svg version="1.1" id="Capa_1" xmlns="http://www.w3.org/2000/svg" xmlns:xlink="http://www.w3.org/1999/xlink" x="0px" y="0px"
	 viewBox="0 0 496.144 496.144" style="enable-background:new 0 0 496.144 496.144;" xml:space="preserve">
<g>
	<g>
		<path d="M295.712,232.528l-32.912-4.784l-14.728-29.816l-14.72,29.816l-32.912,4.784l23.824,23.208l-5.632,32.776l29.44-15.472
			l29.44,15.48l-5.624-32.784L295.712,232.528z M256.264,259.272l-8.192-4.312l-8.184,4.304l1.56-9.112l-6.616-6.464l9.144-1.32
			l4.096-8.296l4.096,8.296l9.152,1.328l-6.616,6.464L256.264,259.272z"/>
	</g>
</g>
<g>
	<g>
		<path d="M248.072,176c-12.8,0-25.424,3.472-36.528,10.024l8.144,13.784c8.632-5.112,18.456-7.808,28.384-7.808
			c30.872,0,56,25.128,56,56c0,9.928-2.696,19.752-7.808,28.392l13.784,8.144C316.6,273.424,320.072,260.8,320.072,248
			C320.072,208.296,287.776,176,248.072,176z"/>
	</g>
</g>
<g>
	<g>
		<path d="M276.456,296.192C267.824,301.304,258,304,248.072,304c-30.872,0-56-25.128-56-56c0-9.928,2.696-19.752,7.808-28.392
			l-13.784-8.144c-6.552,11.112-10.024,23.736-10.024,36.536c0,39.704,32.296,72,72,72c12.8,0,25.424-3.472,36.528-10.024
			L276.456,296.192z"/>
	</g>
</g>
<g>
	<g>
		<path d="M402.824,384h13.248v-96H399.52l-13.344-186.848C384.688,80.32,367.168,64,346.272,64h-58.2V16h16V0h-112v16h16v48h-58.2
			c-20.888,0-38.416,16.32-39.896,37.152L96.624,288H80.072v96H93.32l-23.456,78.192l176.712,33.664l1.496,0.288L426.28,462.2
			L402.824,384z M346.28,80c12.528,0,23.04,9.792,23.944,22.288L383.48,288h-23.992l-12.736-169.248
			C346.096,110.48,339.096,104,330.808,104h-35.456c-1.544-9.136-5.664-17.384-11.6-24H346.28z M295.352,120l35.448-0.016
			l5.512,73.248c-13.072-20.976-33.304-37.048-57.352-44.544C287.472,141.504,293.424,131.432,295.352,120z M336.072,248
			c0,48.52-39.48,88-88,88c-48.52,0-88-39.48-88-88c0-48.52,39.48-88,88-88S336.072,199.48,336.072,248z M224.072,48h16V32h-16V16
			h48v16h-16v16h16v16h-48V48z M248.072,80c17.648,0,32,14.352,32,32s-14.352,32-32,32s-32-14.352-32-32S230.424,80,248.072,80z
			 M217.176,148.68c-24.048,7.504-44.28,23.576-57.352,44.552L165.336,120h35.456C202.72,131.432,208.672,141.504,217.176,148.68z
			 M125.92,102.288C126.824,89.792,137.336,80,149.872,80H212.4c-5.936,6.616-10.056,14.864-11.6,24h-35.456
			c-8.288,0-15.288,6.48-15.944,14.776L136.656,288h-23.992L125.92,102.288z M96.072,336h32v-16h-32v-16h64v-0.832
			c18.424,29.272,50.936,48.832,88,48.832c37.064,0,69.576-19.56,88-48.832V304h64v16h-32v16h32v32h-304V336z M396.392,418.24
			l-15.232,3.144L377.008,384h9.104L396.392,418.24z M365.416,424.624l-15.536,3.208L345.008,384h15.896L365.416,424.624z
			 M334.136,431.08l-15.536,3.2L313.008,384h15.896L334.136,431.08z M302.848,437.528l-15.528,3.208L281.008,384h15.896
			L302.848,437.528z M271.576,443.984l-15.504,3.192V384h8.84L271.576,443.984z M240.072,384v63.176l-15.504-3.2L231.232,384
			H240.072z M215.128,384l-6.304,56.736l-15.536-3.208L199.232,384H215.128z M183.128,384l-5.584,50.28L162,431.072L167.232,384
			H183.128z M151.136,384l-4.872,43.832l-15.536-3.208L135.232,384H151.136z M119.136,384l-4.152,37.384l-15.232-3.144L110.024,384
			H119.136z M90.28,449.8l4.856-16.176l152.936,31.544l152.936-31.544l4.856,16.176l-157.792,30.056L90.28,449.8z"/>
	</g>
</g>
<g>
	<g>
		<rect x="336.072" y="320" width="16" height="16"/>
	</g>
</g>
<g>
	<g>
		<rect x="144.072" y="320" width="16" height="16"/>
	</g>
</g>
<g>
</g>
<g>
</g>
<g>
</g>
<g>
</g>
<g>
</g>
<g>
</g>
<g>
</g>
<g>
</g>
<g>
</g>
<g>
</g>
<g>
</g>
<g>
</g>
<g>
</g>
<g>
</g>
<g>
</g>
</svg>
