<?xml version="1.0" encoding="iso-8859-1"?>
<!-- Generator: Adobe Illustrator 19.0.0, SVG Export Plug-In . SVG Version: 6.00 Build 0)  -->
<svg version="1.1" id="Capa_1" xmlns="http://www.w3.org/2000/svg" xmlns:xlink="http://www.w3.org/1999/xlink" x="0px" y="0px"
	 viewBox="0 0 496 496" style="enable-background:new 0 0 496 496;" xml:space="preserve">
<g>
	<g>
		<path d="M320,24.408V16c0-8.824-7.176-16-16-16H192c-8.824,0-16,7.176-16,16v8.408C126.8,28.496,88,69.76,88,120v256
			c0,22.056,17.944,40,40,40h8v80h16v-16h16v-16h-16v-16h160v-16H152v-16h192v16h-16v16h16v16H184v16h160v16h16v-80h8
			c22.056,0,40-17.944,40-40V120C408,69.76,369.2,28.496,320,24.408z M192,16h112v32H192V16z M240,144v64h-88v-72
			c0-13.232,10.768-24,24-24h64v16h16v-16h64c13.232,0,24,10.768,24,24v72h-88v-64H240z M248,96c-8.824,0-16-7.176-16-16
			s7.176-16,16-16c8.824,0,16,7.176,16,16S256.824,96,248,96z M104,320h32c8.824,0,16,7.176,16,16c0,8.824-7.176,16-16,16h-32V320z
			 M392,352h-32c-8.824,0-16-7.176-16-16c0-8.824,7.176-16,16-16h32V352z M392,272H264v16h128v16h-32c-17.648,0-32,14.352-32,32
			s14.352,32,32,32h32v8c0,13.232-10.768,24-24,24H256v-48h40v-32h16v-16H184v16h16v32h40v48H128c-13.232,0-24-10.768-24-24v-8h32
			c17.648,0,32-14.352,32-32s-14.352-32-32-32h-32v-16h128v-16H104V120c0-41.408,31.632-75.568,72-79.592V48h-16v16h60.448
			C217.696,68.728,216,74.144,216,80s1.696,11.272,4.448,16H176c-22.056,0-40,17.944-40,40v72h-16v16h248v-16h-8v-72
			c0-22.056-17.944-40-40-40h-44.448C278.304,91.272,280,85.856,280,80s-1.696-11.272-4.448-16H336V48h-16v-7.592
			c40.368,4.032,72,38.184,72,79.592V272z M216,336v-16h64v16H216z"/>
	</g>
</g>
<g>
	<g>
		<rect x="136" y="240" width="16" height="16"/>
	</g>
</g>
<g>
	<g>
		<rect x="168" y="240" width="16" height="16"/>
	</g>
</g>
<g>
	<g>
		<rect x="344" y="240" width="16" height="16"/>
	</g>
</g>
<g>
	<g>
		<rect x="312" y="240" width="16" height="16"/>
	</g>
</g>
<g>
	<g>
		<rect x="168" y="176" width="56" height="16"/>
	</g>
</g>
<g>
	<g>
		<rect x="272" y="176" width="56" height="16"/>
	</g>
</g>
<g>
</g>
<g>
</g>
<g>
</g>
<g>
</g>
<g>
</g>
<g>
</g>
<g>
</g>
<g>
</g>
<g>
</g>
<g>
</g>
<g>
</g>
<g>
</g>
<g>
</g>
<g>
</g>
<g>
</g>
</svg>
