<?xml version="1.0" encoding="iso-8859-1"?>
<!-- Generator: Adobe Illustrator 19.0.0, SVG Export Plug-In . SVG Version: 6.00 Build 0)  -->
<svg version="1.1" id="Capa_1" xmlns="http://www.w3.org/2000/svg" xmlns:xlink="http://www.w3.org/1999/xlink" x="0px" y="0px"
	 viewBox="0 0 496 496" style="enable-background:new 0 0 496 496;" xml:space="preserve">
<g>
	<g>
		<path d="M152,160v48h80v-48H152z M216,192h-48v-16h48V192z"/>
	</g>
</g>
<g>
	<g>
		<path d="M460.32,408.44l-66.4-88.536C397.792,310,400,299.264,400,288v-37.04V248v-17.6L357.336,128H296v-20.688L315.312,88H376
			v16h16V88h72V40h-72V24h-16v16h-56h-8H184h-8h-56V24h-16v16H32v48h72v16h16V88h60.688L200,107.312V128h-61.336L96,230.4V248v2.96
			V288c0,11.264,2.208,22,6.08,31.904l-66.4,88.536C15.672,410.624,0,427.424,0,448v24h80v-24c0-8.136-2.472-15.696-6.664-22.024
			L112,387.312L148.688,424h198.624L384,387.312l38.664,38.664C418.472,432.304,416,439.864,416,448v24h80v-24
			C496,427.424,480.328,410.624,460.32,408.44z M392,56h56v16h-56V56z M320,56h56v16h-56V56z M104,72H48V56h56V72z M176,72h-56V56
			h56V72z M192,76.688V56h112v20.688L284.688,96h-73.376L192,76.688z M280,112v16h-64v-16H280z M112,240h40v-16h-36l33.336-80
			h197.336L380,224h-36v16h40v5.04L340.32,296h-57.224l18.664-56H328v-16H168v16h26.232l18.664,56H155.68L112,245.04V240z
			 M384,269.624V288c0,20.608-8.752,39.176-22.68,52.312l-8.56-34.24L384,269.624z M266.24,296h-36.472l-18.664-56h73.8L266.24,296z
			 M112,269.624l31.24,36.448l-8.56,34.24C120.752,327.176,112,308.608,112,288V269.624z M64,456H16v-8c0-13.232,10.768-24,24-24
			s24,10.768,24,24V456z M62.024,414.664c-2.48-1.648-5.2-2.936-8.024-4l56.184-74.92c3.984,6.144,8.728,11.728,14.072,16.688
			L62.024,414.664z M176,408h-20.688l-32-32l13.712-13.712c11.48,7.288,24.728,12.016,38.976,13.312V408z M170.096,358.624
			c-7.68-1.512-14.904-4.256-21.504-8.008L158.248,312h23.504L170.096,358.624z M304,376v32H192v-32h48v-16h-53.752l12-48h99.504
			l12,48H256v16H304z M337.752,312l9.656,38.616c-6.6,3.752-13.824,6.496-21.504,8.008L314.248,312H337.752z M340.688,408H320
			v-32.408c14.248-1.288,27.488-6.024,38.976-13.312L372.688,376L340.688,408z M371.744,352.432
			c5.344-4.96,10.088-10.544,14.072-16.68L442,410.664c-2.832,1.064-5.544,2.352-8.024,4L371.744,352.432z M480,456h-48v-8
			c0-13.232,10.768-24,24-24s24,10.768,24,24V456z"/>
	</g>
</g>
<g>
	<g>
		<path d="M264,160v48h80v-48H264z M328,192h-48v-16h48V192z"/>
	</g>
</g>
<g>
</g>
<g>
</g>
<g>
</g>
<g>
</g>
<g>
</g>
<g>
</g>
<g>
</g>
<g>
</g>
<g>
</g>
<g>
</g>
<g>
</g>
<g>
</g>
<g>
</g>
<g>
</g>
<g>
</g>
</svg>
