<?xml version="1.0" encoding="iso-8859-1"?>
<!-- Generator: Adobe Illustrator 19.0.0, SVG Export Plug-In . SVG Version: 6.00 Build 0)  -->
<svg version="1.1" id="Capa_1" xmlns="http://www.w3.org/2000/svg" xmlns:xlink="http://www.w3.org/1999/xlink" x="0px" y="0px"
	 viewBox="0 0 496 496" style="enable-background:new 0 0 496 496;" xml:space="preserve">
<g>
	<g>
		<path d="M96,288c-13.232,0-24,10.768-24,24s10.768,24,24,24s24-10.768,24-24S109.232,288,96,288z M96,320c-4.408,0-8-3.584-8-8
			c0-4.416,3.592-8,8-8s8,3.584,8,8C104,316.416,100.408,320,96,320z"/>
	</g>
</g>
<g>
	<g>
		<path d="M400,288c-13.232,0-24,10.768-24,24s10.768,24,24,24s24-10.768,24-24S413.232,288,400,288z M400,320c-4.416,0-8-3.584-8-8
			c0-4.416,3.584-8,8-8c4.416,0,8,3.584,8,8C408,316.416,404.416,320,400,320z"/>
	</g>
</g>
<g>
	<g>
		<path d="M464,144c-17.648,0-32,14.352-32,32c0,14.864,10.232,27.288,24,30.864V216c0,4.408-3.584,8-8,8h-32V88h16v40h48V64
			c0-13.232-10.768-24-24-24h-42.36C406.736,16.896,385.312,0,360,0h-35.056H171.056H136c-25.32,0-46.736,16.896-53.64,40H40
			c-13.232,0-24,10.768-24,24v64h48V88h16v136H48c-4.408,0-8-3.592-8-8v-9.136c13.76-3.576,24-16,24-30.864
			c0-17.648-14.352-32-32-32S0,158.352,0,176c0,14.864,10.24,27.288,24,30.864V216c0,13.232,10.768,24,24,24h32v16
			c-22.056,0-40,17.944-40,40v64v8v104c0,13.232,10.768,24,24,24h40c13.232,0,24-10.768,24-24V368h1.752l16,64h204.496l15.992-64
			H368v104c0,13.232,10.768,24,24,24h40c13.232,0,24-10.768,24-24V368v-8v-64c0-22.056-17.944-40-40-40v-16h32
			c13.232,0,24-10.768,24-24v-9.136c13.768-3.576,24-16,24-30.864C496,158.352,481.648,144,464,144z M464,112h-16V88h16V112z
			 M416,56h40c4.416,0,8,3.592,8,8v8h-48V56z M16,176c0-8.824,7.176-16,16-16s16,7.176,16,16c0,8.824-7.176,16-16,16
			S16,184.824,16,176z M299.056,16l-24,48h-54.112l-24-48H299.056z M96,80h88V64H96v-8c0-22.056,17.944-40,40-40h43.056l32,64
			h73.888l32-64H360c22.056,0,40,17.944,40,40v8h-88v16h88v16H96V80z M96,112h144v16h16v-16h144v80H256v-48h-16v48H96V112z M48,112
			H32V88h16V112z M32,72v-8c0-4.408,3.592-8,8-8h40v16H32z M112,384H96v16h16v16H96v16h16v16H96v16h16v8c0,4.416-3.592,8-8,8H64
			c-4.408,0-8-3.584-8-8v-8h16v-16H56v-16h16v-16H56v-16h16v-16H56v-16h56V384z M136,352H56v-56c0-13.232,10.768-24,24-24h56V352z
			 M337.752,416H158.248l-12-48H160v32h176v-32h13.76L337.752,416z M312,256h-40c-8.824,0-16,7.176-16,16v80h-16v-80
			c0-8.824-7.176-16-16-16h-40c-8.824,0-16,7.176-16,16v80h-16v-88c0-13.232,10.768-24,24-24h144c13.232,0,24,10.768,24,24v88h-16
			v-80C328,263.176,320.824,256,312,256z M272,352v-16h40v16H272z M288,368v16h-16v-16H288z M312,304v16h-40v-16H312z M272,288v-16
			h40v16H272z M304,368h16v16h-16V368z M256,368v16h-16v-16H256z M184,352v-16h40v16H184z M224,368v16h-16v-16H224z M192,368v16h-16
			v-16H192z M184,320v-16h40v16H184z M184,288v-16h40v16H184z M320,224H176c-19.312,0-35.472,13.768-39.192,32H96v-48h304v48
			h-40.808C355.472,237.768,339.32,224,320,224z M440,384h-16v16h16v16h-16v16h16v16h-16v16h16v8c0,4.416-3.584,8-8,8h-40
			c-4.416,0-8-3.584-8-8v-8h16v-16h-16v-16h16v-16h-16v-16h16v-16h-16v-16h56V384z M440,296v56h-80v-80h56
			C429.232,272,440,282.768,440,296z M464,192c-8.824,0-16-7.176-16-16c0-8.824,7.176-16,16-16c8.824,0,16,7.176,16,16
			C480,184.824,472.824,192,464,192z"/>
	</g>
</g>
<g>
	<g>
		<rect x="328" y="32" width="16" height="16"/>
	</g>
</g>
<g>
	<g>
		<rect x="360" y="32" width="16" height="16"/>
	</g>
</g>
<g>
	<g>
		<rect x="120" y="32" width="16" height="16"/>
	</g>
</g>
<g>
	<g>
		<rect x="152" y="32" width="16" height="16"/>
	</g>
</g>
<g>
</g>
<g>
</g>
<g>
</g>
<g>
</g>
<g>
</g>
<g>
</g>
<g>
</g>
<g>
</g>
<g>
</g>
<g>
</g>
<g>
</g>
<g>
</g>
<g>
</g>
<g>
</g>
<g>
</g>
</svg>
