<?xml version="1.0" encoding="iso-8859-1"?>
<!-- Generator: Adobe Illustrator 19.0.0, SVG Export Plug-In . SVG Version: 6.00 Build 0)  -->
<svg version="1.1" id="Capa_1" xmlns="http://www.w3.org/2000/svg" xmlns:xlink="http://www.w3.org/1999/xlink" x="0px" y="0px"
	 viewBox="0 0 496 496" style="enable-background:new 0 0 496 496;" xml:space="preserve">
<g>
	<g>
		<path d="M326.88,204l-3.032-21.656c-2.8-19.576-19.824-34.344-39.6-34.344h-84.48c-27.784,0-53.896,10.824-73.536,30.464
			l-23.192,23.192c-1.504,1.496-3.56,2.344-5.664,2.344H85.584c-26.032,0-51.592,7.08-73.944,20.48C4.464,228.8,0,236.688,0,245.064
			V316h42.8c6.608,18.616,24.344,32,45.2,32s38.592-13.384,45.2-32h205.6c6.608,18.616,24.344,32,45.2,32s38.592-13.384,45.2-32H456
			c22.056,0,40-17.944,40-40v-72H326.88z M88,332c-17.648,0-32-14.352-32-32s14.352-32,32-32s32,14.352,32,32S105.648,332,88,332z
			 M384,332c-17.648,0-32-14.352-32-32s14.352-32,32-32s32,14.352,32,32S401.648,332,384,332z M480,260h-40v16h40
			c0,13.232-10.768,24-24,24h-24c0-26.472-21.528-48-48-48s-48,21.528-48,48h-14.24l0.104-0.504
			c0.952-4.752,1.792-9.504,2.512-14.28l-15.816-2.424c-0.696,4.536-1.488,9.048-2.392,13.552L305.44,300H232v-48h-16v48h-80
			c0-26.472-21.528-48-48-48s-48,21.528-48,48H16v-54.936c0-2.8,1.496-5.432,3.88-6.864C39.736,226.288,62.456,220,85.584,220
			h11.792c6.408,0,12.44-2.496,16.968-7.032l23.192-23.192C154.168,173.16,176.256,164,199.768,164h84.488
			c11.864,0,22.08,8.856,23.752,20.608l4,27.96v24.92c0,4.72-0.12,9.432-0.336,14.136l15.984,0.752
			c0.224-4.952,0.344-9.912,0.344-14.88V220h152V260z"/>
	</g>
</g>
<g>
	<g>
		<path d="M184,180c-22.056,0-40,17.944-40,40v8h152v-48H184z M280,212H161.368c3.304-9.312,12.2-16,22.632-16h96V212z"/>
	</g>
</g>
<g>
	<g>
		<rect x="256" y="244" width="16" height="16"/>
	</g>
</g>
<g>
	<g>
		<rect x="176" y="244" width="16" height="16"/>
	</g>
</g>
<g>
	<g>
		<rect x="80" y="292" width="16" height="16"/>
	</g>
</g>
<g>
	<g>
		<rect x="376" y="292" width="16" height="16"/>
	</g>
</g>
<g>
</g>
<g>
</g>
<g>
</g>
<g>
</g>
<g>
</g>
<g>
</g>
<g>
</g>
<g>
</g>
<g>
</g>
<g>
</g>
<g>
</g>
<g>
</g>
<g>
</g>
<g>
</g>
<g>
</g>
</svg>
