<?xml version="1.0" encoding="iso-8859-1"?>
<!-- Generator: Adobe Illustrator 19.0.0, SVG Export Plug-In . SVG Version: 6.00 Build 0)  -->
<svg version="1.1" id="Capa_1" xmlns="http://www.w3.org/2000/svg" xmlns:xlink="http://www.w3.org/1999/xlink" x="0px" y="0px"
	 viewBox="0 0 496 496" style="enable-background:new 0 0 496 496;" xml:space="preserve">
<g>
	<g>
		<path d="M71.192,147.796c-9.48,0-18.088,5.592-21.936,14.248c-2.048,4.616-3.984,9.776-5.76,15.312l15.232,4.872
			c1.6-4.992,3.328-9.6,5.152-13.696c1.288-2.88,4.152-4.736,7.312-4.736H112v-16H71.192z"/>
	</g>
</g>
<g>
	<g>
		<path d="M472,251.796h-0.776c-3.568-18.44-19.2-32.944-38.512-34.432l-67.008-5.16l-18.16-48.408H360v-12.688
			c0-9.432-3.672-18.296-10.344-24.968s-15.536-10.344-24.968-10.344H71.192c-22.112,0-42.2,13.056-51.176,33.256
			C7.672,176.836,0,216.212,0,251.796v88.408h80.72c3.824,22.664,23.536,40,47.28,40c20.856,0,38.592-13.384,45.2-32h197.6
			c6.608,18.616,24.344,32,45.2,32c23.736,0,43.448-17.336,47.28-40H472c13.232,0,24-10.768,24-24v-40.408
			C496,262.564,485.232,251.796,472,251.796z M128,364.204c-17.648,0-32-14.352-32-32s14.352-32,32-32s32,14.352,32,32
			S145.648,364.204,128,364.204z M192,332.204h-16c0-26.472-21.528-48-48-48c-23.736,0-43.448,17.336-47.28,40H48v-32
			c0-13.232,10.768-24,24-24h96c13.232,0,24,10.768,24,24V332.204z M336,332.204H208v-16h128V332.204z M416,364.204
			c-17.648,0-32-14.352-32-32c0-17.872,14.352-32.408,32-32.408s32,14.536,32,32.408C448,349.852,433.648,364.204,416,364.204z
			 M480,316.204c0,4.416-3.584,8-8,8h-8.712c-3.8-22.888-23.528-40.408-47.288-40.408c-26.472,0-48,21.72-48,48.408h-16v-40.408
			c0-13.232,10.768-24,24-24h48v-16h-48c-22.056,0-40,17.944-40,40v8.408h-64v-72.408h66.248l-12-48H256v120.408h-48v-8
			c0-22.056-17.944-40-40-40H72c-22.056,0-40,17.944-40,40v32H16v-72.408c0-12.944,1.16-26.616,3.216-40H176v-16H22.176
			c3.168-14.84,7.384-28.808,12.464-40.24c6.416-14.432,20.76-23.76,36.552-23.76h253.496c5.16,0,10.008,2.008,13.656,5.656
			c2.848,2.848,4.704,6.448,5.376,10.344h-85.832c-9.152,0-17.376,5.088-21.472,13.264l-17.36,34.736H192v16h36.944l21.792-43.576
			c1.36-2.728,4.096-4.424,7.152-4.424h72.56l23.84,63.584l77.184,5.936c10.96,0.84,19.928,8.448,23.152,18.48H440v16h32
			c4.416,0,8,3.584,8,8V316.204z M272,211.796v-16h41.752l4,16H272z"/>
	</g>
</g>
<g>
	<g>
		<rect x="408" y="323.796" width="16" height="16"/>
	</g>
</g>
<g>
	<g>
		<rect x="120" y="323.796" width="16" height="16"/>
	</g>
</g>
<g>
	<g>
		<rect x="128" y="147.796" width="16" height="16"/>
	</g>
</g>
<g>
</g>
<g>
</g>
<g>
</g>
<g>
</g>
<g>
</g>
<g>
</g>
<g>
</g>
<g>
</g>
<g>
</g>
<g>
</g>
<g>
</g>
<g>
</g>
<g>
</g>
<g>
</g>
<g>
</g>
</svg>
