<?xml version="1.0" encoding="iso-8859-1"?>
<!-- Generator: Adobe Illustrator 19.0.0, SVG Export Plug-In . SVG Version: 6.00 Build 0)  -->
<svg version="1.1" id="Capa_1" xmlns="http://www.w3.org/2000/svg" xmlns:xlink="http://www.w3.org/1999/xlink" x="0px" y="0px"
	 viewBox="0 0 488 488" style="enable-background:new 0 0 488 488;" xml:space="preserve">
<g>
	<g>
		<path d="M416,296c-13.232,0-24,10.768-24,24s10.768,24,24,24s24-10.768,24-24S429.232,296,416,296z M416,328c-4.408,0-8-3.584-8-8
			c0-4.416,3.592-8,8-8c4.408,0,8,3.584,8,8C424,324.416,420.408,328,416,328z"/>
	</g>
</g>
<g>
	<g>
		<path d="M64,296c-13.232,0-24,10.768-24,24s10.768,24,24,24s24-10.768,24-24S77.232,296,64,296z M64,328c-4.408,0-8-3.584-8-8
			c0-4.416,3.592-8,8-8s8,3.584,8,8C72,324.416,68.408,328,64,328z"/>
	</g>
</g>
<g>
	<g>
		<path d="M472,168H336v-24c0-22.056-17.944-40-40-40h-59.664c-30.544,0-58.44,15.464-74.624,41.36L147.568,168H99.992
			c-2.976,0-5.984,0.184-8.944,0.552C52.824,173.336,24,205.984,24,244.504V280h0.888c-1.728,1.688-3.328,3.496-4.824,5.392
			l-7.488-4.32l-8,13.856l7.464,4.312c-1.624,4.04-2.76,8.32-3.4,12.76H0v16h8.64c0.64,4.44,1.776,8.72,3.4,12.76l-7.464,4.312
			l8,13.856l7.488-4.32c2.736,3.464,5.864,6.6,9.336,9.336l-4.32,7.48l13.848,8l4.312-7.456c4.04,1.616,8.32,2.752,12.76,3.392V384
			h16v-8.64c4.44-0.64,8.72-1.776,12.768-3.4l4.312,7.456l13.848-8l-4.32-7.48c3.464-2.736,6.6-5.864,9.336-9.336l7.488,4.32
			l8-13.856l-7.464-4.312c1.624-4.04,2.76-8.32,3.4-12.76h35.952l8-8h153.376l8,8h35.952c0.64,4.44,1.776,8.72,3.4,12.76
			l-7.464,4.312l8,13.856l7.488-4.32c2.736,3.464,5.864,6.6,9.336,9.336l-4.32,7.48l13.848,8l4.312-7.456
			c4.048,1.624,8.32,2.76,12.768,3.4V384h16v-8.64c4.44-0.64,8.72-1.776,12.768-3.4l4.312,7.456l13.848-8l-4.32-7.48
			c3.464-2.736,6.6-5.864,9.336-9.336l7.488,4.32l8-13.856l-7.464-4.312c1.624-4.04,2.76-8.32,3.4-12.76H488V184
			C488,175.176,480.824,168,472,168z M64,360c-22.056,0-40-17.944-40-40c0-22.056,17.944-40,40-40c22.056,0,40,17.944,40,40
			C104,342.056,86.056,360,64,360z M416,360c-22.056,0-40-17.944-40-40c0-22.056,17.944-40,40-40c22.056,0,40,17.944,40,40
			C456,342.056,438.056,360,416,360z M472,312h-0.64c-0.64-4.44-1.776-8.72-3.4-12.76l4.04-2.336V312z M472,288.992l-4.576-7.928
			l-7.488,4.32c-2.736-3.464-5.864-6.6-9.336-9.336l4.32-7.48l-13.848-8l-4.312,7.456c-4.04-1.608-8.32-2.744-12.76-3.384V256h-16
			v8.64c-4.44,0.64-8.72,1.776-12.768,3.4l-4.312-7.456l-13.848,8l4.32,7.48c-3.464,2.736-6.6,5.864-9.336,9.336l-7.488-4.32
			l-8,13.856l7.464,4.312c-1.616,4.032-2.752,8.312-3.392,12.752h-29.328l-8-8H156.688l-8,8H119.36c-0.64-4.44-1.776-8.72-3.4-12.76
			l7.464-4.312l-8-13.856l-7.488,4.32c-2.736-3.464-5.864-6.6-9.336-9.336l4.32-7.48l-13.848-8l-4.312,7.456
			c-4.04-1.616-8.32-2.752-12.76-3.392V256H56v8.64c-5.648,0.816-11.024,2.464-16,4.84v-24.976c0-30.472,22.8-56.296,53.024-60.08
			c2.312-0.28,4.64-0.424,6.968-0.424h56.448l18.848-30.16c13.24-21.192,36.064-33.84,61.056-33.84H296c13.232,0,24,10.768,24,24v40
			h152V288.992z"/>
	</g>
</g>
<g>
	<g>
		<path d="M227.776,136c-15.248,0-28.96,8.472-35.776,22.112L179.056,184H304v-48H227.776z M288,168h-83.056l1.368-2.736
			C210.4,157.088,218.632,152,227.776,152H288V168z"/>
	</g>
</g>
<g>
	<g>
		<rect x="240" y="200" width="32" height="16"/>
	</g>
</g>
<g>
	<g>
		<rect x="392" y="224" width="16" height="16"/>
	</g>
</g>
<g>
	<g>
		<path d="M320.568,272H304v-72h-16v72H159.432c-3.896-27.104-27.264-48-55.432-48H88v16h16c22.056,0,40,17.944,40,40v8h192v-8
			c0-22.056,17.944-40,40-40v-16C347.832,224,324.464,244.896,320.568,272z"/>
	</g>
</g>
<g>
</g>
<g>
</g>
<g>
</g>
<g>
</g>
<g>
</g>
<g>
</g>
<g>
</g>
<g>
</g>
<g>
</g>
<g>
</g>
<g>
</g>
<g>
</g>
<g>
</g>
<g>
</g>
<g>
</g>
</svg>
