<?xml version="1.0" encoding="iso-8859-1"?>
<!-- Generator: Adobe Illustrator 19.0.0, SVG Export Plug-In . SVG Version: 6.00 Build 0)  -->
<svg version="1.1" id="Capa_1" xmlns="http://www.w3.org/2000/svg" xmlns:xlink="http://www.w3.org/1999/xlink" x="0px" y="0px"
	 viewBox="0 0 496 496" style="enable-background:new 0 0 496 496;" xml:space="preserve">
<g>
	<g>
		<path d="M462.088,199.92l-62.936-9.688c-6.64-1.016-12.584-4.816-16.312-10.408l-30.68-46.016
			C344.728,122.656,332.288,116,318.872,116H65.056c-8.384,0-16.272,4.464-20.576,11.648C15.384,176.152,0,231.68,0,288.232V316
			c0,13.232,10.768,24,24,24h32.72c3.824,22.664,23.536,40,47.28,40s43.448-17.336,47.28-40h209.44c3.824,22.664,23.536,40,47.28,40
			c23.744,0,43.448-17.336,47.28-40H472c13.232,0,24-10.768,24-24v-76.544C496,219.56,481.736,202.936,462.088,199.92z M56.728,324
			H24c-4.408,0-8-3.584-8-8v-8h46.496C59.672,312.864,57.696,318.256,56.728,324z M104,364c-17.648,0-32-14.352-32-32
			s14.352-32,32-32s32,14.352,32,32S121.648,364,104,364z M360.728,324H151.28c-0.976-5.744-2.952-11.136-5.776-16h220.992
			C363.672,312.864,361.696,318.256,360.728,324z M408,364c-17.648,0-32-14.352-32-32s14.352-32,32-32s32,14.352,32,32
			S425.648,364,408,364z M480,316c0,4.416-3.592,8-8,8h-16.72c-0.968-5.744-2.952-11.136-5.768-16H480V316z M480,292h-45.52
			c-7.6-5.048-16.696-8-26.48-8s-18.88,2.952-26.48,8H240v-64h-16v64h-93.52c-7.6-5.048-16.696-8-26.48-8s-18.88,2.952-26.48,8H16
			v-3.768c0-53.656,14.592-106.344,42.2-152.352c1.44-2.392,4.064-3.88,6.856-3.88h253.816c8.048,0,15.504,3.992,19.968,10.688
			l30.68,46.016c6.208,9.328,16.128,15.648,27.192,17.344l54.376,8.368C449.112,218.632,448,223.248,448,228
			c0,17.648,14.352,32,32,32V292z M480,244c-8.824,0-16-7.176-16-16c0-3.536,1.2-6.92,3.312-9.688
			C474.96,222.36,480,230.32,480,239.456V244z"/>
	</g>
</g>
<g>
	<g>
		<path d="M331.488,159.288C327.072,152.216,319.464,148,311.136,148H224v64h121.568L352,222.296V276h16v-58.296L331.488,159.288z
			 M240,196v-32h71.136c2.776,0,5.312,1.408,6.784,3.768L335.568,196H240z"/>
	</g>
</g>
<g>
	<g>
		<path d="M83.528,148c-10.344,0-19.496,6.592-22.768,16.408L44.904,212H208v-64H83.528z M192,196H67.096l8.84-26.528
			c1.096-3.28,4.144-5.472,7.592-5.472H192V196z"/>
	</g>
</g>
<g>
	<g>
		<rect x="256" y="228" width="32" height="16"/>
	</g>
</g>
<g>
	<g>
		<rect x="392" y="244" width="16" height="16"/>
	</g>
</g>
<g>
	<g>
		<rect x="96" y="324" width="16" height="16"/>
	</g>
</g>
<g>
	<g>
		<rect x="400" y="324" width="16" height="16"/>
	</g>
</g>
<g>
</g>
<g>
</g>
<g>
</g>
<g>
</g>
<g>
</g>
<g>
</g>
<g>
</g>
<g>
</g>
<g>
</g>
<g>
</g>
<g>
</g>
<g>
</g>
<g>
</g>
<g>
</g>
<g>
</g>
</svg>
