<?xml version="1.0" encoding="iso-8859-1"?>
<!-- Generator: Adobe Illustrator 19.0.0, SVG Export Plug-In . SVG Version: 6.00 Build 0)  -->
<svg version="1.1" id="Capa_1" xmlns="http://www.w3.org/2000/svg" xmlns:xlink="http://www.w3.org/1999/xlink" x="0px" y="0px"
	 viewBox="0 0 496 496" style="enable-background:new 0 0 496 496;" xml:space="preserve">
<g>
	<g>
		<path d="M369.296,364c-13.232,0-24,10.768-24,24s10.768,24,24,24s24-10.768,24-24S382.528,364,369.296,364z M369.296,396
			c-4.416,0-8-3.584-8-8c0-4.416,3.584-8,8-8c4.416,0,8,3.584,8,8C377.296,392.416,373.712,396,369.296,396z"/>
	</g>
</g>
<g>
	<g>
		<path d="M126.704,364c-13.232,0-24,10.768-24,24s10.768,24,24,24c13.232,0,24-10.768,24-24S139.936,364,126.704,364z M126.704,396
			c-4.416,0-8-3.584-8-8c0-4.416,3.584-8,8-8c4.416,0,8,3.584,8,8C134.704,392.416,131.12,396,126.704,396z"/>
	</g>
</g>
<g>
	<g>
		<path d="M256,228V52h-16v32H120.496c-27.68,0-53.216,16.168-65.064,41.176L6.936,227.56C2.4,237.136,0,247.792,0,258.392V372
			c0,13.232,10.768,24,24,24h47.344c3.904,27.088,27.208,48,55.36,48c28.152,0,51.456-20.912,55.36-48h131.872
			c3.904,27.088,27.208,48,55.36,48c30.872,0,56-25.128,56-56s-25.128-56-56-56c-28.152,0-51.456,20.912-55.36,48H182.064
			c-0.816-5.648-2.464-11.024-4.84-16H301.24l2.096-4.8c11.48-26.24,37.376-43.2,65.968-43.2c39.704,0,72,32.296,72,72v8H496V228
			H256z M369.296,348c22.056,0,40,17.944,40,40c0,22.056-17.944,40-40,40c-22.056,0-40-17.944-40-40
			C329.296,365.944,347.24,348,369.296,348z M16,261.48c9.288,3.304,16,12.104,16,22.52s-6.712,19.216-16,22.528V261.48z
			 M71.344,380H24c-4.416,0-8-3.584-8-8v-8h60.184C73.808,368.976,72.16,374.352,71.344,380z M126.704,428
			c-22.056,0-40-17.944-40-40c0-22.056,17.944-40,40-40c22.056,0,40,17.944,40,40C166.704,410.056,148.76,428,126.704,428z M480,260
			h-16v16h16v104h-23.064c-4.056-44.792-41.816-80-87.64-80c-33.176,0-63.376,18.672-78.36,48h-125.12
			c-3.144-3.08-6.672-5.76-10.472-8.032L171.312,324H224v-80h-16v64h-43.312l-25.464,25.464c-4.032-0.928-8.208-1.464-12.52-1.464
			c-15.216,0-29.008,6.12-39.112,16H16v-24.808c18.232-3.72,32-19.88,32-39.192c0-18.728-12.992-34.376-30.4-38.704
			c0.904-3.744,2.144-7.408,3.792-10.88l48.496-102.392C79.112,112.568,98.968,100,120.496,100H240v144h240V260z"/>
	</g>
</g>
<g>
	<g>
		<path d="M125.336,116c-16.192,0-30.696,9.664-36.92,24.616L52,228h172V116H125.336z M208,212H76l27.176-65.232
			C106.92,137.8,115.616,132,125.336,132H208V212z"/>
	</g>
</g>
<g>
	<g>
		<rect x="152" y="244" width="32" height="16"/>
	</g>
</g>
<g>
	<g>
		<rect x="240" y="260" width="208" height="16"/>
	</g>
</g>
<g>
</g>
<g>
</g>
<g>
</g>
<g>
</g>
<g>
</g>
<g>
</g>
<g>
</g>
<g>
</g>
<g>
</g>
<g>
</g>
<g>
</g>
<g>
</g>
<g>
</g>
<g>
</g>
<g>
</g>
</svg>
