<?xml version="1.0" encoding="iso-8859-1"?>
<!-- Generator: Adobe Illustrator 19.0.0, SVG Export Plug-In . SVG Version: 6.00 Build 0)  -->
<svg version="1.1" id="Capa_1" xmlns="http://www.w3.org/2000/svg" xmlns:xlink="http://www.w3.org/1999/xlink" x="0px" y="0px"
	 viewBox="0 0 496 496" style="enable-background:new 0 0 496 496;" xml:space="preserve">
<g>
	<g>
		<path d="M486.648,256H496v-40h-40v-16c0-13.232-10.768-24-24-24h-1.328l-1.456-8H448c13.232,0,24-10.768,24-24v-24
			c0-13.232-10.768-24-24-24h-31.872l-9.096-50.016C402.192,19.336,379.024,0,351.936,0H144.064
			c-27.088,0-50.256,19.336-55.096,45.984L79.872,96H48c-13.232,0-24,10.768-24,24v24c0,13.232,10.768,24,24,24h18.784l-1.456,8H64
			c-13.232,0-24,10.768-24,24v16H0v40h9.352c27.584,0,54.656,7.2,78.648,20.704V320h-9.472c-3.312-9.288-12.112-16-22.528-16H24
			c-13.232,0-24,10.768-24,24v144c0,13.232,10.768,24,24,24h32c13.232,0,24-10.768,24-24v-40h336v40c0,13.232,10.768,24,24,24h32
			c13.232,0,24-10.768,24-24V328c0-13.232-10.768-24-24-24h-32c-10.416,0-19.216,6.712-22.528,16H408v-43.296
			C431.992,263.2,459.064,256,486.648,256z M64,344v16H48v16h16v16H48v16h16v16H48v16h16v16H48v16h16c0,4.416-3.584,8-8,8H24
			c-4.416,0-8-3.584-8-8h16v-16H16v-16h16v-16H16v-16h16v-16H16v-16h16v-16H16v-16h16v-16H16c0-4.416,3.584-8,8-8h32
			c4.416,0,8,3.584,8,8H48v16H64z M432,456v-16h16v-16h-16v-16h16v-16h-16v-16h16v-16h-16v-16h16v-16h-16c0-4.416,3.584-8,8-8h32
			c4.416,0,8,3.584,8,8h-16v16h16v16h-16v16h16v16h-16v16h16v16h-16v16h16v16h-16v16h16c0,4.416-3.584,8-8,8h-32
			c-4.416,0-8-3.584-8-8h16v-16H432z M448,112c4.416,0,8,3.592,8,8v24c0,4.408-3.584,8-8,8h-21.688l-7.272-40H448z M48,152
			c-4.416,0-8-3.592-8-8v-24c0-4.408,3.584-8,8-8h28.968l-7.272,40H48z M56,200c0-4.408,3.584-8,8-8h48v-16H81.584l23.12-127.16
			C108.168,29.816,124.72,16,144.064,16h207.872c19.344,0,35.896,13.816,39.36,32.84L414.416,176H384v16h48c4.416,0,8,3.592,8,8v16
			h-53.52c-7.6-5.048-16.696-8-26.48-8H136c-9.784,0-18.88,2.952-26.48,8H56V200z M176,336v24h-14.776l5.712-40h162.128l5.712,40
			H320v-24H176z M304,352v32H192v-32H304z M153.064,304l-8,56H128c-2.176,0-4.248-0.384-6.248-0.928l11.736-64.496
			c0.688-3.808,4-6.568,7.864-6.568h213.296c3.864,0,7.176,2.768,7.872,6.568l11.728,64.496c-2,0.544-4.072,0.928-6.248,0.928
			h-17.056l-8-56H153.064z M112,248c0-11.576,8.24-21.272,19.168-23.512c1.584-0.24,3.176-0.488,4.832-0.488
			c13.232,0,24,10.768,24,24s-10.768,24-24,24S112,261.232,112,248z M120.232,284.736c-1.144,2.152-2.04,4.472-2.488,6.976
			l-10.28,56.52C105.312,344.64,104,340.488,104,336v-64.248C108.184,277.376,113.72,281.928,120.232,284.736z M167.792,224H328.2
			c-5.072,6.704-8.2,14.96-8.2,24s3.128,17.296,8.208,24H304v-32h-16v32h-16v-32h-16v32h-16v-32h-16v32h-16v-32h-16v32h-24.208
			c5.08-6.704,8.208-14.96,8.208-24C176,238.96,172.872,230.704,167.792,224z M360,272c-13.232,0-24-10.768-24-24s10.768-24,24-24
			c1.656,0,3.248,0.248,4.832,0.488C375.76,226.728,384,236.424,384,248C384,261.232,373.232,272,360,272z M392,271.752V336
			c0,4.488-1.312,8.64-3.464,12.232l-10.28-56.52c-0.456-2.504-1.344-4.824-2.488-6.976C382.28,281.928,387.816,277.376,392,271.752
			z M16,240.128V232h78.496C90.392,239.072,88,247.256,88,256v2.576C65.6,247.408,41.064,241.072,16,240.128z M80,336h8
			c0,22.056,17.944,40,40,40h48v8H80V336z M416,416H80v-16h336V416z M416,336v48h-96v-8h48c22.056,0,40-17.944,40-40H416z
			 M401.504,232H480v8.128c-25.064,0.944-49.6,7.288-72,18.448V256C408,247.256,405.608,239.072,401.504,232z"/>
	</g>
</g>
<g>
	<g>
		<path d="M375.552,51.712C373.48,40.288,363.544,32,351.936,32H144.064c-11.608,0-21.536,8.288-23.608,19.712L100.76,160h294.488
			L375.552,51.712z M136.192,54.568c0.688-3.808,4-6.568,7.872-6.568h207.872c3.864,0,7.176,2.76,7.872,6.568L376.072,144H119.928
			L136.192,54.568z"/>
	</g>
</g>
<g>
	<g>
		<rect x="128" y="176" width="240" height="16"/>
	</g>
</g>
<g>
	<g>
		<rect x="144" y="112" width="112" height="16"/>
	</g>
</g>
<g>
	<g>
		<rect x="272" y="112" width="16" height="16"/>
	</g>
</g>
<g>
</g>
<g>
</g>
<g>
</g>
<g>
</g>
<g>
</g>
<g>
</g>
<g>
</g>
<g>
</g>
<g>
</g>
<g>
</g>
<g>
</g>
<g>
</g>
<g>
</g>
<g>
</g>
<g>
</g>
</svg>
