<?xml version="1.0" encoding="iso-8859-1"?>
<!-- Generator: Adobe Illustrator 19.0.0, SVG Export Plug-In . SVG Version: 6.00 Build 0)  -->
<svg version="1.1" id="Capa_1" xmlns="http://www.w3.org/2000/svg" xmlns:xlink="http://www.w3.org/1999/xlink" x="0px" y="0px"
	 viewBox="0 0 496 496" style="enable-background:new 0 0 496 496;" xml:space="preserve">
<g>
	<g>
		<path d="M423.592,480c-3.744-41.312-36.136-74.416-77.104-79.312C383.144,380.128,408,340.936,408,296
			c0-8.632-2.816-16.584-7.488-23.136L408,257.888v-37.4c0-11.032-7.48-20.608-18.176-23.288l-16.36-4.088l-7.416-49.424
			C361.968,116.504,338.16,96,310.664,96h-1.72l-16-32H256v-9.472c3.672-1.312,6.928-3.448,9.528-6.248L381.36,63.72
			c1.4,0.184,2.808,0.28,4.232,0.28H392c17.648,0,32-14.352,32-32S409.648,0,392,0h-6.408c-1.424,0-2.832,0.096-4.224,0.28
			l-115.84,15.448C261.144,11,254.936,8,248,8c-6.936,0-13.144,3-17.528,7.728L114.64,0.28c-1.4-0.184-2.816-0.28-4.232-0.28H104
			C86.352,0,72,14.352,72,32s14.352,32,32,32h6.408c1.416,0,2.832-0.096,4.232-0.28l115.832-15.44
			c2.608,2.8,5.856,4.944,9.528,6.248V64h-36.944l-16,32h-1.72c-27.944,0-51.232,20.056-55.376,47.688l-7.416,49.424l-16.36,4.088
			C95.48,199.88,88,209.456,88,220.496v37.4l7.488,14.976C90.816,279.416,88,287.368,88,296c0,44.936,24.864,84.128,61.512,104.688
			C108.544,405.584,76.152,438.696,72.4,480H48v16h64v-16H88.472c4-35.944,34.536-64,71.528-64h48h80h48
			c37,0,67.536,28.056,71.528,64H384v16h64v-16H423.592z M271.904,31.016l111.584-14.872c0.688-0.096,1.4-0.144,2.104-0.144H392
			c8.824,0,16,7.176,16,16s-7.176,16-16,16h-6.408c-0.704,0-1.416-0.048-2.12-0.144l-111.576-14.88
			C271.912,32.648,272,32.336,272,32S271.912,31.352,271.904,31.016z M224.096,32.984L112.512,47.856
			c-0.696,0.096-1.4,0.144-2.104,0.144H104c-8.824,0-16-7.176-16-16s7.176-16,16-16h6.408c0.704,0,1.408,0.048,2.112,0.144
			l111.576,14.88C224.088,31.352,224,31.664,224,32S224.088,32.648,224.096,32.984z M385.936,212.728
			c3.568,0.896,6.064,4.088,6.064,7.768v33.616l-3.784,7.568c-1.576-0.936-3.152-1.88-4.856-2.592l-7.328-48.832L385.936,212.728z
			 M248,24c4.416,0,8,3.592,8,8s-3.584,8-8,8c-4.408,0-8-3.592-8-8S243.592,24,248,24z M212.944,80h70.112l8,16h-86.112L212.944,80z
			 M145.776,146.064c2.968-19.736,19.6-34.064,39.56-34.064h125.328c19.64,0,36.648,14.648,39.552,34.064L366.712,256h-15.816
			L334.76,148.44c-1.744-11.648-11.944-20.44-23.736-20.44h-126.04c-11.976,0-21.96,8.592-23.736,20.44L145.112,256h-15.824
			L145.776,146.064z M334.712,256H161.288l15.776-105.184c0.6-3.952,3.928-6.816,7.92-6.816h126.04c3.928,0,7.328,2.928,7.904,6.816
			L334.712,256z M104,220.496c0-3.68,2.496-6.872,6.064-7.76l9.912-2.48l-7.328,48.832c-1.712,0.712-3.28,1.664-4.864,2.592
			L104,254.112V220.496z M128,272h240c13.232,0,24,10.768,24,24H104C104,282.768,114.768,272,128,272z M105.36,312h285.28
			c-2.792,17.92-10.112,34.32-20.84,48H126.192C115.464,346.32,108.144,329.92,105.36,312z M288,400h-80
			c-25.208,0-48.336-9.024-66.36-24h212.72C336.336,390.976,313.208,400,288,400z"/>
	</g>
</g>
<g>
	<g>
		<rect x="160" y="328" width="32" height="16"/>
	</g>
</g>
<g>
	<g>
		<rect x="304" y="328" width="32" height="16"/>
	</g>
</g>
<g>
	<g>
		<rect x="184" y="224" width="80" height="16"/>
	</g>
</g>
<g>
	<g>
		<rect x="280" y="224" width="16" height="16"/>
	</g>
</g>
<g>
</g>
<g>
</g>
<g>
</g>
<g>
</g>
<g>
</g>
<g>
</g>
<g>
</g>
<g>
</g>
<g>
</g>
<g>
</g>
<g>
</g>
<g>
</g>
<g>
</g>
<g>
</g>
<g>
</g>
</svg>
