<?xml version="1.0" encoding="iso-8859-1"?>
<!-- Generator: Adobe Illustrator 19.0.0, SVG Export Plug-In . SVG Version: 6.00 Build 0)  -->
<svg version="1.1" id="Capa_1" xmlns="http://www.w3.org/2000/svg" xmlns:xlink="http://www.w3.org/1999/xlink" x="0px" y="0px"
	 viewBox="0 0 496 496" style="enable-background:new 0 0 496 496;" xml:space="preserve">
<g>
	<g>
		<rect x="152" y="392" width="192" height="16"/>
	</g>
</g>
<g>
	<g>
		<rect x="56" y="392" width="32" height="16"/>
	</g>
</g>
<g>
	<g>
		<rect x="408" y="392" width="32" height="16"/>
	</g>
</g>
<g>
	<g>
		<path d="M496,216V64h-32V0h-56v41.304C384.048,27.16,327.712,0,248,0S111.952,27.16,88,41.304V0H32v64H0v152h32v45.744
			c-9.92,7.424-16,19.064-16,31.92V392c0,28.152,20.904,51.456,48,55.36V472c0,13.232,10.768,24,24,24h32c13.232,0,24-10.768,24-24
			v-24h208v24c0,13.232,10.768,24,24,24h32c13.232,0,24-10.768,24-24v-24.64c27.096-3.904,48-27.208,48-55.36v-98.336
			c0-12.856-6.08-24.504-16-31.92V216H496z M464,184V80h16v120h-16V184z M424,16h24v24h-24V16z M424,56h24v24h-24V56z M424,120V96
			h24v65.472c-2.512-0.896-5.184-1.472-8-1.472h-10.064l-2.968-28.184c-0.44-4.208-1.656-8.12-3.272-11.816H424z M448,184v69.784
			l-8.552-3.416L431.624,176H440C444.408,176,448,179.592,448,184z M88,60.2C101.904,50.992,160.552,16,248,16
			c87.176,0,146.04,35.008,160,44.208v41.624C401.92,98.136,394.8,96,387.192,96H376V64h-48v32H168V64h-48v32h-11.192
			C101.2,96,94.08,98.136,88,101.832V60.2z M360,80v16h-16V80H360z M152,80v16h-16V80H152z M84.944,133.488
			C86.232,121.24,96.496,112,108.808,112h278.384c12.32,0,22.576,9.24,23.864,21.488l11.592,110.16l-25.488-10.2
			c-2.76-7.016-7.448-13.008-13.408-17.448H384v-72c0-8.824-7.176-16-16-16H128c-8.824,0-16,7.176-16,16v72h0.248
			c-5.96,4.44-10.648,10.432-13.408,17.448l-25.488,10.2L84.944,133.488z M315.056,240l-8,16H187.312l-16-16H128v112h-16V248
			c0-13.232,10.768-24,24-24h224c13.232,0,24,10.768,24,24v104h-16V240H315.056z M352,336v16H144v-16h48v-16h-48v-16h208v16h-48v16
			H352z M144,288v-32h20.688l16,16h136.256l8-16H352v32H144z M128,208.808V144h240v64.808c-2.584-0.528-5.264-0.808-8-0.808H136
			C133.264,208,130.584,208.28,128,208.808z M48,16h24v24H48V16z M48,56h24v24H48V56z M48,96h24v24h0.296
			c-1.608,3.688-2.824,7.608-3.272,11.816L66.064,160H56c-2.816,0-5.488,0.576-8,1.472V96z M48,192v-8c0-4.408,3.592-8,8-8h8.376
			l-7.824,74.36L48,253.784V192z M16,200V80h16v104v8v8H16z M32,293.664c0-9.872,5.92-18.616,15.088-22.28L96,251.816V352H32
			V293.664z M128,472c0,4.416-3.592,8-8,8H88c-4.408,0-8-3.584-8-8v-24h48V472z M416,472c0,4.416-3.592,8-8,8h-32
			c-4.408,0-8-3.584-8-8v-24h48V472z M464,392c0,22.056-17.944,40-40,40H72c-22.056,0-40-17.944-40-40v-24h432V392z M464,352h-64
			V251.816l48.912,19.568c9.168,3.664,15.088,12.408,15.088,22.28V352z"/>
	</g>
</g>
<g>
	<g>
		<rect x="64" y="320" width="16" height="16"/>
	</g>
</g>
<g>
	<g>
		<rect x="64" y="288" width="16" height="16"/>
	</g>
</g>
<g>
	<g>
		<rect x="416" y="320" width="16" height="16"/>
	</g>
</g>
<g>
	<g>
		<rect x="416" y="288" width="16" height="16"/>
	</g>
</g>
<g>
	<g>
		<rect x="208" y="320" width="80" height="16"/>
	</g>
</g>
<g>
	<g>
		<rect x="144" y="160" width="72" height="16"/>
	</g>
</g>
<g>
	<g>
		<rect x="232" y="160" width="16" height="16"/>
	</g>
</g>
<g>
</g>
<g>
</g>
<g>
</g>
<g>
</g>
<g>
</g>
<g>
</g>
<g>
</g>
<g>
</g>
<g>
</g>
<g>
</g>
<g>
</g>
<g>
</g>
<g>
</g>
<g>
</g>
<g>
</g>
</svg>
