<?xml version="1.0" encoding="iso-8859-1"?>
<!-- Generator: Adobe Illustrator 19.0.0, SVG Export Plug-In . SVG Version: 6.00 Build 0)  -->
<svg version="1.1" id="Capa_1" xmlns="http://www.w3.org/2000/svg" xmlns:xlink="http://www.w3.org/1999/xlink" x="0px" y="0px"
	 viewBox="0 0 496 496" style="enable-background:new 0 0 496 496;" xml:space="preserve">
<g>
	<g>
		<path d="M448,320h-12.36l-14.88-79.376c-1.728-9.232-6.592-17.192-13.32-22.96L392.8,64H432V48h-17.224l-4.656-27.944
			C408.184,8.432,398.224,0,386.448,0H109.552C97.768,0,87.816,8.432,85.88,20.056L81.224,48H64v16h39.2L88.568,217.672
			c-6.728,5.768-11.592,13.728-13.32,22.96L60.36,320H48c-13.232,0-24,10.768-24,24v128c0,13.232,10.768,24,24,24h32
			c13.232,0,24-10.768,24-24v-56h44.904l5.336,16h187.528l5.336-16H392v56c0,13.232,10.768,24,24,24h32c13.232,0,24-10.768,24-24
			V344C472,330.768,461.232,320,448,320z M97.44,48l4.224-25.312c0.648-3.872,3.968-6.688,7.888-6.688H386.44
			c3.928,0,7.248,2.816,7.888,6.688L398.56,48H97.44z M390.552,209.184c-2.952-0.696-5.968-1.184-9.112-1.184h-6.2l-14.4-144h15.888
			L390.552,209.184z M288,304v-32h32v64H176v-64h32v32H288z M224,288v-16h48v16H224z M176,256v-32h144v32H176z M248.808,208
			c3.72-18.232,19.872-32,39.192-32c19.32,0,35.472,13.768,39.192,32H248.808z M288,160c-28.152,0-51.456,20.904-55.36,48h-95.8
			l14.4-144h193.52l14.4,144h-15.8C339.456,180.904,316.152,160,288,160z M135.16,64l-14.4,144h-6.2
			c-3.136,0-6.16,0.488-9.112,1.184L119.272,64H135.16z M88,384H72v16h16v16H72v16h16v16H72v16h16v8c0,4.408-3.592,8-8,8H48
			c-4.408,0-8-3.592-8-8v-8h16v-16H40v-16h16v-16H40v-16h16v-16H40v-16h16v-16H40v-8c0-4.408,3.592-8,8-8h9.36l-0.72,3.856
			c-0.424,2.264-0.64,4.576-0.64,6.864c0,18.744,13.96,34.152,32,36.744V384z M104,400v-16h34.232l5.336,16H104z M330.24,416
			H165.768l-10.664-32h185.8L330.24,416z M392,400h-39.568l5.336-16H392V400z M93.28,368c-9.896,0-18.168-6.832-20.536-16H128v-16
			H73.64l17.328-92.424C93.096,232.232,103.016,224,114.56,224H160v112h-16v16h208v-16h-16V224h45.44
			c11.536,0,21.464,8.232,23.592,19.576L422.36,336H368v16h55.256c-2.368,9.168-10.64,16-20.536,16H93.28z M456,352h-16v16h16v16
			h-16v16h16v16h-16v16h16v16h-16v16h16v8c0,4.408-3.592,8-8,8h-32c-4.408,0-8-3.592-8-8v-8h16v-16h-16v-16h16v-16h-16v-16h16v-16
			h-16v-0.536c18.04-2.592,32-18,32-36.744c0-2.296-0.216-4.6-0.64-6.872L438.64,336H448c4.408,0,8,3.592,8,8V352z"/>
	</g>
</g>
<g>
</g>
<g>
</g>
<g>
</g>
<g>
</g>
<g>
</g>
<g>
</g>
<g>
</g>
<g>
</g>
<g>
</g>
<g>
</g>
<g>
</g>
<g>
</g>
<g>
</g>
<g>
</g>
<g>
</g>
</svg>
