<?xml version="1.0" encoding="iso-8859-1"?>
<!-- Generator: Adobe Illustrator 19.0.0, SVG Export Plug-In . SVG Version: 6.00 Build 0)  -->
<svg version="1.1" id="Capa_1" xmlns="http://www.w3.org/2000/svg" xmlns:xlink="http://www.w3.org/1999/xlink" x="0px" y="0px"
	 viewBox="0 0 496 496" style="enable-background:new 0 0 496 496;" xml:space="preserve">
<g>
	<g>
		<path d="M472,128v-8c0-13.232-10.768-24-24-24h-24v-8c0-22.056-17.944-40-40-40V16h16V0h-48v16h16v32h-27.056l-16-32H171.056
			l-16,32H128V16h16V0H96v16h16v32c-22.056,0-40,17.944-40,40v8H48c-13.232,0-24,10.768-24,24v8H8v128h16v8
			c0,13.232,10.768,24,24,24h24v80c-13.232,0-24,10.768-24,24v32c0,13.232,10.768,24,24,24v24c0,13.232,10.768,24,24,24h32
			c13.232,0,24-10.768,24-24v-24h192v24c0,13.232,10.768,24,24,24h32c13.232,0,24-10.768,24-24v-24c13.232,0,24-10.768,24-24v-32
			c0-13.232-10.768-24-24-24v-80h24c13.232,0,24-10.768,24-24v-8h16V128H472z M180.944,32h134.112l8,16H172.944L180.944,32z M88,88
			c0-13.232,10.768-24,24-24h272c13.232,0,24,10.768,24,24v32H88V88z M88,136h320v96H88V136z M88,248h320v120h-24
			c0-19.312-13.768-35.472-32-39.192V296c0-13.232-10.768-24-24-24H168c-13.232,0-24,10.768-24,24v32.808
			c-18.232,3.72-32,19.872-32,39.192H88V248z M368,368h-7.8H360h-8v-22.528C361.288,348.784,368,357.584,368,368z M144,345.472V368
			h-7.8H136h-8C128,357.584,134.712,348.784,144,345.472z M24,240v-96h16v96H24z M48,272c-4.408,0-8-3.584-8-8v-8h16V128H40v-8
			c0-4.408,3.592-8,8-8h24v160H48z M72,432c-4.408,0-8-3.584-8-8v-32c0-4.416,3.592-8,8-8h32.2c-5.04,6.656-8.152,14.832-8.2,23.808
			c-0.04,8.88,2.928,17.232,8.2,24.192H72z M136,472c0,4.416-3.592,8-8,8H96c-4.408,0-8-3.584-8-8v-24h47.8h0.2V472z M136,432h-0.12
			c-6.408-0.032-12.424-2.552-16.936-7.112c-4.512-4.552-6.976-10.592-6.944-17.008c0.064-13.192,10.824-23.88,24-23.88h0.12
			c6.408,0.032,12.424,2.552,16.936,7.112c4.504,4.552,6.976,10.592,6.944,17.008C159.936,421.312,149.176,432,136,432z M160,296
			c0-4.416,3.592-8,8-8h160c4.408,0,8,3.584,8,8v72h-16v-64H176v64h-16V296z M304,320v48h-16v-48H304z M272,320v48h-16v-48H272z
			 M240,320v48h-16v-48H240z M208,320v48h-16v-48H208z M328.2,432H167.8c5.04-6.656,8.152-14.832,8.2-23.808
			c0.04-8.872-2.928-17.232-8.2-24.192h160.4c-5.04,6.656-8.152,14.832-8.2,23.808C319.96,416.688,322.928,425.04,328.2,432z
			 M342.944,424.888c-4.512-4.56-6.976-10.592-6.944-17.008c0.064-13.192,10.824-23.88,24-23.88h0.12
			c6.408,0.032,12.424,2.552,16.936,7.112c4.504,4.552,6.976,10.592,6.944,17.008c-0.064,13.192-10.824,23.88-24,23.88h-0.12
			C353.472,431.968,347.456,429.448,342.944,424.888z M408,472c0,4.416-3.592,8-8,8h-32c-4.408,0-8-3.584-8-8v-24h48V472z M432,392
			v32c0,4.416-3.592,8-8,8h-32.2c5.04-6.656,8.152-14.832,8.2-23.808c0.04-8.88-2.928-17.232-8.2-24.192H424
			C428.408,384,432,387.584,432,392z M456,264c0,4.416-3.592,8-8,8h-24V112h24c4.408,0,8,3.592,8,8v8h-16v128h16V264z M472,240h-16
			v-96h16V240z"/>
	</g>
</g>
<g>
	<g>
		<rect x="112" y="280" width="16" height="16"/>
	</g>
</g>
<g>
	<g>
		<rect x="368" y="280" width="16" height="16"/>
	</g>
</g>
<g>
	<g>
		<rect x="376" y="88" width="16" height="16"/>
	</g>
</g>
<g>
	<g>
		<rect x="344" y="88" width="16" height="16"/>
	</g>
</g>
<g>
	<g>
		<rect x="312" y="88" width="16" height="16"/>
	</g>
</g>
<g>
	<g>
		<rect x="168" y="88" width="16" height="16"/>
	</g>
</g>
<g>
	<g>
		<rect x="136" y="88" width="16" height="16"/>
	</g>
</g>
<g>
	<g>
		<rect x="104" y="88" width="16" height="16"/>
	</g>
</g>
<g>
	<g>
		<rect x="104" y="152" width="112" height="16"/>
	</g>
</g>
<g>
	<g>
		<rect x="232" y="152" width="16" height="16"/>
	</g>
</g>
<g>
</g>
<g>
</g>
<g>
</g>
<g>
</g>
<g>
</g>
<g>
</g>
<g>
</g>
<g>
</g>
<g>
</g>
<g>
</g>
<g>
</g>
<g>
</g>
<g>
</g>
<g>
</g>
<g>
</g>
</svg>
