<?xml version="1.0" encoding="iso-8859-1"?>
<!-- Generator: Adobe Illustrator 19.0.0, SVG Export Plug-In . SVG Version: 6.00 Build 0)  -->
<svg version="1.1" id="Capa_1" xmlns="http://www.w3.org/2000/svg" xmlns:xlink="http://www.w3.org/1999/xlink" x="0px" y="0px"
	 viewBox="0 0 496 496" style="enable-background:new 0 0 496 496;" xml:space="preserve">
<g>
	<g>
		<path d="M344,232h-32v16h32c4.416,0,8,3.592,8,8v16h-71.752l6-24H296v-16h-96v16h9.76l6,24H144v-16c0-4.408,3.584-8,8-8h32v-16
			h-32c-13.232,0-24,10.768-24,24v48c0,22.056,17.944,40,40,40h160c22.056,0,40-17.944,40-40v-48C368,242.768,357.232,232,344,232z
			 M160,326.528c-9.288-3.312-16-12.112-16-22.528v-16h16V326.528z M192,328h-16v-40h16V328z M224,328h-16v-40h11.752l0.608,2.416
			c0.76,3.056,2.024,5.872,3.64,8.416V328z M256,328h-16v-17.224c2.56,0.744,5.224,1.224,8,1.224s5.44-0.48,8-1.224V328z
			 M260.128,286.536c-1.4,5.576-6.384,9.464-12.128,9.464c-5.744,0-10.728-3.888-12.128-9.464L226.24,248h43.52L260.128,286.536z
			 M288,328h-16v-29.168c1.616-2.544,2.88-5.36,3.64-8.416l0.608-2.416H288V328z M320,328h-16v-40h16V328z M352,304
			c0,10.416-6.712,19.216-16,22.528V288h16V304z"/>
	</g>
</g>
<g>
	<g>
		<path d="M62.24,320l3.64,18.192C70.264,360.096,89.656,376,112,376h8v-56H62.24z M104,358.944
			c-10.872-2.92-19.592-11.648-22.224-22.944H104V358.944z"/>
	</g>
</g>
<g>
	<g>
		<path d="M376,320v56h8c22.344,0,41.736-15.904,46.12-37.808L433.76,320H376z M392,358.944V336h22.224
			C411.592,347.304,402.872,356.024,392,358.944z"/>
	</g>
</g>
<g>
	<g>
		<path d="M480.984,112c-20.36,0-40.68,2.384-60.544,6.848l-7.056-54.096C409.768,36.96,385.888,16,357.848,16H138.152
			c-28.04,0-51.912,20.96-55.528,48.76l-7.056,54.096C55.696,114.384,35.376,112,15.016,112H0v24c0,17.528,8.376,34.28,22.4,44.8
			C32.024,188.016,43.952,192,56,192h10.024l-1.296,9.936C54.296,214.432,48,230.488,48,248v24H32v72c0,11.832,2.92,22.976,8,32.832
			V456c0,13.232,10.768,24,24,24h48c13.232,0,24-10.768,24-24v-40h224v40c0,13.232,10.768,24,24,24h48c13.232,0,24-10.768,24-24
			v-79.168c5.08-9.856,8-21,8-32.832v-72h-16v-24c0-17.512-6.296-33.568-16.728-46.064L429.976,192H440
			c12.048,0,23.976-3.984,33.592-11.2C487.624,170.28,496,153.528,496,136v-24H480.984z M98.48,66.832
			C101.072,46.976,118.128,32,138.152,32h219.704c20.024,0,37.08,14.976,39.672,34.832l15.6,119.592
			c-5.312-3.216-11.04-5.776-17.128-7.544L381.648,68.896C380.112,56.984,369.872,48,357.848,48H138.152
			c-12.024,0-22.256,8.984-23.8,20.896L100.008,178.88c-6.088,1.76-11.816,4.328-17.128,7.544L98.48,66.832z M379.512,176.184
			C378.336,176.12,377.184,176,376,176H120c-1.184,0-2.336,0.12-3.512,0.176l13.72-105.216c0.52-3.968,3.936-6.96,7.944-6.96
			h219.704c4.008,0,7.424,2.992,7.936,6.968L379.512,176.184z M56,176c-8.6,0-17.128-2.84-24-8c-3.04-2.28-5.656-5.008-7.896-8H40
			v-16H16.872c-0.536-2.616-0.872-5.288-0.872-8v-8c19.344,0.072,38.64,2.416,57.488,6.76L68.112,176H56z M79.864,209.024
			l0.064,0.008l0.008-0.088c8.408-8.616,19.56-14.504,32.024-16.304c-0.32,27.856-21.072,50.824-47.936,54.712
			C64.192,232.464,70.2,218.968,79.864,209.024z M120,432h-16v16h16v8c0,4.408-3.584,8-8,8H64c-4.416,0-8-3.592-8-8v-8h16v-16H56
			v-34.488C68.752,408.968,85.552,416,104,416h16V432z M155.624,400l6.12-16h172.512l6.12,16H155.624z M440,432h-16v16h16v8
			c0,4.408-3.584,8-8,8h-48c-4.416,0-8-3.592-8-8v-8h16v-16h-16v-16h16c18.448,0,35.248-7.032,48-18.488V432z M448,288v56
			c0,30.88-25.128,56-56,56h-34.496l-12.232-32H150.728l-12.232,32H104c-30.872,0-56-25.12-56-56v-56h56v-16H64v-8.472
			c35.944-4,64-34.536,64-71.528h240c0,36.992,28.056,67.536,64,71.528V272h-40v16H448z M431.968,247.352
			c-26.864-3.888-47.616-26.856-47.936-54.712c12.472,1.808,23.624,7.688,32.024,16.304l0.016,0.088l0.056-0.008
			C425.792,218.968,431.792,232.464,431.968,247.352z M480,136c0,2.712-0.336,5.384-0.872,8H456v16h15.896
			c-2.24,2.992-4.864,5.72-7.904,8c-6.864,5.16-15.392,8-23.992,8h-12.112l-5.376-41.24c18.848-4.344,38.144-6.688,57.488-6.76V136z
			"/>
	</g>
</g>
<g>
	<g>
		<rect x="202.743" y="112.003" transform="matrix(0.7071 -0.7071 0.7071 0.7071 -12.218 210.5095)" width="90.511" height="16"/>
	</g>
</g>
<g>
	<g>
		<rect x="185.365" y="95.99" transform="matrix(0.7071 -0.7071 0.7071 0.7071 -12.6125 177.531)" width="45.256" height="16"/>
	</g>
</g>
<g>
	<g>
		<rect x="265.36" y="128.009" transform="matrix(0.7071 -0.7071 0.7071 0.7071 -11.8234 243.4744)" width="45.256" height="16"/>
	</g>
</g>
<g>
</g>
<g>
</g>
<g>
</g>
<g>
</g>
<g>
</g>
<g>
</g>
<g>
</g>
<g>
</g>
<g>
</g>
<g>
</g>
<g>
</g>
<g>
</g>
<g>
</g>
<g>
</g>
<g>
</g>
</svg>
