<?xml version="1.0" encoding="iso-8859-1"?>
<!-- Generator: Adobe Illustrator 19.0.0, SVG Export Plug-In . SVG Version: 6.00 Build 0)  -->
<svg version="1.1" id="Capa_1" xmlns="http://www.w3.org/2000/svg" xmlns:xlink="http://www.w3.org/1999/xlink" x="0px" y="0px"
	 viewBox="0 0 496 496" style="enable-background:new 0 0 496 496;" xml:space="preserve">
<g>
	<g>
		<path d="M304,272H192c-22.056,0-40,17.944-40,40v72h192v-72C344,289.944,326.056,272,304,272z M224,368h-16v-48h16V368z M256,368
			h-16v-48h16V368z M288,368h-16v-48h16V368z M328,368h-24v-48c0-8.824-7.176-16-16-16h-80c-8.824,0-16,7.176-16,16v48h-24v-56
			c0-13.232,10.768-24,24-24h112c13.232,0,24,10.768,24,24V368z"/>
	</g>
</g>
<g>
	<g>
		<path d="M440,48v-8c0-22.056-17.944-40-40-40H96C73.944,0,56,17.944,56,40v8H40v16h16v232v64c0,13.232,10.768,24,24,24v88
			c0,13.232,10.768,24,24,24h32c13.232,0,24-10.768,24-24v-40h176v40c0,13.232,10.768,24,24,24h32c13.232,0,24-10.768,24-24v-88
			c13.232,0,24-10.768,24-24v-64V64h16V48H440z M144,472c0,4.408-3.584,8-8,8h-32c-4.416,0-8-3.592-8-8v-81.576L123.72,432H144V472z
			 M400,472c0,4.408-3.584,8-8,8h-32c-4.416,0-8-3.592-8-8v-40h20.28L400,390.424V472z M424,360c0,4.408-3.584,8-8,8h-56v16h25.056
			l-21.336,32H132.28l-21.336-32H136v-16H80c-4.416,0-8-3.592-8-8v-61.752l48,12V336H88v16h32c8.824,0,16-7.176,16-16v-25.752
			c0-7.352-4.984-13.736-12.128-15.52l-49.328-12.336C80.144,267.048,94.744,256,112,256h272c17.256,0,31.856,11.048,37.456,26.392
			l-49.328,12.336c-7.144,1.776-12.128,8.16-12.128,15.52V336c0,8.824,7.176,16,16,16h32v-16h-32v-25.752l48-12V360z
			 M320.008,78.528V96H176V78.528c6.776-2.416,12.112-7.752,14.528-14.528H305.48C307.896,70.776,313.232,76.112,320.008,78.528z
			 M320,56c0-4.408,3.584-8,8-8c4.416,0,8,3.592,8,8s-3.584,8-8,8C323.584,64,320,60.408,320,56z M168,64c-4.416,0-8-3.592-8-8
			s3.584-8,8-8s8,3.592,8,8S172.416,64,168,64z M355.36,112c12.24,0,22.496,9.176,23.848,21.344l11.904,107.16
			C388.776,240.208,386.416,240,384,240h-8.872L363.8,142.16c-0.944-8.072-7.768-14.16-15.896-14.16H148.096
			c-8.144,0-14.968,6.096-15.888,14.16L120.872,240H112c-2.416,0-4.776,0.208-7.112,0.504l11.904-107.152
			C118.144,121.176,128.4,112,140.64,112H355.36z M192,208c-19.32,0-35.472,13.768-39.192,32h-15.832l11.112-96h199.816l11.112,96
			H231.192C227.472,221.768,211.32,208,192,208z M214.528,240H169.48c3.312-9.288,12.112-16,22.528-16S211.216,230.712,214.528,240z
			 M424,48h-40v16h40v192.888c-4.656-4.76-10.152-8.648-16.24-11.52l-12.64-113.784C392.856,111.296,375.768,96,355.36,96H336
			V78.528c6.776-2.416,12.112-7.752,14.528-14.528H368V48h-17.472c-3.312-9.288-12.112-16-22.528-16
			c-10.416,0-19.216,6.712-22.528,16H190.528c-3.312-9.288-12.112-16-22.528-16s-19.216,6.712-22.528,16H128v16h17.472
			c2.416,6.776,7.752,12.112,14.528,14.528V96h-19.36c-20.408,0-37.504,15.296-39.76,35.584L88.24,245.368
			c-6.088,2.872-11.592,6.76-16.24,11.52V64h40V48H72v-8c0-13.232,10.768-24,24-24h304c13.232,0,24,10.768,24,24V48z"/>
	</g>
</g>
<g>
</g>
<g>
</g>
<g>
</g>
<g>
</g>
<g>
</g>
<g>
</g>
<g>
</g>
<g>
</g>
<g>
</g>
<g>
</g>
<g>
</g>
<g>
</g>
<g>
</g>
<g>
</g>
<g>
</g>
</svg>
