<?xml version="1.0" encoding="iso-8859-1"?>
<!-- Generator: Adobe Illustrator 19.0.0, SVG Export Plug-In . SVG Version: 6.00 Build 0)  -->
<svg version="1.1" id="Capa_1" xmlns="http://www.w3.org/2000/svg" xmlns:xlink="http://www.w3.org/1999/xlink" x="0px" y="0px"
	 viewBox="0 0 496 496" style="enable-background:new 0 0 496 496;" xml:space="preserve">
<g>
	<g>
		<path d="M391.256,282.688L369.36,144H400v-16h-16V96h-16V64h-48V32h-24V0h-16v32h-64V0h-16v32h-24v32h-48v32h-16v32H96v16h30.64
			l-21.896,138.688L37.408,316.36L122.944,496h250.112l85.536-179.648L391.256,282.688z M336,80h16v16h-16V80z M192,48h112v16H192
			V48z M320,80v16h-16V80H320z M288,80v16h-16V80H288z M256,80v16h-16V80H256z M224,80v16h-16V80H224z M176,80h16v16h-16V80z
			 M144,80h16v16h-16V80z M128,112h240v16H128V112z M142.832,144h210.336l20.512,129.896L344,259.056V184c0-13.232-10.768-24-24-24
			H176c-13.232,0-24,10.768-24,24v75.056l-29.68,14.84L142.832,144z M328,184v67.056l-30.952-15.48
			c-30.296-15.152-67.8-15.152-98.096,0L168,251.056V184c0-4.408,3.584-8,8-8h144C324.416,176,328,179.592,328,184z M133.056,480
			L73.92,355.832l134.752-70.584L223.376,480H133.056z M256.584,480h-17.168l-15.288-202.64c14.952-6.856,32.8-6.856,47.752,0
			L256.584,480z M422.072,355.832L362.944,480h-90.32l14.696-194.752l103.968,54.456l7.424-14.168L281.88,264.344
			c-20.832-10.912-46.936-10.912-67.768,0L67.04,341.376l-8.448-17.736l147.512-73.752c25.872-12.944,57.904-12.944,83.784,0
			L437.4,323.64l-8.448,17.736l-17.248-9.032l-7.424,14.168L422.072,355.832z"/>
	</g>
</g>
<g>
</g>
<g>
</g>
<g>
</g>
<g>
</g>
<g>
</g>
<g>
</g>
<g>
</g>
<g>
</g>
<g>
</g>
<g>
</g>
<g>
</g>
<g>
</g>
<g>
</g>
<g>
</g>
<g>
</g>
</svg>
