<?xml version="1.0" encoding="iso-8859-1"?>
<!-- Generator: Adobe Illustrator 19.0.0, SVG Export Plug-In . SVG Version: 6.00 Build 0)  -->
<svg version="1.1" id="Capa_1" xmlns="http://www.w3.org/2000/svg" xmlns:xlink="http://www.w3.org/1999/xlink" x="0px" y="0px"
	 viewBox="0 0 496 496" style="enable-background:new 0 0 496 496;" xml:space="preserve">
<g>
	<g>
		<path d="M496,208c0-17.648-14.352-32-32-32h-32v48h-9.112L406.04,111.688c-3.72-24.776-22.84-43.416-46.896-47.016l-6.336-50.664
			C351.816,6.024,344.992,0,336.936,0H159.064c-8.056,0-14.88,6.024-15.872,14.016l-6.336,50.664
			C112.8,68.28,93.68,86.912,89.96,111.696L73.112,224H64v-48H32c-17.648,0-32,14.352-32,32s14.352,32,32,32h16.208
			C43.128,246.704,40,254.96,40,264v104H24v40c0,22.056,17.944,40,40,40h8v24c0,13.232,10.768,24,24,24h48c13.232,0,24-10.768,24-24
			v-24h160v24c0,13.232,10.768,24,24,24h48c13.232,0,24-10.768,24-24v-24h8c22.056,0,40-17.944,40-40v-40h-16V264
			c0-9.04-3.128-17.296-8.208-24H464C481.648,240,496,225.648,496,208z M48,224H32c-8.824,0-16-7.176-16-16c0-8.824,7.176-16,16-16
			h16V224z M440,264c0,13.232-10.768,24-24,24s-24-10.768-24-24s10.768-24,24-24S440,250.768,440,264z M440,295.792V368h-40v-67.392
			c4.912,2.16,10.304,3.392,16,3.392C425.04,304,433.296,300.872,440,295.792z M159.064,16h177.872l6,48H153.064L159.064,16z
			 M105.776,114.064C108.744,94.328,125.376,80,145.336,80h205.328c19.96,0,36.592,14.328,39.56,34.064L406.712,224h-16.184
			l-16.136-107.552C372.656,104.792,362.448,96,350.664,96H145.336c-11.784,0-21.984,8.784-23.728,20.44L105.472,224H89.288
			L105.776,114.064z M128,304v64h-16v-72c0-4.408,3.592-8,8-8h256c4.408,0,8,3.592,8,8v72h-16v-64H128z M352,320v16h-48v-16H352z
			 M208,336v-16h80v16H208z M288,352v32h-80v-32H288z M144,336v-16h48v16H144z M192,352v16h-48v-16H192z M376,264
			c0,2.768,0.288,5.472,0.824,8.08c-0.28-0.008-0.544-0.08-0.824-0.08H120c-0.28,0-0.544,0.072-0.824,0.08
			c0.536-2.608,0.824-5.312,0.824-8.08c0-9.04-3.128-17.296-8.208-24H384.2C379.128,246.704,376,254.96,376,264z M200,184
			c-23.744,0-43.448,17.336-47.28,40h-31.072l15.776-105.184c0.576-3.824,4.048-6.816,7.912-6.816h205.328
			c3.864,0,7.336,3,7.912,6.824L374.352,224H247.28C243.456,201.336,223.744,184,200,184z M230.864,224h-61.728
			c3.576-13.76,16-24,30.864-24S227.288,210.24,230.864,224z M80,240c13.232,0,24,10.768,24,24s-10.768,24-24,24s-24-10.768-24-24
			S66.768,240,80,240z M56,295.792c6.704,5.08,14.96,8.208,24,8.208c5.696,0,11.088-1.232,16-3.392V368H56V295.792z M64,432
			c-13.232,0-24-10.768-24-24v-24h96v48H64z M152,472c0,4.408-3.592,8-8,8H96c-4.408,0-8-3.592-8-8v-24h64V472z M168,432h-16v-48h16
			V432z M312,432H184v-48h8v16h112v-16h8V432z M304,368v-16h48v16H304z M328,432v-48h16v48H328z M408,472c0,4.408-3.592,8-8,8h-48
			c-4.408,0-8-3.592-8-8v-24h64V472z M456,384v24c0,13.232-10.768,24-24,24h-72v-48H456z M448,192h16c8.824,0,16,7.176,16,16
			c0,8.824-7.176,16-16,16h-16V192z"/>
	</g>
</g>
<g>
	<g>
		<rect x="216" y="128" width="96" height="16"/>
	</g>
</g>
<g>
	<g>
		<rect x="328" y="128" width="16" height="16"/>
	</g>
</g>
<g>
</g>
<g>
</g>
<g>
</g>
<g>
</g>
<g>
</g>
<g>
</g>
<g>
</g>
<g>
</g>
<g>
</g>
<g>
</g>
<g>
</g>
<g>
</g>
<g>
</g>
<g>
</g>
<g>
</g>
</svg>
