<?xml version="1.0" encoding="iso-8859-1"?>
<!-- Generator: Adobe Illustrator 19.0.0, SVG Export Plug-In . SVG Version: 6.00 Build 0)  -->
<svg version="1.1" id="Capa_1" xmlns="http://www.w3.org/2000/svg" xmlns:xlink="http://www.w3.org/1999/xlink" x="0px" y="0px"
	 viewBox="0 0 496 496" style="enable-background:new 0 0 496 496;" xml:space="preserve">
<g>
	<g>
		<path d="M456,373.336V280c0-8.6-2-16.712-5.48-24H456c13.232,0,24-10.768,24-24v-48c0-13.232-10.768-24-24-24h-39.16l-6-59.984
			c-1.6-16.008-12.408-28.832-26.84-33.76V48h40V0H72v48h40v18.256c-14.44,4.928-25.24,17.752-26.84,33.76l-6,59.984H40
			c-13.232,0-24,10.768-24,24v48c0,13.232,10.768,24,24,24h5.48C42,263.288,40,271.4,40,280v93.336L14,408l30,40h28v24
			c0,13.232,10.768,24,24,24h48c13.232,0,24-10.768,24-24v-24h160v24c0,13.232,10.768,24,24,24h48c13.232,0,24-10.768,24-24v-24h28
			l30-40L456,373.336z M456,176c4.408,0,8,3.592,8,8v48c0,4.408-3.592,8-8,8h-17.032c-4.44-4.32-9.528-7.952-15.192-10.632
			L418.44,176H456z M88,32V16h320v16H88z M368,48v16h-16V48H368z M336,48v16H160V48H336z M144,48v16h-16V48H144z M101.08,101.616
			C102.312,89.296,112.576,80,124.96,80h246.08c12.384,0,22.656,9.296,23.88,21.616l12.288,122.904
			c-2.36-0.312-4.76-0.52-7.208-0.52h-16.488l-6.592-105.504C376.136,105.88,365.608,96,352.968,96H143.032
			c-12.64,0-23.168,9.88-23.952,22.496L112.488,224H96c-2.448,0-4.848,0.208-7.208,0.52L101.08,101.616z M341.248,240
			l-17.488,58.296c-1.024,3.408-4.104,5.704-7.664,5.704H179.904c-3.56,0-6.64-2.296-7.664-5.696L154.752,240H341.248z M161.136,224
			c3.576-13.76,16-24,30.864-24s27.288,10.24,30.864,24H161.136z M239.28,224c-3.824-22.664-23.536-40-47.28-40
			s-43.448,17.336-47.28,40h-16.208l6.528-104.496c0.272-4.208,3.776-7.504,7.992-7.504h209.936c4.216,0,7.72,3.296,7.984,7.504
			L367.488,224H239.28z M40,240c-4.408,0-8-3.592-8-8v-48c0-4.408,3.592-8,8-8h37.56l-5.336,53.376
			C66.56,232.048,61.472,235.68,57.032,240H40z M52,432l-12-16h24v-16H40l12-16h60v16H80v16h32v16H52z M152,472c0,4.408-3.592,8-8,8
			H96c-4.408,0-8-3.592-8-8v-24h64V472z M128,432v-72c0-4.408,3.592-8,8-8s8,3.592,8,8v72H128z M336,432H160v-16h176V432z M336,400
			H160v-16h176V400z M192,368v-16h112v16H192z M336,360v8h-16v-32H176v32h-16v-8c0-13.232-10.768-24-24-24s-24,10.768-24,24v8H56
			v-88c0-22.056,17.944-40,40-40h42.048l18.864,62.896C159.984,313.128,169.224,320,179.904,320h136.184
			c10.68,0,19.92-6.872,22.992-17.104L357.952,240H400c22.056,0,40,17.944,40,40v88h-56v-8c0-13.232-10.768-24-24-24
			S336,346.768,336,360z M368,360v72h-16v-72c0-4.408,3.592-8,8-8C364.408,352,368,355.592,368,360z M408,472c0,4.408-3.592,8-8,8
			h-48c-4.408,0-8-3.592-8-8v-24h64V472z M456,416l-12,16h-60v-16h40v-16h-40v-16h60l12,16h-16v16H456z"/>
	</g>
</g>
<g>
	<g>
		<path d="M104,248c-17.648,0-32,14.352-32,32s14.352,32,32,32s32-14.352,32-32S121.648,248,104,248z M104,296
			c-8.824,0-16-7.176-16-16c0-8.824,7.176-16,16-16s16,7.176,16,16C120,288.824,112.824,296,104,296z"/>
	</g>
</g>
<g>
	<g>
		<path d="M392,248c-17.648,0-32,14.352-32,32s14.352,32,32,32s32-14.352,32-32S409.648,248,392,248z M392,296
			c-8.824,0-16-7.176-16-16c0-8.824,7.176-16,16-16c8.824,0,16,7.176,16,16C408,288.824,400.824,296,392,296z"/>
	</g>
</g>
<g>
</g>
<g>
</g>
<g>
</g>
<g>
</g>
<g>
</g>
<g>
</g>
<g>
</g>
<g>
</g>
<g>
</g>
<g>
</g>
<g>
</g>
<g>
</g>
<g>
</g>
<g>
</g>
<g>
</g>
</svg>
