<?xml version="1.0" encoding="iso-8859-1"?>
<!-- Generator: Adobe Illustrator 19.0.0, SVG Export Plug-In . SVG Version: 6.00 Build 0)  -->
<svg version="1.1" id="Capa_1" xmlns="http://www.w3.org/2000/svg" xmlns:xlink="http://www.w3.org/1999/xlink" x="0px" y="0px"
	 viewBox="0 0 495.16 495.16" style="enable-background:new 0 0 495.16 495.16;" xml:space="preserve">
<g>
	<g>
		<path d="M439.58,79.16v-16h-160V46.968C356.692,45,416.564,15.608,419.156,14.312L412.004,0
			c-0.616,0.312-63.384,31.16-140.424,31.16S131.772,0.312,131.148,0l-7.152,14.312c2.6,1.296,62.472,30.688,139.584,32.656V63.16
			h-160v16h88v32c-22.28,0-41.504,13.112-50.52,32h-21.48v16h16.64c-0.376,2.624-0.64,5.28-0.64,8v8h-80v224h80v8v72
			c0,8.824,7.176,16,16,16h32c8.824,0,16-7.176,16-16v-16h144v16c0,8.824,7.176,16,16,16h32c8.824,0,16-7.176,16-16v-72v-8h16v-16
			h-16v-216c0-2.72-0.264-5.376-0.64-8h16.64v-16H402.1c-9.008-18.888-28.24-32-50.52-32v-32H439.58z M135.58,271.16h-32v-48h32
			V271.16z M135.58,207.16h-48v80h48v96h-64v-192h64V207.16z M319.58,79.16h16v32h-16V79.16z M239.58,79.16h64v32h-64V79.16z
			 M207.58,79.16h16v32h-16V79.16z M151.58,215.16c0-13.232,10.768-24,24-24s24,10.768,24,24v24h-48V215.16z M151.58,255.16h48v48
			h-48V255.16z M183.58,479.16h-32v-49.472c0.896,0.32,1.8,0.64,2.744,0.856l16.312,32.616h12.944V479.16z M180.524,447.16l-8-16
			h198.112l-8,16H180.524z M391.58,479.16h-32v-16h12.944l16.312-32.624c0.944-0.216,1.848-0.536,2.744-0.856V479.16z
			 M391.58,407.16c0,4.408-3.584,8-8,8h-224c-4.416,0-8-3.592-8-8v-8h240V407.16z M391.58,383.16h-240v-64h92.448
			c-2.752,4.728-4.448,10.144-4.448,16c0,17.648,14.352,32,32,32s32-14.352,32-32c0-5.856-1.696-11.272-4.448-16h92.448V383.16z
			 M295.58,255.16v48h-48v-48H295.58z M247.58,239.16v-24c0-13.232,10.768-24,24-24s24,10.768,24,24v24H247.58z M287.58,335.16
			c0,8.824-7.176,16-16,16c-8.824,0-16-7.176-16-16c0-8.824,7.176-16,16-16C280.404,319.16,287.58,326.336,287.58,335.16z
			 M391.58,303.16h-48v-48h48V303.16z M391.58,239.16h-48v-24c0-13.232,10.768-24,24-24s24,10.768,24,24V239.16z M383.372,143.16
			H279.58v16h111.192c0.528,2.584,0.808,5.264,0.808,8v16.208c-6.704-5.08-14.96-8.208-24-8.208c-22.056,0-40,17.944-40,40v88h-16
			v-88c0-22.056-17.944-40-40-40c-22.056,0-40,17.944-40,40v88h-16v-88c0-22.056-17.944-40-40-40c-9.04,0-17.296,3.128-24,8.208
			V167.16c0-2.736,0.28-5.416,0.808-8H263.58v-16H159.788c7.312-9.656,18.784-16,31.792-16h160
			C364.596,127.16,376.068,133.504,383.372,143.16z"/>
	</g>
</g>
<g>
	<g>
		<rect x="359.58" y="335.16" width="16" height="16"/>
	</g>
</g>
<g>
	<g>
		<rect x="167.58" y="335.16" width="16" height="16"/>
	</g>
</g>
<g>
</g>
<g>
</g>
<g>
</g>
<g>
</g>
<g>
</g>
<g>
</g>
<g>
</g>
<g>
</g>
<g>
</g>
<g>
</g>
<g>
</g>
<g>
</g>
<g>
</g>
<g>
</g>
<g>
</g>
</svg>
