<?xml version="1.0" encoding="iso-8859-1"?>
<!-- Generator: Adobe Illustrator 19.0.0, SVG Export Plug-In . SVG Version: 6.00 Build 0)  -->
<svg version="1.1" id="Capa_1" xmlns="http://www.w3.org/2000/svg" xmlns:xlink="http://www.w3.org/1999/xlink" x="0px" y="0px"
	 viewBox="0 0 496 496" style="enable-background:new 0 0 496 496;" xml:space="preserve">
<g>
	<g>
		<path d="M200,240v64h96v-64H200z M280,288h-64v-32h64V288z"/>
	</g>
</g>
<g>
	<g>
		<polygon points="200,328 200,344 216,344 216,384 200,384 200,400 232,400 232,328 		"/>
	</g>
</g>
<g>
	<g>
		<path d="M304,80V64h192V48H304V32h-17.752l-7.992-32H217.76l-7.992,32H192v16H0v16h180.688l-40,40L192,155.312V176h-28.736
			c-14.848,0-28.4,8.16-35.352,21.288L122.24,208H96v16h17.768l-40.912,77.28c-6.2,11.72-6.2,25.712,0,37.432l55.056,104
			c2.112,3.992,4.896,7.456,8.088,10.448V496h224v-42.84c3.184-2.984,5.968-6.448,8.088-10.448l55.056-104
			c6.2-11.72,6.2-25.712,0-37.432L382.232,224H400v-16h-26.24l-5.672-10.712C361.136,184.16,347.584,176,332.736,176H304v-32
			h-52.688l-40-40l24-24H304z M230.248,16h35.504l4.008,16h-43.512L230.248,16z M208,48h80v16h-80V48z M142.056,435.232L106.464,368
			H152v-40h-16v24H98l-11-20.776c-3.728-7.024-3.728-15.424,0-22.456L97.992,288H136v24h16v-40h-45.536l25.408-48H168v224h-4.736
			C154.352,448,146.224,443.104,142.056,435.232z M344,480L344,480H152v-17.64c3.608,1.056,7.384,1.64,11.264,1.64h169.472
			c3.88,0,7.656-0.584,11.264-1.64V480z M184,448V224h128v224H184z M364.128,224l25.408,48H344v40h16v-24h38l11,20.776
			c3.728,7.024,3.728,15.424,0,22.456L398.008,352H360v-24h-16v40h45.536l-35.592,67.232C349.776,443.104,341.648,448,332.736,448
			H328V224H364.128z M332.736,192c8.912,0,17.04,4.896,21.208,12.768l1.712,3.232H140.344l1.712-3.232
			c4.168-7.872,12.296-12.768,21.208-12.768H332.736z M288,160v16h-80v-16H288z M188.688,104l40,40h-25.376l-40-40L192,75.312V80
			h20.688L188.688,104z"/>
	</g>
</g>
<g>
</g>
<g>
</g>
<g>
</g>
<g>
</g>
<g>
</g>
<g>
</g>
<g>
</g>
<g>
</g>
<g>
</g>
<g>
</g>
<g>
</g>
<g>
</g>
<g>
</g>
<g>
</g>
<g>
</g>
</svg>
