<?xml version="1.0" encoding="iso-8859-1"?>
<!-- Generator: Adobe Illustrator 19.0.0, SVG Export Plug-In . SVG Version: 6.00 Build 0)  -->
<svg version="1.1" id="Capa_1" xmlns="http://www.w3.org/2000/svg" xmlns:xlink="http://www.w3.org/1999/xlink" x="0px" y="0px"
	 viewBox="0 0 496 496" style="enable-background:new 0 0 496 496;" xml:space="preserve">
<g>
	<g>
		<path d="M472,64h-47.56c-2.888-8.144-9.984-14.168-18.552-15.624L389.768,0H106.232l-16.12,48.376
			C81.544,49.832,74.448,55.856,71.56,64H24C10.768,64,0,74.768,0,88v104h39.24l8-80h17.696l-16.88,135.008L48,424
			c0,13.232,10.768,24,24,24h8v24c0,13.232,10.768,24,24,24h48c13.232,0,24-10.768,24-24v-24h144v24c0,13.232,10.768,24,24,24h48
			c13.232,0,24-10.768,24-24v-24h8c13.232,0,24-10.768,24-24V248l-16.952-136h17.712l8,80H496V88C496,74.768,485.232,64,472,64z
			 M117.768,16h260.464l10.672,32H107.096L117.768,16z M24.76,176H16v-64h15.16L24.76,176z M16,96v-8c0-4.408,3.584-8,8-8h44.944
			l-2,16H16z M64,360h48v40H64V360z M160,472c0,4.408-3.584,8-8,8h-48c-4.416,0-8-3.592-8-8v-24h64V472z M400,472
			c0,4.408-3.584,8-8,8h-48c-4.416,0-8-3.592-8-8v-24h64V472z M432,424c0,4.408-3.584,8-8,8H72c-4.416,0-8-3.592-8-8v-8h48
			c8.824,0,16-7.176,16-16v-40c0-8.824-7.176-16-16-16H96v-24h304v24h-16c-8.824,0-16,7.176-16,16v40c0,8.824,7.176,16,16,16h48V424
			z M376,256c13.232,0,24,10.768,24,24v24H96v-24c0-13.232,10.768-24,24-24H376z M160,240c0-17.648,14.352-32,32-32s32,14.352,32,32
			H160z M432,400h-48v-40h48V400z M432,248.496V344h-16v-24v-8v-32c0-16.552-10.104-30.784-24.472-36.856L375.2,88H336v16h24.8
			l14.32,136H240c0-26.472-21.528-48-48-48s-48,21.528-48,48h-23.12l14.32-136H160V88h-39.2l-16.328,155.144
			C90.104,249.216,80,263.448,80,280v32v8v24H64v-95.504L86.184,71c0.504-3.992,3.92-7,7.944-7H240v16h-64v48h144V80h-64V64h145.872
			c4.024,0,7.44,3.008,7.936,7.008L432,248.496z M256,96h48v16H192V96h48H256z M480,176h-8.76l-6.4-64H480V176z M480,96h-50.952
			l-1.992-16H472c4.416,0,8,3.592,8,8V96z"/>
	</g>
</g>
<g>
	<g>
		<path d="M142.552,344l10.672,64h189.544l10.672-64H142.552z M176,392h-9.224l-5.328-32H176V392z M208,392h-16v-32h16V392z
			 M240,392h-16v-32h16V392z M272,392h-16v-32h16V392z M304,392h-16v-32h16V392z M329.224,392H320v-32h14.552L329.224,392z"/>
	</g>
</g>
<g>
</g>
<g>
</g>
<g>
</g>
<g>
</g>
<g>
</g>
<g>
</g>
<g>
</g>
<g>
</g>
<g>
</g>
<g>
</g>
<g>
</g>
<g>
</g>
<g>
</g>
<g>
</g>
<g>
</g>
</svg>
