<?xml version="1.0" encoding="iso-8859-1"?>
<!-- Generator: Adobe Illustrator 19.0.0, SVG Export Plug-In . SVG Version: 6.00 Build 0)  -->
<svg version="1.1" id="Capa_1" xmlns="http://www.w3.org/2000/svg" xmlns:xlink="http://www.w3.org/1999/xlink" x="0px" y="0px"
	 viewBox="0 0 496 496" style="enable-background:new 0 0 496 496;" xml:space="preserve">
<g>
	<g>
		<path d="M400,132.864C400,59.608,340.4,0,267.136,0h-38.264C155.6,0,96,59.608,96,132.864c0,24.464,6.744,48.424,19.496,69.288
			L177.736,304H152v16h16v48h-48v16h17.056l13.056,91.4c1.68,11.744,11.888,20.6,23.76,20.6H322.12c11.864,0,22.08-8.856,23.76-20.6
			l13.064-91.4H376v-16h-48v-48h16v-16h-25.736l62.24-101.848C393.256,181.288,400,157.336,400,132.864z M328,136
			c0,67.944-42.448,149.36-52.688,168h-15.544C270.312,276.4,296,203.088,296,144c0-60.08-21.528-106.544-33.584-127.872
			C272.816,21.408,328,53.312,328,136z M280,320v48h-64v-48H280z M280,144c0,50.552-20.6,114.24-32,145.624
			c-11.408-31.376-32-95.032-32-145.624c0-56.696,21.04-101.312,32.016-120.744C258.992,42.64,280,87.144,280,144z M233.584,16.128
			C221.528,37.456,200,83.92,200,144c0,59.088,25.688,132.4,36.232,160h-15.544C210.448,285.368,168,204.016,168,136
			C168,53.312,223.184,21.408,233.584,16.128z M129.152,193.808C117.928,175.456,112,154.384,112,132.864
			c0-54.904,38.104-100.952,89.216-113.424C179.176,38.92,152,75.176,152,136c0,65.336,35.408,139.416,50.488,168h-6
			L129.152,193.808z M200,320v48h-16v-48H200z M330.04,473.136c-0.552,3.912-3.96,6.864-7.912,6.864H173.872
			c-3.952,0-7.36-2.952-7.912-6.864L157.8,416H184v16h16v-16h40v16h16v-16h40v16h16v-16h26.2L330.04,473.136z M342.768,384l-2.28,16
			H155.512l-2.288-16H342.768z M296,368v-48h16v48H296z M299.512,304h-6C308.592,275.416,344,201.336,344,136
			c0-60.824-27.176-97.08-49.216-116.56C345.896,31.912,384,77.968,384,132.864c0,21.52-5.928,42.592-17.152,60.944L299.512,304z"/>
	</g>
</g>
<g>
</g>
<g>
</g>
<g>
</g>
<g>
</g>
<g>
</g>
<g>
</g>
<g>
</g>
<g>
</g>
<g>
</g>
<g>
</g>
<g>
</g>
<g>
</g>
<g>
</g>
<g>
</g>
<g>
</g>
</svg>
