<?xml version="1.0" encoding="iso-8859-1"?>
<!-- Generator: Adobe Illustrator 19.0.0, SVG Export Plug-In . SVG Version: 6.00 Build 0)  -->
<svg version="1.1" id="Capa_1" xmlns="http://www.w3.org/2000/svg" xmlns:xlink="http://www.w3.org/1999/xlink" x="0px" y="0px"
	 viewBox="0 0 496 496" style="enable-background:new 0 0 496 496;" xml:space="preserve">
<g>
	<g>
		<rect x="136" y="368" width="224" height="16"/>
	</g>
</g>
<g>
	<g>
		<rect x="112" y="400" width="32" height="16"/>
	</g>
</g>
<g>
	<g>
		<rect x="352" y="400" width="32" height="16"/>
	</g>
</g>
<g>
	<g>
		<rect x="208" y="400" width="80" height="16"/>
	</g>
</g>
<g>
	<g>
		<path d="M456.072,215.952l-48.72-0.136c-0.472-3.296-1.176-6.56-2.232-9.728l-18.592-55.792
			c-7.36-22.064-27.48-37.008-50.528-38.08V72h-26.584l-16-40h-90.832l-16,40H160v40.208c-23.048,1.072-43.176,16.016-50.528,38.08
			L90.88,206.08c-1.056,3.176-1.76,6.44-2.232,9.728l-48.744,0.136C31.136,216,24,223.176,24,231.952V280c0,8.824,7.176,16,16,16h16
			c8.824,0,16-7.176,16-16v-48.144l16-0.048v137.664c-9.288,3.312-16,12.112-16,22.528v32c0,13.232,10.768,24,24,24h8v24
			c0,13.232,10.768,24,24,24h32c13.232,0,24-10.768,24-24v-24h128v24c0,13.232,10.768,24,24,24h32c13.232,0,24-10.768,24-24v-24h8
			c13.232,0,24-10.768,24-24v-32c0-10.416-6.712-19.216-16-22.528V231.816l16,0.048V280c0,8.824,7.176,16,16,16h16
			c8.824,0,16-7.176,16-16v-48.048C472,223.176,464.864,216,456.072,215.952z M56,280H40l-0.024-48.048L56,231.904V280z M176,88h32
			V72h-4.184l9.6-24h69.168l9.6,24H288v16h32v24h-24V96h-24V72h-48v24h-24v16h-24V88z M200,216c-19.32,0-35.472,13.768-39.192,32
			H144v-56c0-13.232,10.768-24,24-24h56h48h56c13.232,0,24,10.768,24,24v56H239.192C235.472,229.768,219.32,216,200,216z
			 M222.528,248H177.48c3.312-9.288,12.112-16,22.528-16S219.216,238.712,222.528,248z M256,128v24h-16v-24h-24v-16h24V88h16v24h24
			v16H256z M168,472c0,4.408-3.592,8-8,8h-32c-4.408,0-8-3.592-8-8v-24h48V472z M376,472c0,4.408-3.592,8-8,8h-32
			c-4.408,0-8-3.592-8-8v-24h48V472z M408,424c0,4.408-3.592,8-8,8H96c-4.408,0-8-3.592-8-8v-32c0-4.408,3.592-8,8-8h24v-16h-16
			V223.792c0-4.312,0.688-8.56,2.056-12.648l18.592-55.792C130.104,138.992,145.352,128,162.6,128H200v16h24v8h-56
			c-22.056,0-40,17.944-40,40v72h240v-72c0-22.056-17.944-40-40-40h-56v-8h24v-16h37.4c17.248,0,32.496,10.992,37.952,27.352
			l18.592,55.792c1.368,4.08,2.056,8.336,2.056,12.648V368h-16v16h24c4.408,0,8,3.592,8,8V424z M456,280h-16v-48.096l16,0.048V280z"
			/>
	</g>
</g>
<g>
	<g>
		<rect x="320" y="40" width="16" height="16"/>
	</g>
</g>
<g>
	<g>
		<rect x="160" y="40" width="16" height="16"/>
	</g>
</g>
<g>
	<g>
		<path d="M314.232,280l-5.336,16h-121.8l-5.336-16H120v64h256v-64H314.232z M136,328v-32h34.232l10.664,32H136z M208,328h-10.232
			l-5.336-16H208V328z M272,328h-48v-16h48V328z M298.232,328H288v-16h15.568L298.232,328z M360,328h-44.904l10.664-32H360V328z"/>
	</g>
</g>
<g>
	<g>
		<rect x="264" width="16" height="16"/>
	</g>
</g>
<g>
	<g>
		<rect x="216" width="16" height="16"/>
	</g>
</g>
<g>
	<g>
		<rect x="175.998" y="7.999" transform="matrix(0.7071 -0.7071 0.7071 0.7071 42.5785 134.792)" width="16" height="16"/>
	</g>
</g>
<g>
	<g>
		<rect x="303.994" y="7.978" transform="matrix(0.7071 -0.7071 0.7071 0.7071 80.0826 225.2933)" width="16" height="16"/>
	</g>
</g>
<g>
</g>
<g>
</g>
<g>
</g>
<g>
</g>
<g>
</g>
<g>
</g>
<g>
</g>
<g>
</g>
<g>
</g>
<g>
</g>
<g>
</g>
<g>
</g>
<g>
</g>
<g>
</g>
<g>
</g>
</svg>
