<?xml version="1.0" encoding="iso-8859-1"?>
<!-- Generator: Adobe Illustrator 19.0.0, SVG Export Plug-In . SVG Version: 6.00 Build 0)  -->
<svg version="1.1" id="Capa_1" xmlns="http://www.w3.org/2000/svg" xmlns:xlink="http://www.w3.org/1999/xlink" x="0px" y="0px"
	 viewBox="0 0 491.312 491.312" style="enable-background:new 0 0 491.312 491.312;" xml:space="preserve">
<g>
	<g>
		<path d="M434.112,57.2l-49.424-9.888L360,72l59.312,59.312l24.68-24.68L434.112,57.2z M419.312,108.688L382.624,72l7.32-7.32
			l30.568,6.12l6.112,30.576L419.312,108.688z"/>
	</g>
</g>
<g>
	<g>
		<path d="M472.968,341.656l-11.312-11.312l-10.992,10.992l-17.792-31.768l0.088,0.088l16-16l-11.312-11.312l-12.832,12.832
			l-17.728-31.648l17.872-17.872l-11.312-11.312l-14.68,14.68l-17.728-31.648l5.216-5.216c25.752-25.752,50.344-53.232,73.104-81.68
			c20.48-25.584,31.752-57.72,31.752-90.48c0-22.056-17.944-40-40-40c-32.768,0-64.896,11.272-90.48,31.736
			c-28.448,22.76-55.928,47.352-81.68,73.104l-5.136,5.136l-31.184-18.192l14.136-14.136l-11.312-11.312l-17.112,17.112
			L197.36,65.256l11.608-11.608l-11.312-11.312l-14.584,14.592l-31.184-18.192l9.08-9.08l-11.312-11.312L137.6,30.4L85.48,0H16L0,16
			l184.288,184.288c-30.432,33.176-54.424,72.584-69.656,114.896c-2.752,7.64-4.832,15.432-6.576,23.296l-84.792-28.264
			l-21.68,43.36L64,416l-26.344,26.344l11.312,11.312l26.344-26.344l62.424,62.424l43.36-21.68l-28.264-84.792
			c7.864-1.752,15.664-3.832,23.296-6.576c42.312-15.232,81.72-39.224,114.896-69.656l184.288,184.28l16-16v-61.4l-32.52-58.08
			L472.968,341.656z M22.624,16H40l61.656,61.656l11.312-11.312L62.624,16h18.52l181.168,105.68l-47,47.008l-86.344-86.344
			l-11.312,11.312L204,180l-8.688,8.688L22.624,16z M161.528,459.952l-20.64,10.32L86.624,416l10.344-10.344l-11.312-11.312
			l-10.344,10.344l-54.264-54.264l10.32-20.64l73.84,24.616c-0.992,7.328-1.608,14.704-1.744,22.144l-9.808,9.808l11.312,11.312
			l9.808-9.808c7.44-0.136,14.816-0.752,22.144-1.744L161.528,459.952z M290.184,285.816
			c-33.536,33.536-74.848,59.752-119.472,75.816c-12.624,4.544-25.632,7.584-38.856,9.144l13.12-13.12l-11.312-11.312l-13.12,13.12
			c1.552-13.232,4.592-26.24,9.144-38.856c16.064-44.624,42.28-85.936,75.816-119.472l84.968-84.976
			c25.336-25.336,52.368-49.536,80.36-71.928C393.584,26.024,422.168,16,451.312,16c13.232,0,24,10.768,24,24
			c0,29.144-10.016,57.728-28.224,80.488c-22.392,27.992-46.592,55.024-71.928,80.36L290.184,285.816z M475.312,418.088v10.6
			l-50.344-50.344l-11.312,11.312l61.656,61.656v17.376L302.624,296l8.688-8.688l86.344,86.344l11.312-11.312L322.624,276
			l46.872-46.872L475.312,418.088z"/>
	</g>
</g>
<g>
	<g>
		<rect x="331.312" y="96" width="16" height="16"/>
	</g>
</g>
<g>
	<g>
		<rect x="291.312" y="136" width="16" height="16"/>
	</g>
</g>
<g>
	<g>
		<rect x="251.312" y="176" width="16" height="16"/>
	</g>
</g>
<g>
	<g>
		<rect x="211.312" y="216" width="16" height="16"/>
	</g>
</g>
<g>
	<g>
		<rect x="171.312" y="256" width="16" height="16"/>
	</g>
</g>
<g>
	<g>
		<rect x="379.312" y="144" width="16" height="16"/>
	</g>
</g>
<g>
	<g>
		<rect x="339.312" y="184" width="16" height="16"/>
	</g>
</g>
<g>
	<g>
		<rect x="299.312" y="224" width="16" height="16"/>
	</g>
</g>
<g>
	<g>
		<rect x="259.312" y="264" width="16" height="16"/>
	</g>
</g>
<g>
	<g>
		<rect x="219.312" y="304" width="16" height="16"/>
	</g>
</g>
<g>
</g>
<g>
</g>
<g>
</g>
<g>
</g>
<g>
</g>
<g>
</g>
<g>
</g>
<g>
</g>
<g>
</g>
<g>
</g>
<g>
</g>
<g>
</g>
<g>
</g>
<g>
</g>
<g>
</g>
</svg>
