<?xml version="1.0" encoding="iso-8859-1"?>
<!-- Generator: Adobe Illustrator 19.0.0, SVG Export Plug-In . SVG Version: 6.00 Build 0)  -->
<svg version="1.1" id="Capa_1" xmlns="http://www.w3.org/2000/svg" xmlns:xlink="http://www.w3.org/1999/xlink" x="0px" y="0px"
	 viewBox="0 0 496 496" style="enable-background:new 0 0 496 496;" xml:space="preserve">
<g>
	<g>
		<path d="M160,240v64h176v-64H160z M320,288H176v-32h144V288z"/>
	</g>
</g>
<g>
	<g>
		<path d="M392,208H104c-30.88,0-56,25.128-56,56v72h192v-16H64v-56c0-22.056,17.944-40,40-40h288c22.056,0,40,17.944,40,40v56H256
			v16h192v-72C448,233.128,422.88,208,392,208z"/>
	</g>
</g>
<g>
	<g>
		<path d="M384,240c-17.648,0-32,14.352-32,32s14.352,32,32,32s32-14.352,32-32S401.648,240,384,240z M384,288
			c-8.824,0-16-7.176-16-16c0-8.824,7.176-16,16-16c8.824,0,16,7.176,16,16C400,280.824,392.824,288,384,288z"/>
	</g>
</g>
<g>
	<g>
		<path d="M112,240c-17.648,0-32,14.352-32,32s14.352,32,32,32s32-14.352,32-32S129.648,240,112,240z M112,288
			c-8.824,0-16-7.176-16-16c0-8.824,7.176-16,16-16c8.824,0,16,7.176,16,16C128,280.824,120.824,288,112,288z"/>
	</g>
</g>
<g>
	<g>
		<rect x="192" y="248" width="16" height="48"/>
	</g>
</g>
<g>
	<g>
		<rect x="224" y="248" width="16" height="48"/>
	</g>
</g>
<g>
	<g>
		<rect x="256" y="248" width="16" height="48"/>
	</g>
</g>
<g>
	<g>
		<rect x="288" y="248" width="16" height="48"/>
	</g>
</g>
<g>
	<g>
		<path d="M328,328v16c0,4.416-3.592,8-8,8H176c-4.408,0-8-3.584-8-8v-16h-16v16c0,13.232,10.768,24,24,24h144
			c13.232,0,24-10.768,24-24v-16H328z"/>
	</g>
</g>
<g>
	<g>
		<polygon points="400.504,325.184 378.456,384 117.544,384 95.496,325.184 80.504,330.816 106.456,400 389.544,400 
			415.496,330.816 		"/>
	</g>
</g>
<g>
	<g>
		<path d="M440,280v16c13.232,0,24,10.768,24,24v32h-64v16h80v-48C480,297.944,462.056,280,440,280z"/>
	</g>
</g>
<g>
	<g>
		<path d="M440,360v80c0,4.416-3.592,8-8,8h-48c-4.408,0-8-3.584-8-8v-48h-16v48c0,13.232,10.768,24,24,24h48
			c13.232,0,24-10.768,24-24v-80H440z"/>
	</g>
</g>
<g>
	<g>
		<path d="M32,352v-32c0-13.232,10.768-24,24-24v-16c-22.056,0-40,17.944-40,40v48h80v-16H32z"/>
	</g>
</g>
<g>
	<g>
		<path d="M120,392v48c0,4.416-3.592,8-8,8H64c-4.408,0-8-3.584-8-8v-80H40v80c0,13.232,10.768,24,24,24h48
			c13.232,0,24-10.768,24-24v-48H120z"/>
	</g>
</g>
<g>
	<g>
		<path d="M391.032,77.984C386.184,51.336,363.016,32,335.936,32h-175.88c-27.072,0-50.248,19.336-55.096,45.984L78.416,224h339.168
			L391.032,77.984z M120.704,80.84C124.16,61.816,140.72,48,160.056,48h175.888c19.336,0,35.888,13.816,39.352,32.84L398.416,208
			H97.584L120.704,80.84z"/>
	</g>
</g>
<g>
	<g>
		<path d="M359.552,83.712C357.472,72.288,347.544,64,335.936,64H160.064c-11.608,0-21.544,8.288-23.664,20.056l-17.976,130.856
			l15.848,2.168l17.92-130.512c0.696-3.8,4-6.568,7.872-6.568h175.872c3.872,0,7.184,2.768,7.816,6.232l17.976,130.856l15.856-2.176
			L359.552,83.712z"/>
	</g>
</g>
<g>
	<g>
		<rect x="398.049" y="183.979" transform="matrix(0.7071 -0.7071 0.7071 0.7071 -9.2229 361.6915)" width="67.879" height="16"/>
	</g>
</g>
<g>
	<g>
		<path d="M456,128c-22.056,0-40,17.944-40,40c0,22.056,17.944,40,40,40c22.056,0,40-17.944,40-40C496,145.944,478.056,128,456,128z
			 M456,192c-13.232,0-24-10.768-24-24s10.768-24,24-24s24,10.768,24,24S469.232,192,456,192z"/>
	</g>
</g>
<g>
	<g>
		<rect x="56.008" y="158.054" transform="matrix(0.7071 -0.7071 0.7071 0.7071 -117.0126 101.4945)" width="16" height="67.879"/>
	</g>
</g>
<g>
	<g>
		<path d="M40,128c-22.056,0-40,17.944-40,40c0,22.056,17.944,40,40,40c22.056,0,40-17.944,40-40C80,145.944,62.056,128,40,128z
			 M40,192c-13.232,0-24-10.768-24-24s10.768-24,24-24s24,10.768,24,24S53.232,192,40,192z"/>
	</g>
</g>
<g>
	<g>
		<rect x="424" y="384" width="24" height="16"/>
	</g>
</g>
<g>
	<g>
		<rect x="424" y="416" width="24" height="16"/>
	</g>
</g>
<g>
	<g>
		<rect x="368" y="416" width="24" height="16"/>
	</g>
</g>
<g>
	<g>
		<rect x="48" y="384" width="24" height="16"/>
	</g>
</g>
<g>
	<g>
		<rect x="48" y="416" width="24" height="16"/>
	</g>
</g>
<g>
	<g>
		<rect x="104" y="416" width="24" height="16"/>
	</g>
</g>
<g>
	<g>
		<rect x="160" y="176" width="128" height="16"/>
	</g>
</g>
<g>
	<g>
		<rect x="304" y="176" width="16" height="16"/>
	</g>
</g>
<g>
</g>
<g>
</g>
<g>
</g>
<g>
</g>
<g>
</g>
<g>
</g>
<g>
</g>
<g>
</g>
<g>
</g>
<g>
</g>
<g>
</g>
<g>
</g>
<g>
</g>
<g>
</g>
<g>
</g>
</svg>
